<svg xmlns="http://www.w3.org/2000/svg" width="515.612" height="513.914" viewBox="0 0 515.612 513.914"><defs><style>.a{fill:#f0f0f0;}.b{fill:#e0e0e0;}.c{fill:#27debf;}.d{opacity:0.2;}.e,.j,.t,.u{fill:#fff;}.f{fill:#37474f;}.g{fill:#263238;}.h,.k{fill:#455a64;}.i{opacity:0.15;}.j{opacity:0.7;}.k,.q{opacity:0.8;}.l{fill:#ebebeb;}.m,.r,.t{opacity:0.3;}.n,.u{opacity:0.4;}.o{opacity:0.5;}.p,.q{fill:#fafafa;}.s{opacity:0.1;}.v{fill:#ffa8a7;}.w{fill:#f5f5f5;}.x{fill:#f28f8f;}</style></defs><g transform="translate(-95.269 -2378.963)"><g transform="translate(95.269 2595.188)"><ellipse class="a" cx="257.806" cy="148.844" rx="257.806" ry="148.844" transform="translate(0 0)"/></g><g transform="translate(113.202 2620.998)"><path class="b" d="M342.6,385.386a14.035,14.035,0,0,0-2.059-7.239h0a15.888,15.888,0,0,0-.884-1.354l-.046-.062a14.669,14.669,0,0,0-.968-1.186c-.029-.032-.06-.065-.09-.1a12.516,12.516,0,0,0-1.043-1.01c-.031-.028-.065-.051-.1-.078a10.2,10.2,0,0,0-1.145-.842c-.224-.14-.446-.265-.666-.375-.1-.051-.2-.088-.3-.134-.116-.051-.233-.109-.347-.154-.167-.063-.331-.111-.494-.158-.043-.012-.089-.031-.133-.042a5.029,5.029,0,0,0-.572-.111l-.033-.007a3.61,3.61,0,0,0-2.127.325h0l-.013.005v0c-5.889,2.954-39.831,24.548-55.45,34.283l-7.741,4.7a1.747,1.747,0,0,0-.571.541c-.019.027-.039.055-.058.084a2.281,2.281,0,0,0-.177.332c-.031.073-.056.154-.082.234-.031.1-.066.193-.089.3-.013.065-.021.135-.031.2-.357.193-.791.429-1.279.7l-1.144.618a45.1,45.1,0,0,0-8.83-6.544c-10.706-6.18-24.892-9.585-39.945-9.585s-29.242,3.4-39.946,9.585c-11.091,6.4-17.2,15.052-17.2,24.35s6.108,17.946,17.2,24.349c10.706,6.181,24.892,9.585,39.946,9.585s29.24-3.4,39.946-9.585c11.092-6.4,17.2-15.051,17.2-24.349a22.412,22.412,0,0,0-3.632-12.031l1.021-.552a2.287,2.287,0,0,0,2.192.215l.048-.026c5.3-2.919,56.967-24.937,67.529-30.6h0l.007,0h0C341.731,389,342.531,387.525,342.6,385.386ZM251.247,448.56c-9.246,5.338-21.7,8.279-35.064,8.279s-25.82-2.941-35.065-8.279c-7.942-4.584-12.315-10.229-12.315-15.891s4.373-11.308,12.315-15.892c9.244-5.338,21.7-8.276,35.065-8.276s25.82,2.938,35.064,8.276c7.942,4.584,12.315,10.229,12.315,15.892S259.189,443.976,251.247,448.56Z" transform="translate(-20.231 -223.114)"/><path class="b" d="M364.636,269.81l-52.408-30.322a10.658,10.658,0,0,0-9.643,0L36.373,393.188c-2.663,1.538-2.663,4.03,0,5.567l52.406,30.322a10.661,10.661,0,0,0,9.643,0l99.765-57.6,15.335,8.914c8.12,4.689,21.287,4.69,29.407,0l45.715-26.2c8.122-4.685,8.123-12.286,0-16.975l-15.323-8.909,91.315-52.935C367.3,273.84,367.3,271.347,364.636,269.81Z" transform="translate(-34.375 -238.336)"/><ellipse class="b" cx="51.387" cy="29.668" rx="51.387" ry="29.668" transform="translate(366.79 115.662)"/></g><g transform="translate(553.214 2684.633)"><g transform="translate(0 0)"><g transform="translate(7.217)"><path class="c" d="M436.171,343.681c.008-6.955-1.382-19.777,4.506-31.8,4.266-8.712,11.9-17.176,19-16.334,6.612.784,7.212,10.948.889,17.907s-14.37,16.584-16.124,31.968l-4.553,11.417Z" transform="translate(-436.034 -295.487)"/><g class="d"><path d="M436.171,343.681c.008-6.955-1.382-19.777,4.506-31.8,4.266-8.712,11.9-17.176,19-16.334,6.612.784,7.212,10.948.889,17.907s-14.37,16.584-16.124,31.968l-4.553,11.417Z" transform="translate(-436.034 -295.487)"/></g><g transform="translate(1.875 4.257)"><path class="e" d="M438.35,348.134a.483.483,0,0,0,.4-.5c-.8-19.778,5.636-36.2,18.616-47.481a.483.483,0,0,0-.634-.729c-13.209,11.483-19.762,28.168-18.948,48.249a.485.485,0,0,0,.5.464A.579.579,0,0,0,438.35,348.134Z" transform="translate(-437.717 -299.31)"/></g></g><g transform="translate(0 37.428)"><path class="c" d="M435.647,364.736a24.6,24.6,0,0,0,12.232,3.4c7.442.177,10.191-3.74,10.191-3.74s-3.786-6.45-8.182-7.814a41.029,41.029,0,0,1,13.345,3.494s4.46-.53,5.321-7.559c0,0-3.186-3.735-12.328-4.757,0,0,5.2-2.076,13.222-1.137.612.153,1.915-8.962,2.122-13.113s-1.416-3.892-4.688-4.312-14.1.492-15.843,2.494-1.953,8.077-1.953,8.077-2.342-3.108-2.29-6.169a11.39,11.39,0,0,0-6.7,1.061c-3.383,1.713-4.471,3.083-4.638,5.683s-.387,6.486.656,9.5c0,0-3.084-4.969-2.926-9.294a45.844,45.844,0,0,0-3.146,6.584C428.592,350.927,430.317,360.091,435.647,364.736Z" transform="translate(-429.552 -329.101)"/><g transform="translate(5.613 2.173)"><path class="e" d="M435.2,364.981a.486.486,0,0,0,.334-.317c4.236-12.99,24.172-30.1,31.789-32.665a.483.483,0,0,0,.3-.612.468.468,0,0,0-.612-.3c-7.765,2.619-28.085,20.049-32.4,33.281a.485.485,0,0,0,.309.61A.5.5,0,0,0,435.2,364.981Z" transform="translate(-434.593 -331.053)"/></g></g></g></g><g transform="translate(147.157 2378.963)"><g transform="translate(0 0)"><g transform="translate(110.308 266.541)"><g transform="translate(0.007)"><path class="f" d="M228.232,373.475,267.619,350.7c4.06-2.344,6.09-5.416,6.091-8.488s.017-5.479.017-5.479L236.663,315.7a8.666,8.666,0,0,1-3.92-6.791V260.345l-68.8,39.754,0,48.561a8.665,8.665,0,0,0,3.92,6.791l30.961,18.025C206.946,378.163,220.111,378.163,228.232,373.475Z" transform="translate(-163.944 -260.345)"/></g><path class="g" d="M180.463,353.979v5.455l-12.609-7.266a8.674,8.674,0,0,1-3.916-6.791V296.82l13.108-7.562c.271,3.328.566,6.769.836,10.119l-9.189,5.32v37.94a8.612,8.612,0,0,0,3.916,6.79Z" transform="translate(-163.938 -257.065)"/><path class="h" d="M168.206,345.123a8.667,8.667,0,0,0,3.921,6.792l26.21,15.28c8.12,4.689,21.287,4.69,29.407,0l39.407-22.772c8.122-4.685,8.123-12.286,0-16.975l-26.227-15.292A8.668,8.668,0,0,1,237,305.368V267.424l-68.8,39.753Z" transform="translate(-163.454 -259.542)"/><path class="i" d="M248.912,316.776v-.006l-7.986-4.611A8.665,8.665,0,0,1,237,305.368V267.424l-68.8,39.753v37.947a8.667,8.667,0,0,0,3.921,6.792l7.848,4.531Z" transform="translate(-163.454 -259.542)"/><path class="f" d="M268.6,328.954v5.478c0,3.079-2.038,6.134-6.089,8.489l-39.394,22.761a29.494,29.494,0,0,1-14.035,3.486v-5.456a29.481,29.481,0,0,0,14.035-3.486l39.394-22.784C266.56,335.111,268.6,332.033,268.6,328.954Z" transform="translate(-158.817 -252.561)"/></g><path class="h" d="M69.467,425.475a10.514,10.514,0,0,0,9.5-.176L345.026,271.693a10.83,10.83,0,0,0,4.9-8.488V30.327a10.509,10.509,0,0,0-4.6-8.314,10.508,10.508,0,0,0-9.5.176L69.774,175.795a10.836,10.836,0,0,0-4.9,8.489l0,232.877A10.512,10.512,0,0,0,69.467,425.475Z" transform="translate(-64.87 -20.963)"/><path class="f" d="M78.03,424.7,344.088,271.091a10.834,10.834,0,0,0,4.9-8.489V29.724c0-3.125-2.195-4.393-4.9-2.829L78.034,180.5a10.834,10.834,0,0,0-4.9,8.489l0,232.877C73.129,424.991,75.324,426.258,78.03,424.7Z" transform="translate(-63.933 -20.366)"/><path class="c" d="M81.386,389.568l0-199.062a6.5,6.5,0,0,1,2.941-5.093L335.911,40.16c1.625-.936,2.941-.177,2.941,1.7l.009,199.067a6.5,6.5,0,0,1-2.941,5.093L84.326,391.266C82.7,392.2,81.386,391.443,81.386,389.568Z" transform="translate(-62.996 -18.831)"/><path class="j" d="M81.386,389.568l0-199.062a6.5,6.5,0,0,1,2.941-5.093L335.911,40.16c1.625-.936,2.941-.177,2.941,1.7l.009,199.067a6.5,6.5,0,0,1-2.941,5.093L84.326,391.266C82.7,392.2,81.386,391.443,81.386,389.568Z" transform="translate(-62.996 -18.831)"/><path class="c" d="M196.869,307.977a2.91,2.91,0,0,1-1.474-.383,3.752,3.752,0,0,1-1.626-3.458,10.635,10.635,0,0,1,4.877-8.448h0a3.345,3.345,0,0,1,5.434,3.137,10.63,10.63,0,0,1-4.877,8.448A4.737,4.737,0,0,1,196.869,307.977Zm4.108-11.881a3.636,3.636,0,0,0-1.774.556h0a9.564,9.564,0,0,0-4.32,7.484,2.264,2.264,0,0,0,3.764,2.171,9.558,9.558,0,0,0,4.32-7.482,2.717,2.717,0,0,0-1.069-2.5A1.825,1.825,0,0,0,200.976,296.1Z" transform="translate(-50.246 10.126)"/></g></g><g transform="translate(201.435 2419.432)"><g transform="translate(0 0)"><g transform="translate(0 14.772)"><g transform="translate(6.17 3.548)"><path class="a" d="M378.27,73.762,119.158,223.184V414.157a3.307,3.307,0,0,0,4.953,2.872l4.619-2.667,244.71-141.1a10.675,10.675,0,0,0,4.83-8.364Z" transform="translate(-119.158 -73.762)"/><path class="b" d="M377.157,75.689V264.9a9.6,9.6,0,0,1-4.273,7.4L128.174,413.4l-4.619,2.667a2.149,2.149,0,0,1-1.082.3,2.242,2.242,0,0,1-1.534-.625,2.167,2.167,0,0,1-.666-1.579V223.828L377.157,75.689m1.113-1.927L119.158,223.184V414.157a3.316,3.316,0,0,0,3.314,3.317,3.269,3.269,0,0,0,1.639-.445l4.619-2.667,244.71-141.1a10.675,10.675,0,0,0,4.83-8.364V73.762Z" transform="translate(-119.158 -73.762)"/></g><path class="k" d="M372.753,70.575,113.624,219.988l6.162,3.557L378.9,74.124Z" transform="translate(-113.616 -70.575)"/><path class="l" d="M121.523,402.21a3.336,3.336,0,0,1-1.735-2.916V208.322l-6.162-3.557-.008,189.917a5.354,5.354,0,0,0,.047.7,5.119,5.119,0,0,0,2.521,3.741l5.088,2.943.249.14Z" transform="translate(-113.617 -55.351)"/></g><g transform="translate(0.008)"><path class="c" d="M113.624,221.577V208.692a5.365,5.365,0,0,1,2.4-4.188L370.349,57.894a5.3,5.3,0,0,1,4.815-.012l1.324.765a5.327,5.327,0,0,1,2.411,4.175V75.728l-259.112,149.4Z" transform="translate(-113.624 -57.309)"/><path class="m" d="M113.624,221.577V208.692a5.365,5.365,0,0,1,2.4-4.188L370.349,57.894a5.3,5.3,0,0,1,4.815-.012l1.324.765a5.327,5.327,0,0,1,2.411,4.175V75.728l-259.112,149.4Z" transform="translate(-113.624 -57.309)"/><path class="c" d="M119.158,211.863a5.367,5.367,0,0,1,2.4-4.188L375.867,61.055c1.327-.776,2.4-.158,2.4,1.38V75.341l-259.112,149.4Z" transform="translate(-112.996 -56.922)"/><path class="n" d="M119.158,211.863a5.367,5.367,0,0,1,2.4-4.188L375.867,61.055c1.327-.776,2.4-.158,2.4,1.38V75.341l-259.112,149.4Z" transform="translate(-112.996 -56.922)"/><path class="c" d="M120.487,194.685a4.973,4.973,0,0,0-.7,2.383V209.95l-6.157-3.552V193.5a4.933,4.933,0,0,1,.7-2.372Z" transform="translate(-113.624 -42.126)"/><path class="o" d="M120.487,194.685a4.973,4.973,0,0,0-.7,2.383V209.95l-6.157-3.552V193.5a4.933,4.933,0,0,1,.7-2.372Z" transform="translate(-113.624 -42.126)"/><g transform="translate(235.876 13.609)"><path class="p" d="M341.713,73.757c0,1.442,1.012,2.026,2.261,1.306a5,5,0,0,0,2.262-3.917c0-1.442-1.012-2.026-2.262-1.306A5,5,0,0,0,341.713,73.757Z" transform="translate(-323.622 -69.531)"/><path class="p" d="M333.589,78.447c0,1.443,1.012,2.028,2.261,1.306a5,5,0,0,0,2.261-3.917c0-1.442-1.012-2.026-2.261-1.3A5,5,0,0,0,333.589,78.447Z" transform="translate(-324.543 -68.999)"/><path class="p" d="M325.465,83.138c0,1.442,1.012,2.026,2.261,1.306a5,5,0,0,0,2.261-3.917c0-1.443-1.012-2.026-2.261-1.306A5,5,0,0,0,325.465,83.138Z" transform="translate(-325.465 -68.467)"/></g></g><g transform="translate(6.17 27.247)"><path class="p" d="M119.158,211.926V402.812a3.307,3.307,0,0,0,4.953,2.872l4.619-2.667,56.625-32.65V173.752l-66.2,38.17Z" transform="translate(-119.158 -71.345)"/><path class="p" d="M182.672,187.412v185.4l182.96-105.632V81.78Z" transform="translate(-111.952 -81.78)"/><g transform="translate(7.399 121.051)"><path class="c" d="M169.448,193.892l-42.229,24.4a3.127,3.127,0,0,0-1.415,2.451v4.4c0,.9.634,1.268,1.415.817l42.229-24.4a3.13,3.13,0,0,0,1.415-2.452v-4.395C170.862,193.806,170.23,193.441,169.448,193.892Z" transform="translate(-125.803 -190.133)"/><path class="q" d="M169.448,193.892l-42.229,24.4a3.127,3.127,0,0,0-1.415,2.451v4.4c0,.9.634,1.268,1.415.817l42.229-24.4a3.13,3.13,0,0,0,1.415-2.452v-4.395C170.862,193.806,170.23,193.441,169.448,193.892Z" transform="translate(-125.803 -190.133)"/><path class="h" d="M173.98,196l-1.245-1.2a5.547,5.547,0,0,0,.4-1.989,2.351,2.351,0,0,0-.93-2.137,1.473,1.473,0,0,0-1.515.066,4.974,4.974,0,0,0-1.955,4.045,2.356,2.356,0,0,0,.93,2.137,1.327,1.327,0,0,0,.668.179,1.688,1.688,0,0,0,.847-.247,3.361,3.361,0,0,0,1.1-1.134l1.021.983a.488.488,0,0,0,.34.137.5.5,0,0,0,.354-.15A.49.49,0,0,0,173.98,196Zm-3.295.008a.527.527,0,0,1-.534.067c-.2-.117-.441-.524-.441-1.287a4.058,4.058,0,0,1,1.465-3.2.726.726,0,0,1,.354-.114.362.362,0,0,1,.181.048c.2.117.44.524.44,1.288A4.053,4.053,0,0,1,170.685,196.008Z" transform="translate(-120.933 -190.497)"/></g><g transform="translate(7.38 149.319)"><g transform="translate(0 15.973)"><g transform="translate(0)"><path class="h" d="M126.834,234.547l-.948.547c-.056.032-.1,0-.1-.076v-2.564a.243.243,0,0,1,.1-.194l.948-.547c.056-.032.1,0,.1.077v2.564A.242.242,0,0,1,126.834,234.547Z" transform="translate(-125.786 -230.062)"/><path class="h" d="M128.109,233.811l-.948.547c-.056.032-.1,0-.1-.076v-2.564a.244.244,0,0,1,.1-.194l.948-.547c.056-.032.1,0,.1.077v2.564A.243.243,0,0,1,128.109,233.811Z" transform="translate(-125.641 -230.146)"/><path class="h" d="M129.384,233.075l-.948.547c-.056.032-.1,0-.1-.076v-2.565a.242.242,0,0,1,.1-.193l.948-.547c.056-.032.1,0,.1.077v2.564A.243.243,0,0,1,129.384,233.075Z" transform="translate(-125.497 -230.229)"/><path class="h" d="M126.834,237.517l-.948.547c-.056.032-.1,0-.1-.076v-2.564a.243.243,0,0,1,.1-.194l.948-.547c.056-.032.1,0,.1.077v2.564A.242.242,0,0,1,126.834,237.517Z" transform="translate(-125.786 -229.725)"/><path class="h" d="M128.109,236.781l-.948.547c-.056.032-.1,0-.1-.077v-2.564a.243.243,0,0,1,.1-.193l.948-.547c.056-.032.1,0,.1.077v2.564A.243.243,0,0,1,128.109,236.781Z" transform="translate(-125.641 -229.809)"/><path class="h" d="M129.384,236.045l-.948.547c-.056.032-.1,0-.1-.077v-2.564a.242.242,0,0,1,.1-.193l.948-.547c.056-.032.1,0,.1.077v2.564A.243.243,0,0,1,129.384,236.045Z" transform="translate(-125.497 -229.892)"/></g><g transform="translate(0 12.901)"><g transform="translate(0 0.584)"><path class="h" d="M126.984,245.383l-1.165-.71c-.045-.027-.045-.13,0-.209l1.165-2.057c.057-.1.138-.085.138.026V245.2C127.122,245.308,127.041,245.418,126.984,245.383Z" transform="translate(-125.786 -242.34)"/></g><g transform="translate(0.471)"><path class="h" d="M126.446,243.753l1.535-.886v.73l-1.535.886c-.13.075-.237-.028-.237-.228A.63.63,0,0,1,126.446,243.753Z" transform="translate(-126.209 -241.696)"/><path class="h" d="M128.058,242.749l.524-.3v.729l-.524.3Z" transform="translate(-125.999 -241.744)"/><path class="h" d="M129.911,242.069v2.685a.621.621,0,0,1-.237.5c-.13.076-.237-.023-.237-.228v-2.319l-.649.375v-.73l.886-.511C129.8,241.765,129.911,241.868,129.911,242.069Z" transform="translate(-125.916 -241.816)"/></g></g><g transform="translate(0 22.272)"><path class="h" d="M127.437,250.5a5.08,5.08,0,0,0-1.616,4.341c.192,1.4,1.021,1.345,1.11,1.993.01.07.056.1.106.067l1.038-.589a.263.263,0,0,0,.107-.189c.109-.855,1.168-1.888,1.176-3.969C129.365,250.56,128.491,249.78,127.437,250.5Z" transform="translate(-125.786 -250.232)"/><path class="h" d="M127.942,257.328l-1,.579c-.069.039-.125,0-.125-.095v-.922a.3.3,0,0,1,.125-.238l1-.578c.069-.04.124,0,.124.094v.923A.3.3,0,0,1,127.942,257.328Z" transform="translate(-125.669 -249.571)"/></g><path class="h" d="M127.68,231.075a6.081,6.081,0,0,0-1.817,3.843,4.034,4.034,0,0,0,.265,2.1l-.336,1.751c-.028.145.051.22.135.13l1.009-1.1a1.568,1.568,0,0,0,1.469-.432,6.077,6.077,0,0,0,1.818-3.848C130.46,231.068,129.182,229.839,127.68,231.075Zm.363,5.74c-.93.537-1.685-.19-1.685-1.621a4.449,4.449,0,0,1,1.685-3.566c.929-.536,1.684.191,1.684,1.621A4.448,4.448,0,0,1,128.043,236.814Z" transform="translate(-125.786 -230.188)"/><path class="h" d="M127.68,261.423a6.081,6.081,0,0,0-1.817,3.842,4.034,4.034,0,0,0,.265,2.1l-.336,1.751c-.028.145.051.22.135.13l1.009-1.1a1.568,1.568,0,0,0,1.469-.432,6.078,6.078,0,0,0,1.818-3.848C130.46,261.416,129.182,260.187,127.68,261.423Zm.363,5.74c-.93.537-1.685-.19-1.685-1.621a4.449,4.449,0,0,1,1.685-3.566c.929-.536,1.684.191,1.684,1.621A4.449,4.449,0,0,1,128.043,267.162Z" transform="translate(-125.786 -226.745)"/><g transform="translate(0 46.11)"><path class="h" d="M128.947,272.59a2.345,2.345,0,0,1-.889,1.882c-.491.283-.89-.1-.89-.856a2.347,2.347,0,0,1,.89-1.882C128.55,271.451,128.947,271.834,128.947,272.59Z" transform="translate(-125.629 -271.64)"/><path class="h" d="M130.258,272.8a1.561,1.561,0,0,1-.591,1.253c-.327.189-.592-.066-.592-.569a1.559,1.559,0,0,1,.592-1.254C129.993,272.04,130.258,272.3,130.258,272.8Z" transform="translate(-125.413 -271.581)"/><path class="h" d="M129.124,277.674l-2.1,1.213V276.23a1.819,1.819,0,0,1,.76-1.452l.579-.335c.42-.242.759.016.759.575Z" transform="translate(-125.645 -271.333)"/><path class="h" d="M129.749,274.142l-.578.333v3.063l1.09-.629V274.53C130.261,274.152,130.032,273.979,129.749,274.142Z" transform="translate(-125.402 -271.364)"/><path class="h" d="M125.8,275.374c0,.5.265.758.592.57a1.565,1.565,0,0,0,.591-1.254c0-.5-.265-.758-.591-.57A1.563,1.563,0,0,0,125.8,275.374Z" transform="translate(-125.785 -271.366)"/><path class="h" d="M126.3,276.158l.578-.334v3.063l-1.09.629v-2.38A1.227,1.227,0,0,1,126.3,276.158Z" transform="translate(-125.786 -271.166)"/></g></g><g transform="translate(9.066)"><path class="b" d="M135.133,230.333l24.727-14.276c.666-.384,1.206-.111,1.206.609a2.585,2.585,0,0,1-1.206,2l-24.727,14.277c-.665.384-1.2.11-1.2-.61A2.586,2.586,0,0,1,135.133,230.333Z" transform="translate(-133.928 -215.884)"/><path class="b" d="M135.133,240.786l24.727-14.276c.666-.384,1.206-.111,1.206.609a2.585,2.585,0,0,1-1.206,2L135.133,243.4c-.665.385-1.2.111-1.2-.609A2.586,2.586,0,0,1,135.133,240.786Z" transform="translate(-133.928 -214.698)"/><path class="b" d="M135.133,251.239l24.727-14.277c.666-.384,1.206-.11,1.206.61a2.585,2.585,0,0,1-1.206,2L135.133,253.85c-.665.384-1.2.111-1.2-.609A2.586,2.586,0,0,1,135.133,251.239Z" transform="translate(-133.928 -213.512)"/><path class="b" d="M135.133,261.692l24.727-14.277c.666-.384,1.206-.111,1.206.61a2.585,2.585,0,0,1-1.206,2L135.133,264.3c-.665.384-1.2.111-1.2-.61A2.586,2.586,0,0,1,135.133,261.692Z" transform="translate(-133.928 -212.326)"/><path class="b" d="M135.133,272.146l24.727-14.277c.666-.384,1.206-.111,1.206.61a2.586,2.586,0,0,1-1.206,2l-24.727,14.276c-.665.384-1.2.111-1.2-.61A2.586,2.586,0,0,1,135.133,272.146Z" transform="translate(-133.928 -211.14)"/><path class="h" d="M139.2,280.68,163.922,266.4c.665-.384,1.2-.111,1.2.61a2.585,2.585,0,0,1-1.2,2L139.2,283.292c-.666.384-1.206.111-1.206-.61A2.585,2.585,0,0,1,139.2,280.68Z" transform="translate(-133.467 -210.172)"/><path class="b" d="M139.2,287.742l24.727-14.277c.665-.384,1.2-.111,1.2.61a2.584,2.584,0,0,1-1.2,2L139.2,290.353c-.666.384-1.206.111-1.206-.61A2.584,2.584,0,0,1,139.2,287.742Z" transform="translate(-133.467 -209.37)"/><path class="b" d="M139.2,294.8l24.727-14.277c.665-.384,1.2-.11,1.2.61a2.583,2.583,0,0,1-1.2,2L139.2,297.414c-.666.384-1.206.111-1.206-.609A2.585,2.585,0,0,1,139.2,294.8Z" transform="translate(-133.467 -208.569)"/><path class="b" d="M143.518,299.29l24.727-14.276c.666-.384,1.2-.111,1.2.61a2.583,2.583,0,0,1-1.2,2L143.518,301.9c-.666.385-1.206.112-1.206-.609A2.585,2.585,0,0,1,143.518,299.29Z" transform="translate(-132.977 -208.06)"/><g transform="translate(4.523 92.856)"><path class="h" d="M138.228,304.417l2.008-3.543c.077-.135.077-.313,0-.36l-2.008-1.225c-.1-.059-.238.129-.238.317v4.768C137.99,304.562,138.131,304.588,138.228,304.417Z" transform="translate(-137.99 -299.278)"/></g><path class="b" d="M143.518,306.328l24.727-14.277c.666-.384,1.2-.111,1.2.61a2.585,2.585,0,0,1-1.2,2l-24.727,14.276c-.666.384-1.206.111-1.206-.61A2.584,2.584,0,0,1,143.518,306.328Z" transform="translate(-132.977 -207.262)"/><g transform="translate(4.523 100.691)"><path class="h" d="M138.228,311.454l2.008-3.543c.077-.136.077-.313,0-.36l-2.008-1.225c-.1-.059-.238.128-.238.317v4.767C137.99,311.6,138.131,311.624,138.228,311.454Z" transform="translate(-137.99 -306.315)"/></g><path class="b" d="M143.518,313.363l24.727-14.276c.666-.384,1.2-.111,1.2.61a2.583,2.583,0,0,1-1.2,2l-24.727,14.277c-.666.384-1.206.11-1.206-.61A2.585,2.585,0,0,1,143.518,313.363Z" transform="translate(-132.977 -206.463)"/><g transform="translate(4.523 108.526)"><path class="h" d="M138.228,318.49l2.008-3.543c.077-.135.077-.313,0-.36l-2.008-1.224c-.1-.06-.238.128-.238.316v4.768C137.99,318.635,138.131,318.661,138.228,318.49Z" transform="translate(-137.99 -313.352)"/></g><path class="b" d="M143.518,320.4l24.727-14.277c.666-.384,1.2-.111,1.2.61a2.585,2.585,0,0,1-1.2,2l-24.727,14.276c-.666.384-1.206.111-1.206-.61A2.584,2.584,0,0,1,143.518,320.4Z" transform="translate(-132.977 -205.665)"/><g transform="translate(4.523 116.361)"><path class="h" d="M138.228,325.527l2.008-3.543c.077-.136.077-.314,0-.36l-2.008-1.225c-.1-.059-.238.129-.238.317v4.767C137.99,325.672,138.131,325.7,138.228,325.527Z" transform="translate(-137.99 -320.388)"/></g><path class="b" d="M143.518,327.436l24.727-14.276c.666-.384,1.2-.111,1.2.609a2.584,2.584,0,0,1-1.2,2l-24.727,14.277c-.666.384-1.206.11-1.206-.61A2.585,2.585,0,0,1,143.518,327.436Z" transform="translate(-132.977 -204.867)"/><g transform="translate(4.523 124.196)"><path class="h" d="M138.228,332.563l2.008-3.543c.077-.135.077-.313,0-.36l-2.008-1.224c-.1-.06-.238.128-.238.316v4.768C137.99,332.708,138.131,332.734,138.228,332.563Z" transform="translate(-137.99 -327.425)"/></g><path class="b" d="M143.518,334.473,168.244,320.2c.666-.384,1.2-.111,1.2.61a2.584,2.584,0,0,1-1.2,2l-24.727,14.276c-.666.384-1.206.111-1.206-.61A2.584,2.584,0,0,1,143.518,334.473Z" transform="translate(-132.977 -204.068)"/><g transform="translate(4.523 132.031)"><path class="h" d="M138.228,339.6l2.008-3.543c.077-.136.077-.313,0-.361l-2.008-1.224c-.1-.059-.238.128-.238.317v4.767C137.99,339.745,138.131,339.771,138.228,339.6Z" transform="translate(-137.99 -334.461)"/></g><path class="b" d="M143.518,341.509l24.727-14.276c.666-.384,1.2-.111,1.2.609a2.583,2.583,0,0,1-1.2,2L143.518,344.12c-.666.385-1.206.111-1.206-.609A2.585,2.585,0,0,1,143.518,341.509Z" transform="translate(-132.977 -203.27)"/><g transform="translate(4.523 139.865)"><path class="h" d="M138.228,346.636l2.008-3.543c.077-.135.077-.313,0-.36l-2.008-1.225c-.1-.059-.238.129-.238.317v4.768C137.99,346.781,138.131,346.807,138.228,346.636Z" transform="translate(-137.99 -341.497)"/></g><path class="b" d="M143.518,348.547l24.727-14.277c.666-.384,1.2-.111,1.2.61a2.585,2.585,0,0,1-1.2,2l-24.727,14.276c-.666.384-1.206.111-1.206-.61A2.584,2.584,0,0,1,143.518,348.547Z" transform="translate(-132.977 -202.472)"/><g transform="translate(4.523 147.7)"><path class="h" d="M138.228,353.673l2.008-3.543c.077-.136.077-.314,0-.36l-2.008-1.225c-.1-.059-.238.128-.238.317v4.767C137.99,353.818,138.131,353.843,138.228,353.673Z" transform="translate(-137.99 -348.534)"/></g></g></g><g transform="translate(75.243 9.545)"><g transform="translate(0 50.925)"><path class="a" d="M187.94,206.677l81.27-46.922a2.665,2.665,0,0,0,1.206-2.088V136.949c0-.768-.54-1.08-1.206-.7l-81.27,46.913a2.663,2.663,0,0,0-1.206,2.088v20.727C186.734,206.749,187.274,207.061,187.94,206.677Z" transform="translate(-186.734 -136.088)"/><g transform="translate(5.276 44.406)"><g transform="translate(2.755 6.329)"><path class="h" d="M194.208,186.673a.241.241,0,0,1,.008-.05l.534-2.226-.737.425a.037.037,0,0,1-.048,0,.084.084,0,0,1-.019-.061v-.4a.207.207,0,0,1,.019-.085.135.135,0,0,1,.048-.058l1.18-.681a.037.037,0,0,1,.048,0,.083.083,0,0,1,.02.061v.354a.991.991,0,0,1-.041.216l-.534,2.23a.657.657,0,0,1-.027.079.108.108,0,0,1-.045.053l-.347.2a.032.032,0,0,1-.041,0A.072.072,0,0,1,194.208,186.673Z" transform="translate(-193.946 -181.442)"/><path class="h" d="M196.026,183a.6.6,0,0,1,.318-.1.312.312,0,0,1,.22.1.561.561,0,0,1,.131.253,1.635,1.635,0,0,1,.05.364c0,.109.006.22.006.34s0,.233-.006.339a2.523,2.523,0,0,1-.05.423,1.846,1.846,0,0,1-.131.4,1.536,1.536,0,0,1-.22.352,1.171,1.171,0,0,1-.318.267.61.61,0,0,1-.32.1.323.323,0,0,1-.222-.1.57.57,0,0,1-.13-.254,1.762,1.762,0,0,1-.051-.364c0-.1-.006-.213-.006-.332s0-.234.006-.345a2.779,2.779,0,0,1,.051-.423,1.909,1.909,0,0,1,.13-.4,1.623,1.623,0,0,1,.222-.353A1.178,1.178,0,0,1,196.026,183Zm.264,1.535c.007-.218.007-.432,0-.638a1.545,1.545,0,0,0-.018-.165.3.3,0,0,0-.045-.114.105.105,0,0,0-.079-.048.2.2,0,0,0-.122.038.425.425,0,0,0-.125.1.555.555,0,0,0-.079.139,1.016,1.016,0,0,0-.045.165,1.229,1.229,0,0,0-.016.185q-.013.322,0,.638a.9.9,0,0,0,.014.166.268.268,0,0,0,.045.114.115.115,0,0,0,.08.048.218.218,0,0,0,.125-.038.42.42,0,0,0,.122-.106.523.523,0,0,0,.08-.139.666.666,0,0,0,.045-.165A1.363,1.363,0,0,0,196.29,184.532Z" transform="translate(-193.793 -181.513)"/><path class="h" d="M197.567,182.708c0,.1,0,.2,0,.29a1.381,1.381,0,0,1-.028.227,1.033,1.033,0,0,1-.072.214.846.846,0,0,1-.119.185.687.687,0,0,1-.169.139.347.347,0,0,1-.167.055.163.163,0,0,1-.119-.048.3.3,0,0,1-.071-.13.789.789,0,0,1-.03-.194c0-.048,0-.095,0-.139s0-.095,0-.149a1.286,1.286,0,0,1,.03-.228,1.062,1.062,0,0,1,.071-.213.783.783,0,0,1,.119-.185.625.625,0,0,1,.167-.138.345.345,0,0,1,.169-.056.162.162,0,0,1,.117.048.308.308,0,0,1,.073.129A.858.858,0,0,1,197.567,182.708Zm.618-.8a.333.333,0,0,1,.036-.075.151.151,0,0,1,.052-.05l.2-.117c.019-.01.033-.011.043,0a.053.053,0,0,1,.017.046l0,.021a.145.145,0,0,1-.007.028l-1.22,3.177a.421.421,0,0,1-.037.075.14.14,0,0,1-.052.049l-.2.117c-.019.011-.032.012-.043,0a.053.053,0,0,1-.017-.046l0-.02a.1.1,0,0,1,.008-.028Zm-1.107,1.357a.3.3,0,0,0,.026.132c.014.026.039.028.075.007a.159.159,0,0,0,.076-.094.671.671,0,0,0,.027-.163,2.4,2.4,0,0,0,0-.252.371.371,0,0,0-.027-.134c-.014-.024-.038-.027-.076-.006a.171.171,0,0,0-.075.092.564.564,0,0,0-.026.164A1.9,1.9,0,0,0,197.078,183.262Zm1.636.117c0,.1,0,.195,0,.29a1.387,1.387,0,0,1-.029.227.96.96,0,0,1-.072.213.783.783,0,0,1-.119.185.643.643,0,0,1-.167.138.352.352,0,0,1-.169.057.16.16,0,0,1-.118-.049.3.3,0,0,1-.072-.129.858.858,0,0,1-.029-.194c0-.049-.006-.1-.006-.139s0-.095.006-.15a1.378,1.378,0,0,1,.029-.227,1.052,1.052,0,0,1,.072-.214.741.741,0,0,1,.118-.184.621.621,0,0,1,.169-.139.332.332,0,0,1,.167-.055.154.154,0,0,1,.118.047.3.3,0,0,1,.072.13A.848.848,0,0,1,198.713,183.379Zm-.49.552a.325.325,0,0,0,.027.134c.013.026.038.027.076.006a.167.167,0,0,0,.075-.092.644.644,0,0,0,.026-.164,2.37,2.37,0,0,0,0-.252.341.341,0,0,0-.026-.133c-.014-.024-.039-.028-.075-.007a.162.162,0,0,0-.076.094.6.6,0,0,0-.027.163A2.37,2.37,0,0,0,198.223,183.931Z" transform="translate(-193.624 -181.654)"/></g><path class="h" d="M194.45,180.746l-.816-1.257a16.387,16.387,0,0,0-1.928,5.2l1.319-.1A12.077,12.077,0,0,1,194.45,180.746Z" transform="translate(-191.446 -175.57)"/><path class="h" d="M196.556,178.6V176.47a9.248,9.248,0,0,0-3.119,3.362l.816,1.257A6.847,6.847,0,0,1,196.556,178.6Z" transform="translate(-191.249 -175.913)"/><path class="h" d="M192.857,186.04a10.679,10.679,0,0,1,.194-1.976l-1.319.1a14.589,14.589,0,0,0-.259,2.673,10.237,10.237,0,0,0,.259,2.375l1.319-1.421A7.484,7.484,0,0,1,192.857,186.04Z" transform="translate(-191.472 -175.051)"/><path class="c" d="M201.8,179.257a4.383,4.383,0,0,0-1.929-2.97,3.093,3.093,0,0,0-3.119.239v2.132a2.279,2.279,0,0,1,2.3-.171,3.231,3.231,0,0,1,1.426,2.19,7.547,7.547,0,0,1,.193,1.754,10.772,10.772,0,0,1-.193,1.976,12.1,12.1,0,0,1-1.426,3.837,6.838,6.838,0,0,1-2.3,2.486,2.277,2.277,0,0,1-2.3.171,3.224,3.224,0,0,1-1.425-2.19l-1.319,1.421a4.383,4.383,0,0,0,1.928,2.971,3.093,3.093,0,0,0,3.118-.239,9.257,9.257,0,0,0,3.119-3.362,16.4,16.4,0,0,0,1.929-5.2,14.605,14.605,0,0,0,.259-2.675A10.247,10.247,0,0,0,201.8,179.257Z" transform="translate(-191.446 -175.97)"/></g><path class="h" d="M208.25,175.15l24.727-14.277c.666-.384,1.206-.11,1.206.61a2.585,2.585,0,0,1-1.206,2L208.25,177.762c-.666.384-1.206.111-1.206-.609A2.585,2.585,0,0,1,208.25,175.15Z" transform="translate(-184.43 -133.296)"/><path class="b" d="M208.25,180.941l42.818-24.714c.666-.384,1.206-.11,1.206.61a2.585,2.585,0,0,1-1.206,2L208.25,183.553c-.666.384-1.206.111-1.206-.61A2.585,2.585,0,0,1,208.25,180.941Z" transform="translate(-184.43 -133.823)"/></g><g transform="translate(88.188)"><path class="a" d="M267.142,160.941l81.271-46.922a2.667,2.667,0,0,0,1.2-2.088V91.213c0-.768-.54-1.08-1.2-.7L267.142,137.43a2.663,2.663,0,0,0-1.206,2.088v20.727C265.936,161.013,266.476,161.325,267.142,160.941Z" transform="translate(-265.936 -90.352)"/><g transform="translate(6.009 43.976)"><g transform="translate(2.682 6.288)"><path class="h" d="M273.742,139.059a1.493,1.493,0,0,1,.061-.432,1.728,1.728,0,0,1,.161-.392,1.614,1.614,0,0,1,.233-.321,1.169,1.169,0,0,1,.268-.22.633.633,0,0,1,.269-.09.349.349,0,0,1,.232.052.428.428,0,0,1,.163.2.933.933,0,0,1,.061.362,1.316,1.316,0,0,1-.017.213c-.011.069-.026.135-.042.2s-.036.128-.058.19-.042.121-.065.179l-.468,1.272a.507.507,0,0,0-.028.063.119.119,0,0,1-.05.057l-.393.227a.026.026,0,0,1-.036,0,.083.083,0,0,1-.013-.051.09.09,0,0,1,0-.032.1.1,0,0,1,.008-.023l.317-.868a.528.528,0,0,1-.232.033.349.349,0,0,1-.195-.082.477.477,0,0,1-.132-.2A.939.939,0,0,1,273.742,139.059Zm.99-.572a.32.32,0,0,0-.021-.126.138.138,0,0,0-.145-.091.227.227,0,0,0-.1.033.441.441,0,0,0-.1.082.648.648,0,0,0-.085.118.609.609,0,0,0-.059.14.51.51,0,0,0-.023.151.3.3,0,0,0,.023.126.15.15,0,0,0,.059.072.128.128,0,0,0,.085.019.225.225,0,0,0,.1-.032.4.4,0,0,0,.1-.082.65.65,0,0,0,.145-.258A.554.554,0,0,0,274.732,138.486Z" transform="translate(-273.742 -135.256)"/><path class="h" d="M275.952,136.836a.6.6,0,0,1,.318-.1.309.309,0,0,1,.22.1.561.561,0,0,1,.131.253,1.774,1.774,0,0,1,.05.364c0,.108.006.22.006.34s0,.232-.006.338a2.741,2.741,0,0,1-.05.422,1.837,1.837,0,0,1-.131.405,1.572,1.572,0,0,1-.22.352,1.191,1.191,0,0,1-.318.267.61.61,0,0,1-.321.1.321.321,0,0,1-.22-.1.576.576,0,0,1-.131-.254,1.762,1.762,0,0,1-.05-.364c0-.1-.006-.213-.006-.332s0-.234.006-.345a2.771,2.771,0,0,1,.05-.423,1.867,1.867,0,0,1,.131-.4,1.62,1.62,0,0,1,.22-.353A1.225,1.225,0,0,1,275.952,136.836Zm.263,1.537c.008-.218.008-.432,0-.638a1.135,1.135,0,0,0-.018-.165.283.283,0,0,0-.043-.114.105.105,0,0,0-.079-.048.209.209,0,0,0-.122.037.428.428,0,0,0-.125.106.523.523,0,0,0-.079.139.893.893,0,0,0-.045.165,1.377,1.377,0,0,0-.017.185q-.014.322,0,.638a1,1,0,0,0,.016.166.256.256,0,0,0,.044.114.113.113,0,0,0,.08.048.221.221,0,0,0,.125-.039.4.4,0,0,0,.122-.1.522.522,0,0,0,.08-.139.719.719,0,0,0,.045-.165A1.245,1.245,0,0,0,276.215,138.373Z" transform="translate(-273.574 -135.354)"/><path class="h" d="M277.493,136.549c0,.1,0,.195,0,.289a1.262,1.262,0,0,1-.029.227.994.994,0,0,1-.071.213.831.831,0,0,1-.12.186.636.636,0,0,1-.168.138.342.342,0,0,1-.167.056.163.163,0,0,1-.119-.048.3.3,0,0,1-.071-.13.783.783,0,0,1-.031-.194c0-.048,0-.095,0-.139s0-.095,0-.149a1.306,1.306,0,0,1,.031-.229,1.008,1.008,0,0,1,.071-.212.782.782,0,0,1,.119-.185.608.608,0,0,1,.167-.138.345.345,0,0,1,.168-.056.16.16,0,0,1,.118.048.289.289,0,0,1,.072.129A.8.8,0,0,1,277.493,136.549Zm.617-.8a.383.383,0,0,1,.037-.075.141.141,0,0,1,.052-.05l.2-.117a.04.04,0,0,1,.043,0,.053.053,0,0,1,.017.046l0,.021a.1.1,0,0,1-.008.028l-1.22,3.177a.354.354,0,0,1-.036.075.151.151,0,0,1-.053.049l-.2.117c-.019.01-.033.012-.043,0a.054.054,0,0,1-.017-.047l0-.02a.1.1,0,0,1,.008-.027ZM277,137.1a.318.318,0,0,0,.027.133c.013.026.039.028.075.007a.158.158,0,0,0,.075-.094.626.626,0,0,0,.028-.163,2.4,2.4,0,0,0,0-.252.345.345,0,0,0-.028-.134c-.013-.025-.038-.027-.075-.006a.163.163,0,0,0-.075.092.6.6,0,0,0-.027.164A1.881,1.881,0,0,0,277,137.1Zm1.637.117c0,.1,0,.195,0,.29a1.68,1.68,0,0,1-.029.227,1.018,1.018,0,0,1-.072.213.82.82,0,0,1-.119.185.632.632,0,0,1-.168.138.331.331,0,0,1-.168.056.159.159,0,0,1-.119-.048.306.306,0,0,1-.071-.129.8.8,0,0,1-.029-.194c0-.049-.006-.1-.006-.139s0-.095.006-.15a1.274,1.274,0,0,1,.029-.228,1.065,1.065,0,0,1,.071-.213.776.776,0,0,1,.119-.184.634.634,0,0,1,.168-.139.328.328,0,0,1,.168-.055.155.155,0,0,1,.118.047.311.311,0,0,1,.072.13A.906.906,0,0,1,278.64,137.22Zm-.49.552a.307.307,0,0,0,.027.134c.013.024.038.027.075.006a.168.168,0,0,0,.076-.092.6.6,0,0,0,.025-.164,1.9,1.9,0,0,0,0-.252.325.325,0,0,0-.025-.133c-.014-.024-.039-.028-.076-.007a.164.164,0,0,0-.075.094.547.547,0,0,0-.027.163A2.37,2.37,0,0,0,278.15,137.772Z" transform="translate(-273.405 -135.495)"/></g><path class="h" d="M276.417,132.48v-2.132a9.249,9.249,0,0,0-3.119,3.362l.816,1.258A6.842,6.842,0,0,1,276.417,132.48Z" transform="translate(-271.11 -129.791)"/><path class="c" d="M281.686,133.136a4.383,4.383,0,0,0-1.928-2.971,3.091,3.091,0,0,0-3.118.239v2.132a2.282,2.282,0,0,1,2.3-.171,3.233,3.233,0,0,1,1.426,2.191,7.543,7.543,0,0,1,.193,1.754,10.773,10.773,0,0,1-.193,1.975,12.076,12.076,0,0,1-1.424,3.833,6.88,6.88,0,0,1-2.3,2.492,2.284,2.284,0,0,1-2.3.171,3.229,3.229,0,0,1-1.425-2.191,7.477,7.477,0,0,1-.194-1.754,10.666,10.666,0,0,1,.194-1.975,12.076,12.076,0,0,1,1.425-3.837l-.816-1.258a16.388,16.388,0,0,0-1.928,5.2,14.592,14.592,0,0,0-.259,2.675,10.252,10.252,0,0,0,.259,2.375,4.383,4.383,0,0,0,1.928,2.97,3.093,3.093,0,0,0,3.119-.239,9.256,9.256,0,0,0,3.118-3.362v0a16.387,16.387,0,0,0,1.928-5.2,14.588,14.588,0,0,0,.26-2.675A10.231,10.231,0,0,0,281.686,133.136Z" transform="translate(-271.333 -129.848)"/></g><path class="h" d="M288.092,129.028l24.727-14.276c.666-.384,1.206-.111,1.206.61a2.585,2.585,0,0,1-1.206,2L288.092,131.64c-.666.384-1.2.111-1.2-.61A2.583,2.583,0,0,1,288.092,129.028Z" transform="translate(-263.559 -87.604)"/><path class="b" d="M288.092,134.819l42.819-24.713c.665-.384,1.2-.111,1.2.61a2.586,2.586,0,0,1-1.2,2l-42.819,24.714c-.666.384-1.2.111-1.2-.61A2.587,2.587,0,0,1,288.092,134.819Z" transform="translate(-263.559 -88.131)"/></g></g><g transform="translate(75.243 48.714)"><path class="h" d="M195.376,205.627l17.343-10.043c.666-.384,1.2-.111,1.2.61a2.585,2.585,0,0,1-1.2,2l-17.344,10.043c-.666.384-1.2.111-1.2-.61A2.585,2.585,0,0,1,195.376,205.627Z" transform="translate(-185.89 -117.602)"/><path class="b" d="M358,126.637h0m-.51.3V259.4a1.584,1.584,0,0,1-.648,1.123L187.849,358.084V225.621a1.577,1.577,0,0,1,.649-1.123l2.112-1.22a3.785,3.785,0,0,0,1.761-3.052v-7.662a1.582,1.582,0,0,1,.649-1.123l24.261-14v7.121a1.82,1.82,0,0,0,1.782,1.974,2.182,2.182,0,0,0,1.095-.314l137.335-79.286m-139.7,70.21h0M357.938,125.53a1.1,1.1,0,0,0-.539.165L219.6,205.253a1.1,1.1,0,0,1-.538.165c-.4,0-.668-.315-.668-.861V196.9c0-.545-.271-.861-.667-.861a1.1,1.1,0,0,0-.538.165l-24.727,14.276a2.666,2.666,0,0,0-1.206,2.088v7.662a2.662,2.662,0,0,1-1.2,2.088l-2.112,1.22a2.663,2.663,0,0,0-1.206,2.088v133c0,.546.272.861.667.861a1.08,1.08,0,0,0,.538-.165L357.4,261.483a2.664,2.664,0,0,0,1.2-2.088v-133c0-.544-.272-.861-.667-.861Z" transform="translate(-186.734 -125.53)"/><g transform="translate(9.675 88.849)"><path class="b" d="M196.646,222.35a1.166,1.166,0,0,1-.591-.155,1.392,1.392,0,0,1-.631-1.263v-5.05a3.237,3.237,0,0,1,1.484-2.57l13.438-7.748a1.281,1.281,0,0,1,2.041,1.178v5.051a3.229,3.229,0,0,1-1.484,2.569l-13.438,7.75A1.656,1.656,0,0,1,196.646,222.35Zm.818-8.073a2.118,2.118,0,0,0-.928,1.606v5.05c0,.192.052.285.076.3s.13.011.3-.083l13.438-7.75a2.113,2.113,0,0,0,.928-1.6v-5.051c0-.19-.051-.284-.075-.3s-.13-.011-.3.084Z" transform="translate(-195.423 -205.325)"/><path class="b" d="M198.055,215.763l8.758-5.083c.443-.256.8-.073.8.406a1.722,1.722,0,0,1-.8,1.334l-8.76,5.083c-.443.256-.8.075-.8-.406A1.721,1.721,0,0,1,198.055,215.763Z" transform="translate(-195.216 -204.731)"/><g transform="translate(13.62 4.067)"><path class="h" d="M207.669,210.028l.726,1.03c.028.04.082.008.11-.063l.726-1.868c.035-.09,0-.174-.055-.14l-1.452.838A.176.176,0,0,0,207.669,210.028Z" transform="translate(-207.655 -208.978)"/></g></g><g transform="translate(7.884 60.64)"><g transform="translate(0 94.006)"><path class="c" d="M194.977,264.577c.641-.371,1.162-.07,1.162.671a2.572,2.572,0,0,1-1.162,2.013c-.642.371-1.162.07-1.162-.671A2.567,2.567,0,0,1,194.977,264.577Z" transform="translate(-193.815 -264.418)"/></g><g transform="translate(9.046 83.561)"><path class="c" d="M203.1,255.2c.641-.371,1.162-.07,1.162.671a2.57,2.57,0,0,1-1.162,2.013c-.642.371-1.162.07-1.162-.671A2.569,2.569,0,0,1,203.1,255.2Z" transform="translate(-201.939 -255.037)"/></g><g transform="translate(18.091 78.339)"><path class="c" d="M211.225,250.506c.641-.371,1.161-.07,1.161.67a2.568,2.568,0,0,1-1.161,2.013c-.642.371-1.162.07-1.162-.67A2.568,2.568,0,0,1,211.225,250.506Z" transform="translate(-210.063 -250.347)"/></g><g transform="translate(27.137 75.409)"><path class="c" d="M219.349,247.875c.641-.371,1.162-.07,1.162.671a2.571,2.571,0,0,1-1.162,2.013c-.642.371-1.162.07-1.162-.671A2.569,2.569,0,0,1,219.349,247.875Z" transform="translate(-218.187 -247.716)"/></g><g transform="translate(36.193 66.005)"><path class="c" d="M227.482,239.429c.642-.371,1.162-.07,1.162.67a2.566,2.566,0,0,1-1.162,2.013c-.641.371-1.162.07-1.162-.67A2.57,2.57,0,0,1,227.482,239.429Z" transform="translate(-226.32 -239.27)"/></g><g transform="translate(45.229 62.671)"><path class="c" d="M235.6,236.434c.642-.37,1.162-.07,1.162.671a2.568,2.568,0,0,1-1.162,2.013c-.641.371-1.162.07-1.162-.671A2.572,2.572,0,0,1,235.6,236.434Z" transform="translate(-234.435 -236.276)"/></g><g transform="translate(54.273 52.225)"><path class="c" d="M243.72,227.053c.641-.371,1.162-.07,1.162.671a2.569,2.569,0,0,1-1.162,2.013c-.643.37-1.162.07-1.162-.671A2.567,2.567,0,0,1,243.72,227.053Z" transform="translate(-242.558 -226.894)"/></g><g transform="translate(63.32 49.614)"><path class="c" d="M251.845,224.708c.642-.37,1.162-.07,1.162.671a2.568,2.568,0,0,1-1.162,2.013c-.641.371-1.162.07-1.162-.671A2.572,2.572,0,0,1,251.845,224.708Z" transform="translate(-250.683 -224.55)"/></g><g transform="translate(72.366 20.89)"><path class="c" d="M259.969,198.911c.642-.371,1.162-.07,1.162.671a2.569,2.569,0,0,1-1.162,2.013c-.641.37-1.162.07-1.162-.671A2.57,2.57,0,0,1,259.969,198.911Z" transform="translate(-258.807 -198.752)"/></g><g transform="translate(81.413 36.558)"><path class="c" d="M268.093,212.982c.642-.371,1.162-.07,1.162.671a2.567,2.567,0,0,1-1.162,2.013c-.641.371-1.161.07-1.161-.671A2.569,2.569,0,0,1,268.093,212.982Z" transform="translate(-266.932 -212.823)"/></g><g transform="translate(90.458 36.558)"><path class="c" d="M276.217,212.982c.642-.371,1.162-.07,1.162.671a2.567,2.567,0,0,1-1.162,2.013c-.641.371-1.161.07-1.161-.671A2.569,2.569,0,0,1,276.217,212.982Z" transform="translate(-275.056 -212.823)"/></g><g transform="translate(99.504 36.558)"><path class="c" d="M284.341,212.982c.642-.37,1.162-.07,1.162.671a2.567,2.567,0,0,1-1.162,2.013c-.641.371-1.161.07-1.161-.671A2.571,2.571,0,0,1,284.341,212.982Z" transform="translate(-283.18 -212.824)"/></g><g transform="translate(108.549 20.89)"><path class="c" d="M292.465,198.911c.642-.371,1.162-.07,1.162.671a2.569,2.569,0,0,1-1.162,2.013c-.641.371-1.162.07-1.162-.671A2.57,2.57,0,0,1,292.465,198.911Z" transform="translate(-291.303 -198.752)"/></g><g transform="translate(117.594 17.889)"><path class="c" d="M300.59,196.215c.642-.37,1.162-.07,1.162.671a2.568,2.568,0,0,1-1.162,2.013c-.641.371-1.163.07-1.163-.671A2.572,2.572,0,0,1,300.59,196.215Z" transform="translate(-299.427 -196.057)"/></g><g transform="translate(126.672 5.223)"><path class="c" d="M308.742,184.84c.641-.371,1.163-.07,1.163.67a2.571,2.571,0,0,1-1.163,2.013c-.642.371-1.162.07-1.162-.67A2.566,2.566,0,0,1,308.742,184.84Z" transform="translate(-307.58 -184.681)"/></g><g transform="translate(135.205 4.825)"><ellipse class="c" cx="1.644" cy="0.949" rx="1.644" ry="0.949" transform="translate(0 2.847) rotate(-60.003)"/></g><g transform="translate(144.251 4.825)"><ellipse class="c" cx="1.644" cy="0.949" rx="1.644" ry="0.949" transform="translate(0 2.847) rotate(-60.003)"/></g><g transform="translate(153.778)"><path class="c" d="M333.086,180.149c.641-.37,1.162-.07,1.162.671a2.57,2.57,0,0,1-1.162,2.013c-.642.371-1.162.07-1.162-.671A2.569,2.569,0,0,1,333.086,180.149Z" transform="translate(-331.924 -179.991)"/></g><g transform="translate(0.86 1.221)"><path class="c" d="M194.865,275.666a.279.279,0,0,1-.209-.462l9.134-10.5a.262.262,0,0,1,.071-.059l8.98-5.184,9.032-2.932,9-9.355a.293.293,0,0,1,.1-.068l8.98-3.308,9-10.393a.279.279,0,0,1,.134-.085l8.9-2.57,9-28.58a.277.277,0,0,1,.235-.194.286.286,0,0,1,.272.138l8.964,15.528,8.908-.013,8.863.013,8.964-15.529a.287.287,0,0,1,.154-.125l8.96-2.973,8.993-12.593a.278.278,0,0,1,.226-.116h18.017l8.982-5.185a.278.278,0,1,1,.278.482l-9.047,5.223a.277.277,0,0,1-.139.037H321.673l-8.963,12.55a.277.277,0,0,1-.138.1l-8.945,2.968-8.992,15.576a.281.281,0,0,1-.242.139h0l-9.023-.013-9.069.013h0a.281.281,0,0,1-.242-.139l-8.727-15.12-8.856,28.12a.281.281,0,0,1-.187.184l-8.966,2.588-8.993,10.384a.3.3,0,0,1-.115.079l-8.986,3.311-9,9.359a.28.28,0,0,1-.116.071l-9.046,2.93-8.886,5.137-9.1,10.462A.282.282,0,0,1,194.865,275.666Z" transform="translate(-194.587 -181.088)"/></g></g><g transform="translate(7.884 55.417)"><path class="b" d="M194.916,280.117a.557.557,0,0,1-.279-1.039l153.779-88.784a.557.557,0,0,1,.557.964L195.193,280.043A.555.555,0,0,1,194.916,280.117Z" transform="translate(-193.753 -173.608)"/><g transform="translate(0 94.007)"><path class="c" d="M194.977,259.887c.641-.371,1.162-.071,1.162.67a2.57,2.57,0,0,1-1.162,2.013c-.642.371-1.162.07-1.162-.67A2.566,2.566,0,0,1,194.977,259.887Z" transform="translate(-193.815 -259.728)"/></g><g transform="translate(9.046 78.338)"><path class="c" d="M203.1,245.815c.642-.371,1.162-.07,1.162.671A2.569,2.569,0,0,1,203.1,248.5c-.642.371-1.162.07-1.162-.671A2.569,2.569,0,0,1,203.1,245.815Z" transform="translate(-201.939 -245.656)"/></g><g transform="translate(17.61 75.986)"><ellipse class="c" cx="1.644" cy="0.949" rx="1.644" ry="0.949" transform="translate(0 2.847) rotate(-60.003)"/></g><g transform="translate(27.137 57.448)"><path class="c" d="M219.348,227.053c.642-.371,1.162-.07,1.162.671a2.571,2.571,0,0,1-1.161,2.013c-.642.37-1.162.07-1.162-.671A2.569,2.569,0,0,1,219.348,227.053Z" transform="translate(-218.187 -226.894)"/></g><g transform="translate(36.193 62.671)"><path class="c" d="M227.482,231.744c.642-.371,1.162-.07,1.162.671a2.568,2.568,0,0,1-1.162,2.013c-.641.371-1.162.07-1.162-.671A2.57,2.57,0,0,1,227.482,231.744Z" transform="translate(-226.32 -231.585)"/></g><g transform="translate(45.231 60.06)"><path class="c" d="M235.6,229.4c.643-.371,1.162-.07,1.162.671a2.569,2.569,0,0,1-1.162,2.013c-.641.37-1.161.07-1.161-.671A2.569,2.569,0,0,1,235.6,229.4Z" transform="translate(-234.437 -229.24)"/></g><g transform="translate(54.273 52.226)"><path class="c" d="M243.72,222.363c.641-.371,1.162-.07,1.162.671a2.569,2.569,0,0,1-1.162,2.013c-.643.371-1.162.07-1.162-.671A2.567,2.567,0,0,1,243.72,222.363Z" transform="translate(-242.558 -222.204)"/></g><g transform="translate(63.32 41.78)"><path class="c" d="M251.845,212.982c.641-.371,1.162-.07,1.162.671a2.57,2.57,0,0,1-1.162,2.013c-.642.371-1.162.07-1.162-.671A2.567,2.567,0,0,1,251.845,212.982Z" transform="translate(-250.683 -212.823)"/></g><g transform="translate(72.366 39.169)"><path class="c" d="M259.969,210.637c.642-.371,1.162-.07,1.162.671a2.567,2.567,0,0,1-1.162,2.013c-.641.371-1.162.07-1.162-.671A2.57,2.57,0,0,1,259.969,210.637Z" transform="translate(-258.807 -210.478)"/></g><g transform="translate(81.411 31.335)"><path class="c" d="M268.093,203.6c.641-.37,1.162-.07,1.162.671a2.571,2.571,0,0,1-1.162,2.013c-.642.371-1.162.07-1.162-.671A2.569,2.569,0,0,1,268.093,203.6Z" transform="translate(-266.931 -203.443)"/></g><g transform="translate(90.457 31.336)"><path class="c" d="M276.217,203.6c.641-.371,1.163-.07,1.163.67a2.571,2.571,0,0,1-1.163,2.013c-.642.371-1.162.07-1.162-.67A2.566,2.566,0,0,1,276.217,203.6Z" transform="translate(-275.055 -203.443)"/></g><g transform="translate(99.504 10.445)"><path class="c" d="M284.341,184.84c.642-.371,1.162-.07,1.162.67a2.566,2.566,0,0,1-1.162,2.013c-.641.371-1.161.07-1.161-.67A2.569,2.569,0,0,1,284.341,184.84Z" transform="translate(-283.18 -184.681)"/></g><g transform="translate(108.55 20.816)"><path class="c" d="M292.465,194.154c.642-.371,1.162-.07,1.162.671a2.569,2.569,0,0,1-1.162,2.013c-.641.37-1.161.07-1.161-.671A2.569,2.569,0,0,1,292.465,194.154Z" transform="translate(-291.304 -193.995)"/></g><g transform="translate(117.594 10.445)"><path class="c" d="M300.59,184.84c.642-.371,1.162-.07,1.162.67a2.57,2.57,0,0,1-1.162,2.014c-.641.37-1.163.069-1.163-.671A2.57,2.57,0,0,1,300.59,184.84Z" transform="translate(-299.427 -184.681)"/></g><g transform="translate(126.64 5.223)"><path class="c" d="M308.713,180.149c.642-.37,1.162-.07,1.162.671a2.567,2.567,0,0,1-1.162,2.013c-.641.371-1.163.07-1.163-.671A2.572,2.572,0,0,1,308.713,180.149Z" transform="translate(-307.551 -179.991)"/></g><g transform="translate(135.686 5.222)"><path class="c" d="M316.837,180.149c.642-.371,1.163-.07,1.163.671a2.569,2.569,0,0,1-1.163,2.013c-.641.371-1.162.07-1.162-.671A2.57,2.57,0,0,1,316.837,180.149Z" transform="translate(-315.675 -179.99)"/></g><g transform="translate(144.733)"><path class="c" d="M324.962,175.459c.641-.371,1.162-.07,1.162.67a2.569,2.569,0,0,1-1.162,2.013c-.642.371-1.163.07-1.163-.67A2.568,2.568,0,0,1,324.962,175.459Z" transform="translate(-323.8 -175.3)"/></g><g transform="translate(153.778)"><path class="c" d="M333.086,175.459c.641-.371,1.162-.07,1.162.67a2.569,2.569,0,0,1-1.162,2.013c-.642.371-1.162.07-1.162-.67A2.567,2.567,0,0,1,333.086,175.459Z" transform="translate(-331.924 -175.3)"/></g><g transform="translate(0.884 1.222)"><path class="c" d="M194.887,270.962a.262.262,0,0,1-.139-.038.277.277,0,0,1-.1-.38l9.11-15.705a.272.272,0,0,1,.183-.132l8.846-1.89L221.773,234a.278.278,0,0,1,.39-.121l8.954,5.17,8.863-2.568,8.987-7.786L258,218.275a.272.272,0,0,1,.133-.086l8.988-2.594,9-7.793a.277.277,0,0,1,.183-.068h8.863l8.973-20.722a.277.277,0,0,1,.213-.165.283.283,0,0,1,.254.092l8.834,10.2,8.835-10.2a.253.253,0,0,1,.071-.058l9.078-5.241a.278.278,0,0,1,.139-.038h8.97l8.95-5.166a.278.278,0,0,1,.139-.038h9.047a.278.278,0,1,1,0,.557h-8.971l-8.95,5.166a.278.278,0,0,1-.139.038h-8.971l-8.973,5.18-9.013,10.41a.288.288,0,0,1-.422,0l-8.755-10.11-8.87,20.484a.279.279,0,0,1-.256.168H276.4l-8.967,7.765a.284.284,0,0,1-.1.058l-8.968,2.588-9,10.39-9.061,7.855a.264.264,0,0,1-.106.057l-9.036,2.618a.282.282,0,0,1-.216-.027l-8.8-5.078-8.915,18.665a.282.282,0,0,1-.194.151l-8.861,1.893-9.048,15.6A.277.277,0,0,1,194.887,270.962Z" transform="translate(-194.609 -176.398)"/></g><g class="r"><g transform="translate(0 94.007)"><path d="M194.977,259.887c.641-.371,1.162-.071,1.162.67a2.57,2.57,0,0,1-1.162,2.013c-.642.371-1.162.07-1.162-.67A2.566,2.566,0,0,1,194.977,259.887Z" transform="translate(-193.815 -259.728)"/></g><g transform="translate(9.046 78.338)"><path d="M203.1,245.815c.642-.371,1.162-.07,1.162.671A2.569,2.569,0,0,1,203.1,248.5c-.642.371-1.162.07-1.162-.671A2.569,2.569,0,0,1,203.1,245.815Z" transform="translate(-201.939 -245.656)"/></g><g transform="translate(17.61 75.986)"><ellipse cx="1.644" cy="0.949" rx="1.644" ry="0.949" transform="translate(0 2.847) rotate(-60.003)"/></g><g transform="translate(27.137 57.448)"><path d="M219.348,227.053c.642-.371,1.162-.07,1.162.671a2.571,2.571,0,0,1-1.161,2.013c-.642.37-1.162.07-1.162-.671A2.569,2.569,0,0,1,219.348,227.053Z" transform="translate(-218.187 -226.894)"/></g><g transform="translate(36.193 62.671)"><path d="M227.482,231.744c.642-.371,1.162-.07,1.162.671a2.568,2.568,0,0,1-1.162,2.013c-.641.371-1.162.07-1.162-.671A2.57,2.57,0,0,1,227.482,231.744Z" transform="translate(-226.32 -231.585)"/></g><g transform="translate(45.231 60.06)"><path d="M235.6,229.4c.643-.371,1.162-.07,1.162.671a2.569,2.569,0,0,1-1.162,2.013c-.641.37-1.161.07-1.161-.671A2.569,2.569,0,0,1,235.6,229.4Z" transform="translate(-234.437 -229.24)"/></g><g transform="translate(54.273 52.226)"><path d="M243.72,222.363c.641-.371,1.162-.07,1.162.671a2.569,2.569,0,0,1-1.162,2.013c-.643.371-1.162.07-1.162-.671A2.567,2.567,0,0,1,243.72,222.363Z" transform="translate(-242.558 -222.204)"/></g><g transform="translate(63.32 41.78)"><path d="M251.845,212.982c.641-.371,1.162-.07,1.162.671a2.57,2.57,0,0,1-1.162,2.013c-.642.371-1.162.07-1.162-.671A2.567,2.567,0,0,1,251.845,212.982Z" transform="translate(-250.683 -212.823)"/></g><g transform="translate(72.366 39.169)"><path d="M259.969,210.637c.642-.371,1.162-.07,1.162.671a2.567,2.567,0,0,1-1.162,2.013c-.641.371-1.162.07-1.162-.671A2.57,2.57,0,0,1,259.969,210.637Z" transform="translate(-258.807 -210.478)"/></g><g transform="translate(81.411 31.335)"><path d="M268.093,203.6c.641-.37,1.162-.07,1.162.671a2.571,2.571,0,0,1-1.162,2.013c-.642.371-1.162.07-1.162-.671A2.569,2.569,0,0,1,268.093,203.6Z" transform="translate(-266.931 -203.443)"/></g><g transform="translate(90.457 31.336)"><path d="M276.217,203.6c.641-.371,1.163-.07,1.163.67a2.571,2.571,0,0,1-1.163,2.013c-.642.371-1.162.07-1.162-.67A2.566,2.566,0,0,1,276.217,203.6Z" transform="translate(-275.055 -203.443)"/></g><g transform="translate(99.504 10.445)"><path d="M284.341,184.84c.642-.371,1.162-.07,1.162.67a2.566,2.566,0,0,1-1.162,2.013c-.641.371-1.161.07-1.161-.67A2.569,2.569,0,0,1,284.341,184.84Z" transform="translate(-283.18 -184.681)"/></g><g transform="translate(108.55 20.816)"><path d="M292.465,194.154c.642-.371,1.162-.07,1.162.671a2.569,2.569,0,0,1-1.162,2.013c-.641.37-1.161.07-1.161-.671A2.569,2.569,0,0,1,292.465,194.154Z" transform="translate(-291.304 -193.995)"/></g><g transform="translate(117.594 10.445)"><path d="M300.59,184.84c.642-.371,1.162-.07,1.162.67a2.57,2.57,0,0,1-1.162,2.014c-.641.37-1.163.069-1.163-.671A2.57,2.57,0,0,1,300.59,184.84Z" transform="translate(-299.427 -184.681)"/></g><g transform="translate(126.64 5.223)"><path d="M308.713,180.149c.642-.37,1.162-.07,1.162.671a2.567,2.567,0,0,1-1.162,2.013c-.641.371-1.163.07-1.163-.671A2.572,2.572,0,0,1,308.713,180.149Z" transform="translate(-307.551 -179.991)"/></g><g transform="translate(135.686 5.222)"><path d="M316.837,180.149c.642-.371,1.163-.07,1.163.671a2.569,2.569,0,0,1-1.163,2.013c-.641.371-1.162.07-1.162-.671A2.57,2.57,0,0,1,316.837,180.149Z" transform="translate(-315.675 -179.99)"/></g><g transform="translate(144.733)"><path d="M324.962,175.459c.641-.371,1.162-.07,1.162.67a2.569,2.569,0,0,1-1.162,2.013c-.642.371-1.163.07-1.163-.67A2.568,2.568,0,0,1,324.962,175.459Z" transform="translate(-323.8 -175.3)"/></g><g transform="translate(153.778)"><path d="M333.086,175.459c.641-.371,1.162-.07,1.162.67a2.569,2.569,0,0,1-1.162,2.013c-.642.371-1.162.07-1.162-.67A2.567,2.567,0,0,1,333.086,175.459Z" transform="translate(-331.924 -175.3)"/></g><g transform="translate(0.884 1.222)"><path d="M194.887,270.962a.262.262,0,0,1-.139-.038.277.277,0,0,1-.1-.38l9.11-15.705a.272.272,0,0,1,.183-.132l8.846-1.89L221.773,234a.278.278,0,0,1,.39-.121l8.954,5.17,8.863-2.568,8.987-7.786L258,218.275a.272.272,0,0,1,.133-.086l8.988-2.594,9-7.793a.277.277,0,0,1,.183-.068h8.863l8.973-20.722a.277.277,0,0,1,.213-.165.283.283,0,0,1,.254.092l8.834,10.2,8.835-10.2a.253.253,0,0,1,.071-.058l9.078-5.241a.278.278,0,0,1,.139-.038h8.97l8.95-5.166a.278.278,0,0,1,.139-.038h9.047a.278.278,0,1,1,0,.557h-8.971l-8.95,5.166a.278.278,0,0,1-.139.038h-8.971l-8.973,5.18-9.013,10.41a.288.288,0,0,1-.422,0l-8.755-10.11-8.87,20.484a.279.279,0,0,1-.256.168H276.4l-8.967,7.765a.284.284,0,0,1-.1.058l-8.968,2.588-9,10.39-9.061,7.855a.264.264,0,0,1-.106.057l-9.036,2.618a.282.282,0,0,1-.216-.027l-8.8-5.078-8.915,18.665a.282.282,0,0,1-.194.151l-8.861,1.893-9.048,15.6A.277.277,0,0,1,194.887,270.962Z" transform="translate(-194.609 -176.398)"/></g></g><g transform="translate(0 50.213)"><path class="b" d="M199.2,225.6l8.758-5.083c.444-.256.8-.073.8.406a1.721,1.721,0,0,1-.8,1.334l-8.758,5.083c-.443.256-.8.075-.8-.406A1.724,1.724,0,0,1,199.2,225.6Z" transform="translate(-193.296 -220.397)"/><g transform="translate(0 7.236)"><path class="c" d="M194.977,227.054c.641-.371,1.161-.07,1.161.67a2.568,2.568,0,0,1-1.161,2.013c-.642.371-1.162.07-1.162-.67A2.567,2.567,0,0,1,194.977,227.054Z" transform="translate(-193.815 -226.895)"/><path class="m" d="M194.977,227.054c.641-.371,1.161-.07,1.161.67a2.568,2.568,0,0,1-1.161,2.013c-.642.371-1.162.07-1.162-.67A2.567,2.567,0,0,1,194.977,227.054Z" transform="translate(-193.815 -226.895)"/></g></g><g transform="translate(0 55.422)"><path class="b" d="M199.2,230.274l8.758-5.083c.444-.256.8-.073.8.406a1.721,1.721,0,0,1-.8,1.334l-8.758,5.083c-.443.256-.8.073-.8-.406A1.723,1.723,0,0,1,199.2,230.274Z" transform="translate(-193.296 -225.075)"/><g transform="translate(0 7.249)"><path class="c" d="M194.977,231.744c.641-.371,1.161-.07,1.161.671a2.571,2.571,0,0,1-1.161,2.013c-.642.37-1.162.07-1.162-.671A2.567,2.567,0,0,1,194.977,231.744Z" transform="translate(-193.815 -231.585)"/></g></g></g><g transform="translate(8.769 128.706)"><g transform="translate(0 31.399)"><g transform="translate(0 1.06)"><path class="c" d="M194.887,296.945a.278.278,0,0,1-.2-.472l4.591-4.72,4.506-.571,4.55-5.879,4.555.625,4.426-4,4.517-2.708,4.606-6.385,4.574,1.434,4.4-3.927a.279.279,0,0,1,.372.415l-4.633,4.139-4.492-1.409-4.488,6.181-4.523,2.706-4.575,4.138-4.492-.617-4.495,5.808-4.541.575-4.454,4.58A.284.284,0,0,1,194.887,296.945Z" transform="translate(-194.609 -270.274)"/></g><g transform="translate(0.59 4.649)"><path class="h" d="M196.615,280.8a1.311,1.311,0,0,1,.116-.1,1.009,1.009,0,0,1,.122-.086,1.321,1.321,0,0,1,.685-.207.831.831,0,0,1,.543.206,1.315,1.315,0,0,1,.356.573,2.761,2.761,0,0,1,.129.894,4.326,4.326,0,0,1-.129,1.041,4.85,4.85,0,0,1-.356.987,4.1,4.1,0,0,1-.543.834,2.628,2.628,0,0,1-.685.583,1.321,1.321,0,0,1-.686.207.831.831,0,0,1-.542-.207,1.312,1.312,0,0,1-.357-.572,2.721,2.721,0,0,1-.129-.894,3.886,3.886,0,0,1,.042-.575,5.207,5.207,0,0,1,.114-.543c.047-.177.1-.351.156-.519s.114-.332.171-.485l1.2-3.428c.021-.046.047-.1.072-.169a.314.314,0,0,1,.131-.153l.379-.217a.067.067,0,0,1,.1.011.208.208,0,0,1,.038.137.334.334,0,0,1-.011.087.392.392,0,0,1-.023.065Zm-.847,2.895a1.732,1.732,0,0,0,.076.537.879.879,0,0,0,.215.365.519.519,0,0,0,.341.145.83.83,0,0,0,.454-.135,1.672,1.672,0,0,0,.453-.389,2.537,2.537,0,0,0,.341-.539,3.157,3.157,0,0,0,.216-.613,2.7,2.7,0,0,0,.075-.624,1.749,1.749,0,0,0-.075-.538.888.888,0,0,0-.216-.365.511.511,0,0,0-.341-.144.827.827,0,0,0-.453.134,1.7,1.7,0,0,0-.454.39,2.573,2.573,0,0,0-.341.538,3.181,3.181,0,0,0-.215.613A2.725,2.725,0,0,0,195.768,283.694Z" transform="translate(-195.139 -272.992)"/><path class="h" d="M199.293,282.334a1.343,1.343,0,0,0,.092.272.37.37,0,0,0,.178.187.534.534,0,0,0,.315.028,1.63,1.63,0,0,0,.507-.21,1.882,1.882,0,0,0,.39-.3,1.964,1.964,0,0,0,.325-.425,2.353,2.353,0,0,0,.22-.531,2.229,2.229,0,0,0,.083-.624,1.328,1.328,0,0,0-.079-.51.438.438,0,0,0-.216-.242.506.506,0,0,0-.321-.014,1.662,1.662,0,0,0-.4.172l-.55.317a.094.094,0,0,1-.126-.008.222.222,0,0,1-.053-.164v-.365a.534.534,0,0,1,.037-.19c.025-.065.048-.124.07-.178l1.19-2.666-1.905,1.1a.1.1,0,0,1-.126-.009.219.219,0,0,1-.053-.164v-.365a.523.523,0,0,1,.053-.224.33.33,0,0,1,.126-.155l2.608-1.505a.1.1,0,0,1,.127.009.219.219,0,0,1,.051.163v.366a.655.655,0,0,1-.032.2,1.7,1.7,0,0,1-.087.217l-1.171,2.623a1.4,1.4,0,0,1,.606-.192.683.683,0,0,1,.47.146,1.023,1.023,0,0,1,.3.475,2.478,2.478,0,0,1,.11.8,3.848,3.848,0,0,1-.133,1.01,4.189,4.189,0,0,1-.354.9,3.741,3.741,0,0,1-.522.735,2.75,2.75,0,0,1-.639.522,1.965,1.965,0,0,1-.765.283.79.79,0,0,1-.529-.112.835.835,0,0,1-.312-.4,1.743,1.743,0,0,1-.11-.593.409.409,0,0,1,.045-.184.257.257,0,0,1,.1-.125l.3-.177c.049-.028.088-.028.116,0A.2.2,0,0,1,199.293,282.334Z" transform="translate(-194.739 -273.266)"/><path class="h" d="M202.828,280.291a1.463,1.463,0,0,0,.092.274.386.386,0,0,0,.179.187.518.518,0,0,0,.315.026,1.554,1.554,0,0,0,.507-.21,1.866,1.866,0,0,0,.39-.3,1.983,1.983,0,0,0,.324-.426,2.383,2.383,0,0,0,.222-.53,2.233,2.233,0,0,0,.084-.623,1.315,1.315,0,0,0-.08-.511.432.432,0,0,0-.215-.242.5.5,0,0,0-.321-.013,1.528,1.528,0,0,0-.4.171l-.55.317a.1.1,0,0,1-.126-.009.216.216,0,0,1-.053-.163v-.368a.515.515,0,0,1,.038-.189c.023-.065.047-.124.069-.178l1.19-2.665-1.905,1.1a.1.1,0,0,1-.127-.009.224.224,0,0,1-.052-.164V275.4a.537.537,0,0,1,.052-.224.357.357,0,0,1,.127-.155l2.607-1.5a.1.1,0,0,1,.127.009.221.221,0,0,1,.052.163v.366a.675.675,0,0,1-.032.2,1.716,1.716,0,0,1-.087.219l-1.171,2.623a1.382,1.382,0,0,1,.6-.193.681.681,0,0,1,.471.147,1,1,0,0,1,.3.475,2.474,2.474,0,0,1,.11.8,3.866,3.866,0,0,1-.133,1.01,4.189,4.189,0,0,1-.354.9,3.584,3.584,0,0,1-.523.734,2.668,2.668,0,0,1-.638.522,1.913,1.913,0,0,1-.765.283.792.792,0,0,1-.53-.111.849.849,0,0,1-.312-.4,1.729,1.729,0,0,1-.108-.593.407.407,0,0,1,.043-.184.277.277,0,0,1,.1-.126l.305-.176c.049-.028.088-.027.116,0A.214.214,0,0,1,202.828,280.291Z" transform="translate(-194.337 -273.497)"/></g><g transform="translate(0.293 8.56)"><path class="b" d="M195.676,299.776l39.085-22.65c.443-.256.8-.075.8.406a1.724,1.724,0,0,1-.8,1.334l-39.086,22.65c-.443.255-.8.073-.8-.406A1.721,1.721,0,0,1,195.676,299.776Z" transform="translate(-194.872 -277.01)"/></g><g transform="translate(0.293)"><path class="b" d="M195.676,274.521l8.758-5.083c.443-.256.8-.075.8.406a1.724,1.724,0,0,1-.8,1.334l-8.76,5.083c-.443.256-.8.073-.8-.406A1.721,1.721,0,0,1,195.676,274.521Z" transform="translate(-194.872 -269.322)"/></g></g><g transform="translate(0 59.995)"><path class="c" d="M194.887,325.447a.278.278,0,0,1-.2-.472l4.591-4.72,4.536-.575,4.568-3.993,4.4-1.2,4.591-9.139,4.6,2.255,4.439-3.913.076-.016,4.408-.836,4.449-7.7a.278.278,0,1,1,.482.278l-4.577,7.917-4.583.87-4.605,4.057-4.443-2.176-4.454,8.87-4.581,1.248-4.54,4-4.511.572-4.454,4.578A.279.279,0,0,1,194.887,325.447Z" transform="translate(-194.609 -295.004)"/><g class="r"><path d="M194.887,325.447a.278.278,0,0,1-.2-.472l4.591-4.72,4.536-.575,4.568-3.993,4.4-1.2,4.591-9.139,4.6,2.255,4.439-3.913.076-.016,4.408-.836,4.449-7.7a.278.278,0,1,1,.482.278l-4.577,7.917-4.583.87-4.605,4.057-4.443-2.176-4.454,8.87-4.581,1.248-4.54,4-4.511.572-4.454,4.578A.279.279,0,0,1,194.887,325.447Z" transform="translate(-194.609 -295.004)"/></g><g transform="translate(0.44 8.455)"><path class="h" d="M197.153,313.074a.513.513,0,0,1-.052.224.331.331,0,0,1-.126.155l-.272.156a.1.1,0,0,1-.126-.008.217.217,0,0,1-.052-.164v-5.615l-1.072,1.873a.254.254,0,0,1-.133.138.1.1,0,0,1-.12-.033l-.157-.225a.261.261,0,0,1-.037-.184.536.536,0,0,1,.069-.222l1.416-2.49a.456.456,0,0,1,.106-.133,1.028,1.028,0,0,1,.106-.071l.272-.156a.1.1,0,0,1,.126.008.217.217,0,0,1,.052.164Z" transform="translate(-195.004 -302.177)"/><path class="h" d="M199.745,308.113a4.182,4.182,0,0,0,.3-.733,2.872,2.872,0,0,0,.1-.8,1.212,1.212,0,0,0-.2-.785c-.136-.161-.353-.157-.648.014a1.452,1.452,0,0,0-.394.327,2.046,2.046,0,0,0-.272.438,2.9,2.9,0,0,0-.172.508c-.041.176-.077.355-.1.533a.622.622,0,0,1-.069.213.3.3,0,0,1-.1.119l-.306.177a.08.08,0,0,1-.1-.007.187.187,0,0,1-.042-.134,3.822,3.822,0,0,1,.112-.83,4.589,4.589,0,0,1,.3-.879,4.12,4.12,0,0,1,.487-.8,2.3,2.3,0,0,1,.659-.585,1.216,1.216,0,0,1,.641-.2.664.664,0,0,1,.463.2,1.2,1.2,0,0,1,.282.53,2.956,2.956,0,0,1,.1.792,5.209,5.209,0,0,1-.035.609,3.717,3.717,0,0,1-.108.567,5.211,5.211,0,0,1-.2.578q-.119.292-.292.626l-1.475,2.972,2.024-1.168a.1.1,0,0,1,.127.008.222.222,0,0,1,.053.164v.366a.528.528,0,0,1-.053.224.345.345,0,0,1-.127.155l-2.852,1.646a.093.093,0,0,1-.125-.008.214.214,0,0,1-.055-.164v-.365a.648.648,0,0,1,.034-.214,2.008,2.008,0,0,1,.112-.259Z" transform="translate(-194.703 -302.359)"/><path class="h" d="M204.579,304.655q.007.454.007.857c0,.268,0,.556-.007.865a6.889,6.889,0,0,1-.11,1.168,5.017,5.017,0,0,1-.306,1.068,3.648,3.648,0,0,1-.52.892,2.6,2.6,0,0,1-.752.648,1.284,1.284,0,0,1-.75.219.729.729,0,0,1-.519-.291,1.738,1.738,0,0,1-.308-.714,4.986,4.986,0,0,1-.109-1.042c0-.3-.007-.589-.007-.857s0-.557.007-.865a7.015,7.015,0,0,1,.109-1.169,5.049,5.049,0,0,1,.308-1.069,3.736,3.736,0,0,1,.519-.9,2.6,2.6,0,0,1,.75-.655,1.251,1.251,0,0,1,.752-.213.755.755,0,0,1,.52.3,1.736,1.736,0,0,1,.306.714A4.9,4.9,0,0,1,204.579,304.655Zm-2.754,3.313a2.086,2.086,0,0,0,.282,1.264c.178.2.441.2.784,0a1.874,1.874,0,0,0,.785-.911,4.115,4.115,0,0,0,.281-1.588c0-.31.007-.6.007-.866s0-.555-.007-.856a2.1,2.1,0,0,0-.281-1.27c-.179-.2-.44-.208-.785-.011a1.884,1.884,0,0,0-.784.918,4.169,4.169,0,0,0-.282,1.594c0,.307-.006.6-.006.865S201.821,307.663,201.825,307.967Z" transform="translate(-194.302 -302.597)"/></g><g transform="translate(0.293 11.273)"><path class="b" d="M195.676,327.893l39.085-22.649c.443-.256.8-.075.8.406a1.725,1.725,0,0,1-.8,1.334l-39.086,22.649c-.443.256-.8.075-.8-.406A1.723,1.723,0,0,1,195.676,327.893Z" transform="translate(-194.872 -305.128)"/></g><g transform="translate(0.293 2.712)"><path class="b" d="M195.676,302.639l8.758-5.083c.443-.256.8-.075.8.406a1.724,1.724,0,0,1-.8,1.334l-8.76,5.083c-.443.255-.8.074-.8-.408A1.721,1.721,0,0,1,195.676,302.639Z" transform="translate(-194.872 -297.44)"/></g></g><g transform="translate(54.275)"><g transform="translate(0 1.061)"><path class="c" d="M243.631,268.745a.279.279,0,0,1-.174-.5l4.523-3.609,4.555-5.2,4.624-.669,4.412-1,4.566-5.394,4.5.795,4.507-7.138,4.581.074,4.431-3.961a.279.279,0,0,1,.372.415l-4.594,4.106-4.486-.074-4.54,7.191-4.55-.8-4.479,5.291-4.615,1.041-4.442.645-4.454,5.083-4.56,3.643A.276.276,0,0,1,243.631,268.745Z" transform="translate(-243.354 -242.075)"/></g><g transform="translate(0.59 4.818)"><path class="h" d="M245.361,252.6a1.147,1.147,0,0,1,.115-.1.9.9,0,0,1,.122-.086,1.309,1.309,0,0,1,.685-.207.831.831,0,0,1,.543.206,1.317,1.317,0,0,1,.356.572,2.771,2.771,0,0,1,.129.894,4.337,4.337,0,0,1-.129,1.042,4.876,4.876,0,0,1-.356.987,4.1,4.1,0,0,1-.543.834,2.65,2.65,0,0,1-.685.583,1.331,1.331,0,0,1-.686.207.833.833,0,0,1-.542-.207,1.309,1.309,0,0,1-.357-.573,2.74,2.74,0,0,1-.129-.893,3.739,3.739,0,0,1,.043-.575,4.927,4.927,0,0,1,.112-.543c.047-.177.1-.351.156-.519s.114-.332.171-.487l1.2-3.427c.022-.046.047-.1.074-.169a.3.3,0,0,1,.131-.153l.379-.217a.064.064,0,0,1,.095.011.207.207,0,0,1,.038.137.336.336,0,0,1-.011.087.383.383,0,0,1-.023.063Zm-.848,2.894a1.737,1.737,0,0,0,.076.538.888.888,0,0,0,.216.365.517.517,0,0,0,.34.145.831.831,0,0,0,.454-.135,1.671,1.671,0,0,0,.453-.389,2.564,2.564,0,0,0,.341-.539,3.183,3.183,0,0,0,.216-.614,2.7,2.7,0,0,0,.075-.625,1.745,1.745,0,0,0-.075-.537.88.88,0,0,0-.216-.365.511.511,0,0,0-.341-.144.828.828,0,0,0-.453.134,1.7,1.7,0,0,0-.454.39,2.542,2.542,0,0,0-.34.538,3.189,3.189,0,0,0-.216.614A2.725,2.725,0,0,0,244.512,255.493Z" transform="translate(-243.883 -244.96)"/><path class="h" d="M249.54,251.186a4.245,4.245,0,0,0,.3-.733,2.908,2.908,0,0,0,.1-.8,1.22,1.22,0,0,0-.2-.785c-.137-.16-.354-.157-.649.014a1.472,1.472,0,0,0-.394.328,1.926,1.926,0,0,0-.271.436,2.812,2.812,0,0,0-.173.508c-.042.176-.077.355-.1.533a.637.637,0,0,1-.069.213.318.318,0,0,1-.1.12l-.3.176a.082.082,0,0,1-.1-.007.183.183,0,0,1-.042-.134,3.885,3.885,0,0,1,.112-.829,4.624,4.624,0,0,1,.3-.877,4.077,4.077,0,0,1,.488-.8,2.273,2.273,0,0,1,.658-.583,1.218,1.218,0,0,1,.642-.2.669.669,0,0,1,.463.2,1.211,1.211,0,0,1,.282.529,2.958,2.958,0,0,1,.1.792,5.217,5.217,0,0,1-.033.609,3.9,3.9,0,0,1-.109.568,4.776,4.776,0,0,1-.2.577c-.079.195-.176.4-.291.626l-1.475,2.973,2.023-1.169a.1.1,0,0,1,.128.009.219.219,0,0,1,.051.163v.366a.521.521,0,0,1-.051.224.334.334,0,0,1-.128.155l-2.852,1.647a.1.1,0,0,1-.126-.009.216.216,0,0,1-.052-.164V255.5a.635.635,0,0,1,.033-.213,1.936,1.936,0,0,1,.112-.261Z" transform="translate(-243.478 -245.186)"/><path class="h" d="M253.664,245.467a.1.1,0,0,1,.126.009.222.222,0,0,1,.052.163v.367a1.173,1.173,0,0,1-.02.2c-.012.076-.03.157-.052.245l-1.47,6.689a1.731,1.731,0,0,1-.068.207.3.3,0,0,1-.125.147l-.3.176a.083.083,0,0,1-.112-.007.2.2,0,0,1-.047-.146c0-.012,0-.03,0-.047a.716.716,0,0,1,.018-.088l1.475-6.7-2.17,1.254a.1.1,0,0,1-.127-.009.218.218,0,0,1-.052-.163V247.4a.525.525,0,0,1,.052-.224.34.34,0,0,1,.127-.154Z" transform="translate(-243.099 -245.449)"/></g><g transform="translate(0.293 8.559)"><path class="b" d="M244.42,271.575l39.084-22.65c.444-.256.8-.073.8.406a1.721,1.721,0,0,1-.8,1.334l-39.084,22.65c-.443.256-.8.075-.8-.406A1.724,1.724,0,0,1,244.42,271.575Z" transform="translate(-243.617 -248.809)"/></g><g transform="translate(0.293)"><path class="b" d="M244.42,246.32l8.758-5.082c.444-.256.8-.075.8.406a1.719,1.719,0,0,1-.8,1.333l-8.758,5.083c-.443.256-.8.075-.8-.406A1.724,1.724,0,0,1,244.42,246.32Z" transform="translate(-243.617 -241.122)"/></g></g><g transform="translate(54.274 31.308)"><g transform="translate(0 1.077)"><path class="c" d="M243.631,296.861a.278.278,0,0,1-.238-.423l4.624-7.583,4.648.861,4.376-1.2L261.567,283l4.5-1.133,4.571-8.145,4.672,1.356,4.393-.833,4.455-3.965a.275.275,0,0,1,.392.022.278.278,0,0,1-.022.393l-4.571,4.067-.075.016-4.6.872-4.375-1.27-4.473,7.968L261.88,283.5l-4.522,5.514-.085.023-4.584,1.253-.063-.01-4.333-.8-4.424,7.254A.281.281,0,0,1,243.631,296.861Z" transform="translate(-243.353 -270.207)"/></g><g class="r" transform="translate(0 1.077)"><path d="M243.631,296.861a.278.278,0,0,1-.238-.423l4.624-7.583,4.648.861,4.376-1.2L261.567,283l4.5-1.133,4.571-8.145,4.672,1.356,4.393-.833,4.455-3.965a.275.275,0,0,1,.392.022.278.278,0,0,1-.022.393l-4.571,4.067-.075.016-4.6.872-4.375-1.27-4.473,7.968L261.88,283.5l-4.522,5.514-.085.023-4.584,1.253-.063-.01-4.333-.8-4.424,7.254A.281.281,0,0,1,243.631,296.861Z" transform="translate(-243.353 -270.207)"/></g><g transform="translate(0.531 7.038)"><path class="h" d="M245.669,282.848a.837.837,0,0,1-.092.068l-.086.056a1.344,1.344,0,0,1-.616.2.793.793,0,0,1-.529-.158,1.176,1.176,0,0,1-.374-.538,2.633,2.633,0,0,1-.142-.948,4.143,4.143,0,0,1,.133-1.033,4.736,4.736,0,0,1,.361-.967,4.058,4.058,0,0,1,.53-.811,2.4,2.4,0,0,1,.638-.552,1.351,1.351,0,0,1,.691-.216.771.771,0,0,1,.523.2,1.263,1.263,0,0,1,.331.569,3.234,3.234,0,0,1,.062,1.435c-.035.194-.079.387-.131.581s-.111.383-.173.567-.12.356-.173.508l-1.2,3.426c-.022.048-.046.1-.072.17a.29.29,0,0,1-.132.151l-.377.219a.068.068,0,0,1-.1-.011.22.22,0,0,1-.036-.137.337.337,0,0,1,.009-.087.291.291,0,0,1,.023-.065Zm.855-2.878a1.769,1.769,0,0,0-.077-.547.8.8,0,0,0-.212-.352.49.49,0,0,0-.328-.121.85.85,0,0,0-.416.129,1.594,1.594,0,0,0-.42.355,2.3,2.3,0,0,0-.325.5,2.815,2.815,0,0,0-.212.594,2.77,2.77,0,0,0-.076.636,1.752,1.752,0,0,0,.076.551.781.781,0,0,0,.212.348.485.485,0,0,0,.325.123.82.82,0,0,0,.42-.13,1.593,1.593,0,0,0,.416-.353,2.321,2.321,0,0,0,.328-.5,2.9,2.9,0,0,0,.212-.59A2.737,2.737,0,0,0,246.525,279.969Z" transform="translate(-243.83 -275.29)"/><path class="h" d="M247.857,282.354a1.392,1.392,0,0,0,.094.274.372.372,0,0,0,.178.186.525.525,0,0,0,.315.028,1.607,1.607,0,0,0,.507-.212,1.966,1.966,0,0,0,.715-.727,2.426,2.426,0,0,0,.22-.531,2.183,2.183,0,0,0,.083-.624,1.332,1.332,0,0,0-.079-.51.444.444,0,0,0-.216-.243.5.5,0,0,0-.322-.012,1.576,1.576,0,0,0-.4.172l-.55.317a.1.1,0,0,1-.126-.009.216.216,0,0,1-.053-.163v-.366a.534.534,0,0,1,.037-.19c.024-.066.047-.125.069-.178l1.193-2.664-1.906,1.1a.094.094,0,0,1-.126-.009.217.217,0,0,1-.053-.163v-.366a.511.511,0,0,1,.053-.224.331.331,0,0,1,.126-.155l2.608-1.507a.1.1,0,0,1,.126.009.224.224,0,0,1,.052.164v.367a.7.7,0,0,1-.032.2,1.8,1.8,0,0,1-.088.218l-1.17,2.622a1.388,1.388,0,0,1,.606-.192.679.679,0,0,1,.469.146,1.027,1.027,0,0,1,.306.477,2.538,2.538,0,0,1,.109.8,3.858,3.858,0,0,1-.134,1.009,4.125,4.125,0,0,1-.354.9,3.682,3.682,0,0,1-.522.734,2.72,2.72,0,0,1-.638.522,1.946,1.946,0,0,1-.766.283.8.8,0,0,1-.529-.112.831.831,0,0,1-.311-.4,1.71,1.71,0,0,1-.109-.595.447.447,0,0,1,.042-.185.282.282,0,0,1,.1-.125l.3-.175c.049-.029.087-.029.116,0A.2.2,0,0,1,247.857,282.354Z" transform="translate(-243.444 -275.561)"/></g><g transform="translate(0.294 8.559)"><path class="b" d="M244.42,299.693l39.084-22.65c.444-.256.8-.073.8.406a1.721,1.721,0,0,1-.8,1.334l-39.084,22.65c-.443.256-.8.075-.8-.406A1.722,1.722,0,0,1,244.42,299.693Z" transform="translate(-243.617 -276.927)"/></g><g transform="translate(0.294)"><path class="b" d="M244.42,274.438l8.758-5.082c.444-.256.8-.075.8.405a1.721,1.721,0,0,1-.8,1.334l-8.758,5.083c-.443.256-.8.075-.8-.406A1.724,1.724,0,0,1,244.42,274.438Z" transform="translate(-243.617 -269.24)"/></g></g></g><g transform="translate(113.34 86.35)"><g transform="translate(0 18.346)"><path class="c" d="M296.41,220.473a5.105,5.105,0,0,1,5.155-.384l-5.155,13.9Z" transform="translate(-287.63 -219.559)"/><path class="c" d="M291.78,225.95a15.313,15.313,0,0,1,5.155-5.57V233.9Z" transform="translate(-288.156 -219.466)"/><path class="c" d="M288.913,233.973a27.056,27.056,0,0,1,3.192-8.591l5.155,7.948Z" transform="translate(-288.481 -218.898)"/><path class="m" d="M292.105,225.95a27.055,27.055,0,0,0-3.192,8.591l8.348-.644V220.38A15.314,15.314,0,0,0,292.105,225.95Z" transform="translate(-288.481 -219.466)"/><path class="c" d="M301.565,220.035c1.481.805,2.614,2.5,3.192,4.906l-8.348,9Z" transform="translate(-287.63 -219.505)"/><path class="c" d="M288.957,241.516a16.807,16.807,0,0,1-.432-3.927,23.98,23.98,0,0,1,.432-4.425l8.348-.644Z" transform="translate(-288.525 -218.088)"/><path class="c" d="M304.758,231.942a27.084,27.084,0,0,1-3.192,8.591l-5.155-7.948Z" transform="translate(-287.63 -218.154)"/><path class="c" d="M296.935,246.037a5.108,5.108,0,0,1-5.155.384l5.155-13.9Z" transform="translate(-288.156 -218.088)"/><path class="c" d="M288.913,241.516l8.348-9-5.155,13.9C290.623,245.616,289.491,243.922,288.913,241.516Z" transform="translate(-288.481 -218.088)"/><path class="c" d="M304.758,224.441a16.867,16.867,0,0,1,.432,3.927,24.085,24.085,0,0,1-.432,4.425l-8.348.644Z" transform="translate(-287.63 -219.005)"/><path class="c" d="M301.565,240.468a15.34,15.34,0,0,1-5.155,5.569V232.52Z" transform="translate(-287.63 -218.088)"/><g transform="translate(1.666 29.644)"><path class="h" d="M292.559,251.381l8.758-5.083c.443-.256.8-.074.8.406a1.722,1.722,0,0,1-.8,1.334l-8.758,5.083c-.444.256-.8.074-.8-.406A1.721,1.721,0,0,1,292.559,251.381Z" transform="translate(-289.824 -246.182)"/><path class="b" d="M290.824,257.315l12.622-7.322c.443-.256.8-.075.8.406a1.724,1.724,0,0,1-.8,1.334l-12.622,7.322c-.443.256-.8.075-.8-.406A1.724,1.724,0,0,1,290.824,257.315Z" transform="translate(-290.021 -245.763)"/><path class="b" d="M290.824,262.017l12.622-7.323c.443-.256.8-.075.8.406a1.722,1.722,0,0,1-.8,1.334l-12.622,7.323c-.443.255-.8.073-.8-.406A1.722,1.722,0,0,1,290.824,262.017Z" transform="translate(-290.021 -245.229)"/><path class="b" d="M290.824,266.718l12.622-7.323c.443-.256.8-.073.8.406a1.723,1.723,0,0,1-.8,1.334l-12.622,7.323c-.443.256-.8.073-.8-.406A1.723,1.723,0,0,1,290.824,266.718Z" transform="translate(-290.021 -244.696)"/></g></g><g transform="translate(31.66)"><path class="c" d="M324.844,204a5.105,5.105,0,0,1,5.155-.384l-5.155,13.9Z" transform="translate(-316.064 -203.082)"/><path class="c" d="M320.214,209.471a15.329,15.329,0,0,1,5.155-5.568v13.516Z" transform="translate(-316.59 -202.989)"/><path class="c" d="M317.347,217.5a27.064,27.064,0,0,1,3.192-8.591l5.155,7.948Z" transform="translate(-316.915 -202.421)"/><path class="c" d="M330,203.558c1.482.805,2.614,2.5,3.192,4.9l-8.348,9Z" transform="translate(-316.064 -203.028)"/><path class="c" d="M317.391,225.038a16.856,16.856,0,0,1-.432-3.926,24.088,24.088,0,0,1,.432-4.426l8.348-.644Z" transform="translate(-316.959 -201.611)"/><path class="c" d="M333.192,215.464A27.062,27.062,0,0,1,330,224.057l-5.155-7.949Z" transform="translate(-316.064 -201.677)"/><path class="c" d="M325.369,229.559a5.105,5.105,0,0,1-5.155.384l5.155-13.9Z" transform="translate(-316.59 -201.611)"/><path class="c" d="M317.347,225.038l8.348-9-5.155,13.9C319.057,229.138,317.925,227.445,317.347,225.038Z" transform="translate(-316.915 -201.611)"/><path class="m" d="M320.583,209.471a27.064,27.064,0,0,0-3.192,8.591,24.087,24.087,0,0,0-.432,4.426,16.857,16.857,0,0,0,.432,3.926c.578,2.407,1.71,4.1,3.192,4.906l5.155-13.9V203.9A15.328,15.328,0,0,0,320.583,209.471Z" transform="translate(-316.959 -202.989)"/><path class="c" d="M333.192,207.963a16.812,16.812,0,0,1,.432,3.927,23.968,23.968,0,0,1-.432,4.425l-8.348.644Z" transform="translate(-316.064 -202.528)"/><path class="c" d="M330,223.991a15.329,15.329,0,0,1-5.155,5.568V216.042Z" transform="translate(-316.064 -201.611)"/><g transform="translate(1.666 29.711)"><path class="h" d="M320.993,234.964l8.758-5.082c.443-.256.8-.075.8.406a1.724,1.724,0,0,1-.8,1.334l-8.758,5.082c-.444.256-.8.075-.8-.406A1.724,1.724,0,0,1,320.993,234.964Z" transform="translate(-318.258 -229.766)"/><path class="b" d="M319.258,240.9l12.622-7.323c.443-.256.8-.073.8.406a1.722,1.722,0,0,1-.8,1.334l-12.622,7.323c-.443.256-.8.074-.8-.406A1.722,1.722,0,0,1,319.258,240.9Z" transform="translate(-318.455 -229.347)"/><path class="b" d="M319.258,245.6l12.622-7.322c.443-.257.8-.075.8.406a1.722,1.722,0,0,1-.8,1.333l-12.622,7.323c-.443.256-.8.075-.8-.406A1.723,1.723,0,0,1,319.258,245.6Z" transform="translate(-318.455 -228.813)"/><path class="b" d="M319.258,250.3l12.622-7.322c.443-.256.8-.075.8.406a1.724,1.724,0,0,1-.8,1.334l-12.622,7.322c-.443.256-.8.075-.8-.406A1.724,1.724,0,0,1,319.258,250.3Z" transform="translate(-318.455 -228.28)"/></g></g></g></g></g></g></g><g transform="translate(255.119 2751.015)"><g transform="translate(0 0)"><g transform="translate(93.595)"><g transform="translate(12.466)"><path class="c" d="M332.362,367.99a14.863,14.863,0,0,0-6.331-11.867c-1.8-1.12-3.454-1.284-4.689-.649l0,0c-7.449,3.739-59.8,37.309-63.147,38.961l-.042.022a2.388,2.388,0,0,0-1.062,2.158,7.489,7.489,0,0,0,3.19,5.98,2.376,2.376,0,0,0,2.391.313l.048-.024c5.3-2.919,56.967-24.938,67.53-30.6h0l.007,0h0C331.491,371.608,332.291,370.129,332.362,367.99Z" transform="translate(-257.085 -355.105)"/><path class="s" d="M330.3,360.751a13.41,13.41,0,0,0-4.272-4.629c-1.792-1.117-3.443-1.282-4.677-.655-.248.137-.325.181-.151.081-6.8,3.478-45.762,28.334-58.872,36.412l-.087.053-.53.326-.161.1-.3.183-.352.215-.026.016c-1.387.845-2.323,1.4-2.684,1.577l-.042.022a1.7,1.7,0,0,0-.308.237,2.627,2.627,0,0,0-.754,1.921,5.356,5.356,0,0,0,.037.75c.011.1.03.193.046.29.025.152.055.306.091.46.029.123.06.244.1.365.042.145.091.287.144.431.038.107.072.214.116.32.007.018.016.033.023.051Z" transform="translate(-257.084 -355.105)"/><path class="c" d="M260.265,398.6a7.456,7.456,0,0,1-3.178-5.956c.072-2.152,1.611-2.974,3.438-1.836a7.459,7.459,0,0,1,3.178,5.955C263.631,398.913,262.091,399.736,260.265,398.6Z" transform="translate(-257.085 -351.112)"/></g><path class="f" d="M245.891,399.917a5.733,5.733,0,0,0,2.441,4.576,1.826,1.826,0,0,0,1.819.245v0l.007,0h0l12.662-6.742.009,0h0a1.826,1.826,0,0,0,.809-1.648,5.733,5.733,0,0,0-2.442-4.576,1.823,1.823,0,0,0-1.826-.243h0l-12.661,6.74h0A1.816,1.816,0,0,0,245.891,399.917Z" transform="translate(-245.889 -350.99)"/><path class="g" d="M246.714,398.262a1.816,1.816,0,0,0-.823,1.655,4.918,4.918,0,0,0,.382,1.953l16.33-8.712a4.926,4.926,0,0,0-1.4-1.394,1.823,1.823,0,0,0-1.826-.243l-12.661,6.74Z" transform="translate(-245.889 -350.99)"/></g><g transform="translate(0 28.461)"><path class="c" d="M271.671,412.373c0-8.115-5.361-16.23-16.085-22.421-21.447-12.383-56.22-12.383-77.667,0-10.723,6.191-16.085,14.306-16.085,22.419h0V427.32c0,8.114,5.362,16.229,16.086,22.419,21.447,12.383,56.22,12.383,77.666,0,10.724-6.191,16.085-14.306,16.085-22.419V412.372Zm-91.1-17.821c9.578-5.531,22.426-8.576,36.178-8.576s26.6,3.045,36.177,8.576c8.66,5,13.429,11.328,13.429,17.821s-4.77,12.82-13.429,17.82c-9.577,5.531-22.426,8.576-36.177,8.576s-26.6-3.045-36.178-8.576c-8.659-5-13.428-11.328-13.428-17.82S171.914,399.551,180.575,394.552Z" transform="translate(-161.831 -380.665)"/><path class="t" d="M177.916,434.793c21.447,12.382,56.22,12.382,77.667,0s21.447-32.458,0-44.841-56.219-12.383-77.667,0S156.47,422.411,177.916,434.793Zm-10.774-22.421c0-6.493,4.769-12.821,13.429-17.821,9.578-5.531,22.426-8.576,36.178-8.576s26.6,3.045,36.177,8.576c8.66,5,13.429,11.328,13.429,17.821s-4.77,12.82-13.429,17.82c-9.579,5.531-22.427,8.576-36.177,8.576s-26.6-3.045-36.178-8.576C171.912,425.193,167.142,418.864,167.142,412.373Z" transform="translate(-161.831 -380.665)"/><g transform="translate(5.308 5.31)"><path class="c" d="M166.6,411.831a14.733,14.733,0,0,0,2.146,7.478c2.177-3.771,6.012-7.309,11.292-10.346,9.57-5.534,22.423-8.582,36.178-8.582s26.6,3.049,36.169,8.582c5.279,3.038,9.114,6.575,11.3,10.346a14.828,14.828,0,0,0,2.134-7.478c0-6.49-4.769-12.821-13.436-17.824-9.571-5.524-22.424-8.572-36.169-8.572s-26.608,3.049-36.178,8.572C171.367,399.009,166.6,405.34,166.6,411.831Z" transform="translate(-166.598 -385.434)"/><path class="s" d="M166.6,411.831a14.733,14.733,0,0,0,2.146,7.478c2.177-3.771,6.012-7.309,11.292-10.346,9.57-5.534,22.423-8.582,36.178-8.582s26.6,3.049,36.169,8.582c5.279,3.038,9.114,6.575,11.3,10.346a14.828,14.828,0,0,0,2.134-7.478c0-6.49-4.769-12.821-13.436-17.824-9.571-5.524-22.424-8.572-36.169-8.572s-26.608,3.049-36.178,8.572C171.367,399.009,166.6,405.34,166.6,411.831Z" transform="translate(-166.598 -385.434)"/></g><path class="u" d="M179.985,400.089c9.578-5.531,22.426-8.576,36.178-8.576s26.6,3.045,36.177,8.576c7.146,4.125,11.633,9.156,12.987,14.437-1.354,5.28-5.842,10.311-12.987,14.436-9.579,5.531-22.427,8.576-36.177,8.576s-26.6-3.045-36.178-8.576c-7.145-4.125-11.633-9.156-12.987-14.436C168.352,409.245,172.839,404.214,179.985,400.089Z" transform="translate(-161.245 -379.435)"/><path class="s" d="M203.811,440.465V455.4a71.9,71.9,0,0,1-25.887-8.391c-10.728-6.193-16.093-14.308-16.093-22.424V409.64a18.829,18.829,0,0,1,.659-4.9h.01c-2.6,9.655,2.539,19.874,15.424,27.32A72.1,72.1,0,0,0,203.811,440.465Z" transform="translate(-161.831 -377.934)"/></g></g></g><g transform="translate(460.566 2522.101)"><g transform="translate(0 0)"><g transform="translate(38.971 101.46)"><g transform="translate(40.661 115.182)"><path class="g" d="M436.515,356.083c.65.264.788,1.515.831,4,.034,1.881.362,5.169-1.853,5.774s-5.431.2-6.8-1.6c-1.71-2.25-2.856-4.222-5.307-6.976-2.127-2.388-4.435-4.624-5.24-7.924-.728-2.983-.038-4.253,2-5.071,2.808-1.122,7.09,2.849,9.256,3.507C431.269,348.357,435.865,355.82,436.515,356.083Z" transform="translate(-417.862 -344.084)"/></g><g transform="translate(50.888 123.588)"><path class="v" d="M435.525,352.928l-.069,3.049a7.463,7.463,0,0,1-7.707.035c-.127-.3-.7-4.378-.7-4.378Z" transform="translate(-427.047 -351.633)"/></g><g transform="translate(0 144.171)"><path class="g" d="M415.577,370.14a51.436,51.436,0,0,1,1.234,5c.333,1.851.8,4.944.124,6.316s-3.213,2.209-7.116,2.091c-2.526-.076-6.5,1.552-9.235,3-2.821,1.491-8.628,1.98-11.567,1.568-3.463-.485-7.015-2.581-7.544-4.031s.25-2.927,8.511-6.23c.076-.03,11.46-3.451,15.517-7.731Z" transform="translate(-381.344 -370.119)"/></g><g transform="translate(24.148 140.877)"><path class="v" d="M413.191,367.18s-.062,2.263-.08,3.555-1.589,3.185-5.537,2.955c-2.774-.163-4.694-.952-4.533-3.236l.075-3.295Z" transform="translate(-403.031 -367.16)"/></g><g transform="translate(15.616)"><path class="f" d="M442.012,325.115a82.8,82.8,0,0,0-3.241-15.957s1.4-13.672,2.211-26.647c.88-14.014,1.7-21.23-1.06-41.471,0,0-42.968-3.859-44.141,12.337s.492,57.532.866,64.667,1.464,13.463,2.676,25.042c1.2,11.427,4.662,38.429,4.662,38.429a10.691,10.691,0,0,0,10.076.02s3.915-32.35,3.766-40.578a70.262,70.262,0,0,0-2.712-18.01s1.159-13.35,2.179-24.964,1.949-17.181,2.238-22.236l.984-.461s.541,20.086.916,27.222,1.354,13.991,3.117,27.269c1.529,11.519,6.307,35.925,6.307,35.925,5.107,2.912,8.264-.18,8.264-.18S443.183,335.106,442.012,325.115Z" transform="translate(-395.369 -240.638)"/></g><g transform="translate(39.778 25.19)"><path class="g" d="M417.069,273.181s11.1-5.163,16.707-9.92c0,0-5.264,7.075-12.034,10.111,0,0-2.944,24.87-2.921,24.377L418,273.165Z" transform="translate(-417.069 -263.261)"/></g></g><path class="v" d="M410.157,189.472l1.673,14.836,14.01-.706-1.557-17.314Z" transform="translate(-339.104 -145.344)"/><g transform="translate(0 33.113)"><path class="f" d="M429.142,194.253c5.215-.241,7.864.542,10.207,5.042s3.26,17.942,4.075,24.874,1.019,11.822-1.834,12.534-13.958,1.019-13.958,1.019Z" transform="translate(-337.121 -177.558)"/><path class="h" d="M441.606,201.947c-.756-4.152-6.215-8.515-11.325-7.684q-1.78.289-3.468.587c-.614,2.5-7.453,4.056-13.986,2.519-1.97.517-8.453,1.73-10.092,2.275-4.7,1.56-6.635,6.181-7.366,21.5,0,0,.376,34.681.193,41.589,11.594,4.892,23.764,5.024,30.522,3.706,14.069-2.743,15.888-8.512,15.888-8.512l-2.094-15.866S443.316,211.339,441.606,201.947Z" transform="translate(-340.782 -177.564)"/><path class="f" d="M411.038,193.794l.1.933a20.8,20.8,0,0,0,8.6,0c4.552-1.012,5.471-2.3,5.471-2.3l-.1-1.059s1.133-.42,1.729,1.324a18.948,18.948,0,0,1,.658,2.127s.524,3.188-4.827,4.811a16.54,16.54,0,0,1-13.326-1.455l-2.1.442s1.815-4.183,2.364-5.032a1.393,1.393,0,0,1,1.312-.727Z" transform="translate(-339.433 -177.885)"/><g transform="translate(1.054)"><path class="h" d="M375.071,179.255l-27.781,14.5,13.8,37.744,25.926-14.524Z" transform="translate(-347.29 -179.255)"/><path class="w" d="M373.47,182.573l-23.306,12.163,12.216,32.449L384.131,215Z" transform="translate(-346.964 -178.878)"/><path class="i" d="M367.937,185.867l-.451-1.155c-.249-.638-2.189-.257-4.332.85l-4.1,2.119c-2.144,1.107-3.68,2.52-3.431,3.158l.451,1.155Z" transform="translate(-346.349 -178.671)"/><g transform="translate(6.889 2.214)"><path class="c" d="M367.726,181.607c-.154-.4-1-.334-1.885.145l-1.607.868s-.991-2.494-4.687-.768-2.853,4.615-2.853,4.615l-1.706.941c-.942.519-1.612,1.268-1.5,1.674l.208.734,14.311-7.467S367.881,182.006,367.726,181.607Z" transform="translate(-353.478 -181.244)"/><path class="c" d="M365.885,183.132c-1.332.655-1.855.97-1.472,1.953.438,1.122.845,1.929.845,1.929l-6.33,3.311s-.528-1.427-.758-1.979-.694-.814-1.7-.287l-.375-.4,9.984-5.088Z" transform="translate(-353.181 -181.093)"/><path class="m" d="M365.885,183.132c-1.332.655-1.855.97-1.472,1.953.438,1.122.845,1.929.845,1.929l-6.33,3.311s-.528-1.427-.758-1.979-.694-.814-1.7-.287l-.375-.4,9.984-5.088Z" transform="translate(-353.181 -181.093)"/><path class="c" d="M368.181,185.921l-.451-1.155c-.249-.637-2.189-.257-4.332.85l-4.1,2.119c-2.145,1.107-3.68,2.52-3.431,3.158l.451,1.155Z" transform="translate(-353.21 -180.879)"/></g></g><g transform="translate(29.898 22.08)"><path class="v" d="M405.25,199.085c-6.414.558-9.146,1.727-13.961,10.409-5.225,9.423-15.27,26.476-16.544,28.629-1.773,3-2.107,7.551-.578,10.3,1.429,2.57,5.961,3.746,11.1-2.06,6.111-6.9,17.48-23.76,17.48-23.76S412.405,209.864,405.25,199.085Z" transform="translate(-373.196 -199.085)"/></g><path class="v" d="M379.872,250.061c-4.916-.6-16.4-16.175-19.664-21.264a36.3,36.3,0,0,0-9.948-10.5c-5.2-3.845-4.447-9.752-2.177-15.165.787-1.875,3.453-.655,3.453-.655l.94,2.569L354.1,209.5c1.1,1.023,1.73,1.356,1.8,1.052.138-.575-.81-2.967-.787-5.46.028-3,2.129-1.029,2.756.023a37.15,37.15,0,0,1,2.218,4.956c1.048,2.686.615,5.4,1.891,7.234s18.408,18.244,18.408,18.244Z" transform="translate(-346.344 -176.664)"/><path class="f" d="M407.642,198.786c-3.886-.1-8.556.523-12.172,5.222s-18.091,30.25-18.091,30.25l-8.124-7.281a14.158,14.158,0,0,0-6.247,8.829,88.074,88.074,0,0,0,7.356,9.983c3.433,3.768,7.264,6.38,10.4,5.223s6.346-3.646,13.108-13.058,14.139-20.522,14.139-20.522S412.672,206.58,407.642,198.786Z" transform="translate(-344.453 -177.04)"/></g><g transform="translate(58.052 25.967)"><path class="x" d="M401.612,172.837s-3.5,5.307-3.1,5.829,2.973.991,2.973.991Z" transform="translate(-398.481 -172.837)"/></g><g transform="translate(58.652 21.041)"><path class="g" d="M403.188,176.748a4.168,4.168,0,1,1,4.168-4.168A4.172,4.172,0,0,1,403.188,176.748Zm0-7.409a3.241,3.241,0,1,0,3.241,3.241A3.244,3.244,0,0,0,403.188,169.339Z" transform="translate(-399.02 -168.413)"/></g><g transform="translate(60.904 10.59)"><path class="v" d="M411.034,159.721c-7.078,1.493-9.123,4.6-9.79,15.849-.7,11.749.5,15.443,2.047,17.025,1.042,1.068,6.832,1.26,9.754.455,3.655-1.008,11.917-3.936,15.788-9.846,4.551-6.954,5.748-16.377.874-20.243C422.849,157.519,413.915,159.113,411.034,159.721Z" transform="translate(-401.042 -159.027)"/></g><path class="x" d="M411.013,190.1l-.328-2.165a14.007,14.007,0,0,1-7.257,1.645C404.778,190.248,408.3,190.437,411.013,190.1Z" transform="translate(-339.868 -145.157)"/><path class="g" d="M399.37,171.374,411.955,173l-.507.884-12.078-1.567Z" transform="translate(-340.328 -147.036)"/><g transform="translate(57.076)"><path class="g" d="M400.428,165.338a3.948,3.948,0,0,0,1.6-.1,2.522,2.522,0,0,0,.863,2.951,3.563,3.563,0,0,0,3.174.421,3.066,3.066,0,0,0-.347,2.188,3.548,3.548,0,0,0,3.667,2.646c.075,1.645.095,3.253,1.852,4,0,0,1.119-4.342,4.779-3.8,3.684.55,4.182,5.245,1.861,8.1-2.308,2.835-4.459,1.774-4.486,1.759.214.108.287,1.492.363,1.755a12.714,12.714,0,0,0,.941,2.374A11.344,11.344,0,0,0,418,191.523c1.917,1.412,4.258,2.422,6.642,1.848a7.15,7.15,0,0,0,4.839-3.894,4.169,4.169,0,0,1,.789-1.406,4.611,4.611,0,0,1,1.8-.782,5.3,5.3,0,0,0,3-7.478,4.858,4.858,0,0,0,1.861-8.486A5.829,5.829,0,0,0,439.44,165a5.923,5.923,0,0,0-4.184-4.012c-1.43-.413-.88-.638-1.322-2.038a5.131,5.131,0,0,0-6.519-3.364,4.946,4.946,0,0,0-3.535-3.8,4.89,4.89,0,0,0-2.5-.1c-.587.153-1.795.7-2.015,1.259-.744-.732-.985-1.7-1.9-2.365a5.366,5.366,0,0,0-7.9,1.69,6.592,6.592,0,0,0-4.944-2.079,5.4,5.4,0,0,0-4.506,2.752,4.59,4.59,0,0,0,.607,5.146,5.264,5.264,0,0,0-2.734,2.366,3.314,3.314,0,0,0,.385,3.694,2.862,2.862,0,0,0,1.382,1.029A4.176,4.176,0,0,0,400.428,165.338Z" transform="translate(-397.604 -149.516)"/><g transform="translate(11.16 25.494)"><path class="g" d="M410.021,177.329l.13-4.916a2.459,2.459,0,0,0-.13,4.916Z" transform="translate(-407.627 -172.412)"/></g></g></g></g></g></svg>