<svg xmlns="http://www.w3.org/2000/svg" viewBox="0 0 500 461.64"><defs><style>.cls-1{fill:#f5f5f5;}.cls-2{fill:#e6e6e6;}.cls-3{fill:#37474f;}.cls-4{fill:#455a64;}.cls-23,.cls-35,.cls-5{fill:#27debf;}.cls-18,.cls-19,.cls-23,.cls-6{opacity:0.6;}.cls-15,.cls-16,.cls-7{opacity:0.5;}.cls-8{fill:#03a84e;}.cls-30,.cls-9{opacity:0.4;}.cls-10{opacity:0.15;}.cls-11,.cls-17{fill:#263238;}.cls-12{fill:#e0e0e0;}.cls-13{fill:#ebebeb;}.cls-14,.cls-15,.cls-18,.cls-20,.cls-34{fill:#fff;}.cls-17,.cls-22{opacity:0.9;}.cls-20,.cls-21{opacity:0.8;}.cls-24{opacity:0.7;}.cls-25,.cls-36{opacity:0.3;}.cls-26{opacity:0.25;}.cls-27,.cls-35{opacity:0.1;}.cls-28{fill:#ffa8a7;}.cls-29{fill:#fafafa;}.cls-31{fill:#f28f8f;}.cls-32,.cls-33{fill:none;stroke:#263238;stroke-miterlimit:10;}.cls-32{stroke-width:1.21px;}.cls-33{stroke-width:1.03px;}.cls-34{opacity:0.75;}.cls-37{opacity:0.2;}.cls-38{fill:#f0f0f0;}</style></defs><g id="Calque_2" data-name="Calque 2"><g id="Floor"><ellipse id="Floor-2" data-name="Floor" class="cls-1" cx="250" cy="337.49" rx="250" ry="124.15"></ellipse></g><g id="Shadows"><path id="Shadow" class="cls-2" d="M475,318.27,335.67,390.48a4.62,4.62,0,0,1-3.75,0L131,286.43c-1-.54-1-1.41,0-1.94l139.36-72.21a4.6,4.6,0,0,1,3.74,0L475,316.33C476.06,316.87,476.06,317.74,475,318.27Z"></path><ellipse id="Shadow-2" data-name="Shadow" class="cls-2" cx="151.18" cy="387.52" rx="83.71" ry="43.35"></ellipse><ellipse id="Shadow-3" data-name="Shadow" class="cls-2" cx="253.11" cy="337.26" rx="65.89" ry="34.12"></ellipse><ellipse id="Shadow-4" data-name="Shadow" class="cls-2" cx="399.66" cy="382.99" rx="41.36" ry="21.42"></ellipse></g><g id="Desk"><g id="Desk-2" data-name="Desk"><g id="Table"><path class="cls-3" d="M338.71,261.49V372.43a2.42,2.42,0,0,1-1.25,1.94l-2.66,1.38a3.08,3.08,0,0,1-2.49,0l-2.66-1.38a2.42,2.42,0,0,1-1.25-1.94V261.49c0-.71.56-1,1.25-.65l2.66,1.38a3.08,3.08,0,0,0,2.49,0l2.66-1.38C338.15,260.49,338.71,260.78,338.71,261.49Z"></path><path class="cls-4" d="M332.31,375.75l-2.66-1.38a2.42,2.42,0,0,1-1.25-1.94V261.49c0-.71.56-1,1.25-.65l2.66,1.38a2.41,2.41,0,0,1,1.24,1.94V375.1C333.55,375.81,333,376.1,332.31,375.75Z"></path><path class="cls-3" d="M451.89,202.85V313.79a2.45,2.45,0,0,1-1.25,1.94L448,317.1a3,3,0,0,1-2.49,0l-2.66-1.37a2.44,2.44,0,0,1-1.24-1.94V202.85c0-.72.55-1,1.24-.65l2.66,1.37a3,3,0,0,0,2.49,0l2.66-1.37C451.33,201.84,451.89,202.13,451.89,202.85Z"></path><path class="cls-4" d="M445.49,317.1l-2.66-1.37a2.44,2.44,0,0,1-1.24-1.94V202.85c0-.72.55-1,1.24-.65l2.66,1.37a2.45,2.45,0,0,1,1.25,1.94v111C446.74,317.17,446.18,317.46,445.49,317.1Z"></path><path class="cls-3" d="M186.28,182.6V293.54a2.43,2.43,0,0,1-1.25,1.94l-2.65,1.37a3,3,0,0,1-2.5,0l-2.65-1.37a2.43,2.43,0,0,1-1.25-1.94V182.6c0-.72.56-1,1.25-.65l2.65,1.38a3.11,3.11,0,0,0,2.5,0L185,182C185.72,181.59,186.28,181.88,186.28,182.6Z"></path><path class="cls-4" d="M179.88,296.85l-2.65-1.37a2.43,2.43,0,0,1-1.25-1.94V182.6c0-.72.56-1,1.25-.65l2.65,1.38a2.42,2.42,0,0,1,1.25,1.93v111C181.13,296.92,180.57,297.21,179.88,296.85Z"></path><path class="cls-5" d="M476.51,210.74v-.81a4.42,4.42,0,0,0-2.27-3.53L274.65,103.14a5.53,5.53,0,0,0-4.54,0L147.32,166.75a4.45,4.45,0,0,0-2.27,3.53v.81a4.45,4.45,0,0,0,2.27,3.53L346.91,277.87a5.55,5.55,0,0,0,4.55,0l122.78-63.6A4.42,4.42,0,0,0,476.51,210.74Z"></path><path class="cls-6" d="M476.51,210.74v-.81a4.42,4.42,0,0,0-2.27-3.53L274.65,103.14a5.53,5.53,0,0,0-4.54,0L147.32,166.75a4.45,4.45,0,0,0-2.27,3.53v.81a4.45,4.45,0,0,0,2.27,3.53L346.91,277.87a5.55,5.55,0,0,0,4.55,0l122.78-63.6A4.42,4.42,0,0,0,476.51,210.74Z"></path><path class="cls-5" d="M349.18,272.84v5.52a5.31,5.31,0,0,0,2.28-.48l122.78-63.61a4.44,4.44,0,0,0,2.27-3.53v-.81a4.39,4.39,0,0,0-1.85-3.27c.82.63.68,1.51-.42,2.09L351.46,272.36A5,5,0,0,1,349.18,272.84Z"></path><path class="cls-7" d="M349.18,272.84v5.52a5.31,5.31,0,0,0,2.28-.48l122.78-63.61a4.44,4.44,0,0,0,2.27-3.53v-.81a4.39,4.39,0,0,0-1.85-3.27c.82.63.68,1.51-.42,2.09L351.46,272.36A5,5,0,0,1,349.18,272.84Z"></path><path class="cls-8" d="M474.24,208.75l-122.78,63.6a5.55,5.55,0,0,1-4.55,0L147.32,169.1c-1.25-.65-1.25-1.7,0-2.35l122.79-63.61a5.53,5.53,0,0,1,4.54,0L474.24,206.4C475.5,207.05,475.5,208.1,474.24,208.75Z"></path><path class="cls-9" d="M474.24,208.75l-122.78,63.6a5.55,5.55,0,0,1-4.55,0L147.32,169.1c-1.25-.65-1.25-1.7,0-2.35l122.79-63.61a5.53,5.53,0,0,1,4.54,0L474.24,206.4C475.5,207.05,475.5,208.1,474.24,208.75Z"></path></g><g id="Keyboard"><path id="Shadow-5" data-name="Shadow" class="cls-10" d="M334.1,207.36,305,222.47a3.94,3.94,0,0,1-3.26,0L215.8,178c-.9-.47-.9-1.23,0-1.69l29.09-15.11a3.94,3.94,0,0,1,3.26,0l86,44.44C335,206.14,335,206.89,334.1,207.36Z"></path><g id="Keyboard-2" data-name="Keyboard"><path class="cls-11" d="M217.57,173.66c0-.31.22-.61.67-.85l27.33-14.15a4,4,0,0,1,3.26,0l83.4,43.25a1,1,0,0,1,.67.84v2.57c0,.31-.22.62-.68.85l-27.31,14.15a4,4,0,0,1-3.26,0l-83.41-43.18a1,1,0,0,1-.67-.84C217.56,176,217.57,174,217.57,173.66Z"></path><path class="cls-3" d="M304.91,217.69l27.31-14.08c.9-.47.91-1.22,0-1.69l-83.4-43.25a4,4,0,0,0-3.26,0l-27.33,14.15c-.9.47-.9,1.23,0,1.69l83.41,43.19A4,4,0,0,0,304.91,217.69Z"></path><path class="cls-11" d="M303.38,218v2.63a3.7,3.7,0,0,0,1.53-.34l27.31-14.15c.45-.24.68-.54.68-.84v-2.58c0,.3-.23.61-.68.84l-27.31,14.1A3.7,3.7,0,0,1,303.38,218Z"></path><path class="cls-5" d="M222.63,173.85s0,0,0,0l2.7-1.4,3.67,1.9-2.72,1.44-3.67-1.89Zm4.23-2.2s0,0,0,0l2.71-1.4,2.88,1.5-2.73,1.44-2.87-1.49Zm.89,4.85,0,0,2.71-1.4,2.88,1.49L230.64,178l-2.88-1.49Zm3.35-7s0,0,0,0l2.7-1.4,4.65,2.41-2.72,1.45-4.65-2.41Zm.1,4.44s0,0,0,0l2.7-1.4,2.29,1.18-2.72,1.45-2.29-1.18Zm.89,4.85s0,0,0,0l2.71-1.4,2.88,1.49L235,180.26l-2.87-1.49Zm2.85-2.91,0,0,2.7-1.4L240,175.6,237.24,177,235,175.86Zm.39-8.57s0,0,0,0l2.7-1.4,3.67,1.9L239,169.19l-3.66-1.9Zm1.1,13.73a.05.05,0,0,1,0,0l2.7-1.4L260,190.35l-2.73,1.44L236.43,181Zm.78-8.37s0,0,0,0l2.7-1.4,2.29,1.18-2.72,1.45-2.29-1.18Zm1.48,5.15a0,0,0,0,1,0,0l2.71-1.4,2.29,1.19L241,179l-2.28-1.18Zm.88-12.7a.05.05,0,0,1,0,0l2.7-1.4,2.29,1.19-2.72,1.45-2.29-1.18Zm.89,4.84,0,0,2.7-1.4,2.29,1.19-2.72,1.45-2.29-1.19Zm.5,4.65s0,0,0,0l2.7-1.4,2.29,1.18-2.73,1.45L241,174.59Zm1.48,5.15s0,0,0,0l2.7-1.4,2.29,1.19-2.72,1.44-2.29-1.18Zm.87-12.7s0,0,0,0l2.71-1.39,2.28,1.18-2.72,1.45L243.32,167Zm.89,4.84s0,0,0,0l2.71-1.4,2.29,1.19-2.73,1.45-2.28-1.19Zm.5,4.65a0,0,0,0,1,0,0l2.71-1.4,2.28,1.18L247,177.71l-2.28-1.18Zm0-14.09s0,0,0,0l2.71-1.4,2.88,1.5-2.72,1.44-2.88-1.49Zm1.49,19.24s0,0,0,0l2.7-1.4,2.29,1.19-2.72,1.44-2.29-1.18Zm.87-12.7a.05.05,0,0,1,0,0l2.7-1.39,2.29,1.18-2.72,1.45L247.06,169Zm.89,4.85a.05.05,0,0,1,0,0l2.7-1.4,2.29,1.19L250.24,175,248,173.82Zm.5,4.64s0,0,0,0l2.7-1.4,2.29,1.18-2.72,1.45-2.29-1.18Zm1.48,5.15a0,0,0,0,1,0,0l2.71-1.4,2.28,1.19-2.72,1.44-2.28-1.18Zm.74-18.09s0,0,0,0l2.71-1.41,2.29,1.19L253,166.71l-2.28-1.19Zm.13,5.39s0,0,0,0l2.71-1.4,2.29,1.19-2.73,1.45-2.28-1.19Zm.9,4.84s0,0,0,0l2.7-1.4,2.29,1.19L254,177l-2.29-1.19Zm.49,4.65a0,0,0,0,1,0,0l2.71-1.4,2.29,1.18-2.73,1.45-2.28-1.18Zm1.49,5.15s0,0,0,0l2.7-1.4,2.29,1.19L256,186.74l-2.29-1.18Zm.74-18.09a.05.05,0,0,1,0,0l2.7-1.4,2.29,1.19-2.72,1.45-2.29-1.19Zm.13,5.39s0,0,0,0l2.71-1.4,2.28,1.18L256.84,174l-2.28-1.18Zm.89,4.85s0,0,0,0l2.71-1.4,2.29,1.19-2.73,1.45-2.28-1.19Zm.5,4.64s0,0,0,0l2.71-1.4,2.28,1.18-2.72,1.45L256,182.35Zm1.49,5.15s0,0,0,0l2.7-1.4,2.29,1.19-2.72,1.44-2.29-1.18Zm.73-18.09s0,0,0,0l2.71-1.4,2.29,1.19-2.72,1.45-2.29-1.19Zm.14,5.39a.05.05,0,0,1,0,0l2.7-1.39,2.29,1.18L260.59,176l-2.29-1.18Zm.41,17.75s0,0,0,0l2.71-1.4,2.88,1.49L261.59,194l-2.87-1.49Zm.48-12.91,0,0,2.7-1.4,2.29,1.19-2.72,1.45-2.29-1.19Zm.5,4.65s0,0,0,0l2.7-1.4L264.7,184,262,185.47l-2.29-1.18Zm1.48,5.15a0,0,0,0,1,0,0l2.71-1.4,2.28,1.19-2.72,1.44-2.28-1.18Zm.74-18.09s0,0,0,0l2.7-1.41,2.29,1.19-2.72,1.45-2.28-1.19Zm.13,5.39s0,0,0,0l2.71-1.4,2.29,1.19-2.73,1.45-2.28-1.19Zm.9,4.84,0,0,2.7-1.4,2.29,1.19-2.72,1.45-2.29-1.19Zm.11,13.22s0,0,0,0l2.7-1.4,2.88,1.49-2.72,1.45-2.87-1.49Zm.38-8.57a0,0,0,0,1,0,0l2.71-1.4,2.29,1.18-2.73,1.45-2.28-1.18Zm1.49,5.15s0,0,0,0l2.7-1.4,2.29,1.19-2.72,1.44-2.29-1.18Zm.87-12.7s0,0,0,0l2.7-1.4,2.29,1.18-2.72,1.45-2.28-1.18Zm.89,4.84,0,0,2.71-1.4,2.28,1.19L269,184.71l-2.28-1.19Zm.5,4.65s0,0,0,0l2.71-1.4,2.28,1.18-2.72,1.45-2.28-1.18Zm.11-14s0,0,0,0l2.7-1.4,2.29,1.18-2.72,1.45-2.29-1.18Zm.1,22.92a.05.05,0,0,1,0,0l2.7-1.4,2.88,1.5-2.72,1.44L267.39,197Zm1.27-3.73a0,0,0,0,1,0,0l2.71-1.4,2.29,1.19L271,194.5l-2.28-1.18Zm.88-12.7a.05.05,0,0,1,0,0l2.7-1.39,2.29,1.18-2.72,1.45-2.29-1.19Zm.89,4.84,0,0,2.7-1.4,2.29,1.19-2.72,1.45-2.29-1.19Zm.5,4.65s0,0,0,0l2.7-1.4,2.29,1.18-2.72,1.45-2.29-1.18Zm.1-14a0,0,0,0,1,0,0l2.71-1.4,2.29,1.18-2.73,1.45L271,176.07Zm.7,23.22s0,0,0,0l2.7-1.4,3.67,1.9-2.72,1.45-3.67-1.9Zm.68-4s0,0,0,0l2.71-1.4,7.21,3.74L279.63,199l-7.21-3.74Zm.87-12.7s0,0,0,0l2.71-1.4,2.29,1.19-2.73,1.45-2.28-1.19Zm.9,4.84s0,0,0,0l2.71-1.4,2.29,1.19-2.72,1.45-2.29-1.19Zm.49,4.65a0,0,0,0,1,0,0l2.71-1.4,2.29,1.18L277,193.23l-2.28-1.18Zm.11-14s0,0,0,0l2.7-1.4,2.29,1.18-2.72,1.45L274.78,178Zm2.25,6.49a.05.05,0,0,1,0,0l2.7-1.4,2.29,1.19-2.72,1.45L277,184.5Zm.61,17.86s0,0,0,0l2.71-1.41,2.28,1.19-2.72,1.45-2.28-1.19Zm.28-13,0,0,2.71-1.4,2.28,1.19-2.72,1.45-2.28-1.19Zm.5,4.65s0,0,0,0l2.7-1.4,2.1,1.08a1.89,1.89,0,0,0,1.35,0l3.55-1.84,2.68,1.39-6.95,3.64L278.43,194Zm.11-14s0,0,0,0l2.7-1.4,2.29,1.18-2.72,1.45L278.53,180Zm2.25,6.49a0,0,0,0,1,0,0l2.71-1.4,2.29,1.18-2.72,1.45-2.29-1.19Zm.61,17.86a.05.05,0,0,1,0,0l2.7-1.4L286.4,204l-2.72,1.45-2.29-1.19Zm.28-13,0,0,2.7-1.4,2.29,1.19L284,192.47l-2.29-1.19Zm2.23-8.55s0,0,0,0l2.71-1.4,2.29,1.19-2.73,1.45-2.28-1.19Zm.62,5.65a.05.05,0,0,1,0,0l2.7-1.39,2.3,1.18-2.73,1.45-2.28-1.19Zm.61,17.86s0,0,0,0l2.71-1.4,2.29,1.19-2.73,1.45-2.28-1.19Zm.49-4.14s0,0,0,0l2.71-1.4,2.28,1.19-2.72,1.44-2.28-1.18Zm2-17.43s0,0,0,0l2.7-1.4,2.29,1.19-2.72,1.45-2.29-1.19Zm.62,5.65a.05.05,0,0,1,0,0l2.7-1.39,4.07,2.1-2.73,1.45-4.06-2.11Zm1.4,18.26,0,0,2.7-1.4,6,3.13-2.72,1.45-6-3.13Zm.67-12.8s0,0,0,0l2.71-1.4,2.29,1.19L292.64,197l-2.29-1.18Zm1.06-9.17,0,0,2.7-1.4,2.29,1.19-2.72,1.45-2.29-1.19Zm2.5,19.78a0,0,0,0,1,0,0l2.71-1.4,2.29,1.18-2.72,1.45-2.29-1.18Zm.19-8.67a.05.05,0,0,1,0,0l2.7-1.39,2.29,1.18-2.72,1.45-2.29-1.18Zm.49-4.14,0,0,2.7-1.4,2.29,1.19-2.72,1.45-2.29-1.19Zm.56-5,0,0,2.71-1.4,2.28,1.19-2.72,1.45-2.28-1.19Zm2,23.91s0,0,0,0l2.71-1.4,2.29,1.19-2.73,1.45-2.28-1.19Zm.49-4.13s0,0,0,0l2.7-1.4,2.29,1.18-2.72,1.45-2.29-1.18Zm.19-8.67a.05.05,0,0,1,0,0l2.7-1.4,2.29,1.19-2.72,1.45-2.29-1.18Zm.3,4.54s0,0,0,0l2.7-1.4,2.29,1.18-2.72,1.45-2.29-1.18Zm.19-8.68v0l2.71-1.4,2.29,1.19-2.72,1.45-2.29-1.19Zm1.39-4.6s0,0,0,0l2.7-1.4,2.29,1.19L302,192.11l-2.29-1.19Zm1.19,23.48,0,0,6.94-3.59,2.29,1.18-7,3.65-2.29-1.19Zm.49-4.13s0,0,0,0l2.7-1.4,2.29,1.18-2.72,1.45-2.29-1.18Zm.48-4.13a0,0,0,0,1,0,0l2.71-1.4,2.29,1.18-2.72,1.45-2.29-1.18Zm.19-8.68,0,0,2.7-1.4,2.3,1.19-2.73,1.45-2.28-1.19Zm.3,4.55s0,0,0,0l2.71-1.41,2.28,1.19-2.72,1.45L302.38,202Zm1.09-9.15,0,0,2.71-1.4,2.29,1.19-2.73,1.45-2.28-1.19Zm2.17,15.22s0,0,0,0l2.7-1.4,2.29,1.18-2.72,1.45-2.28-1.18Zm.49-4.13s0,0,0,0l2.7-1.41,2.29,1.19-2.72,1.45-2.29-1.19Zm.49-4.14v0l2.71-1.4,2.29,1.19L308.9,201l-2.29-1.18Zm.6-5,0,0,2.7-1.4,2.29,1.19L309.5,196l-2.29-1.19ZM309.38,210s0,0,0,0l6.94-3.6,2.28,1.19-6.95,3.64L309.38,210Zm.48-4.13a0,0,0,0,1,0,0l2.71-1.41,2.29,1.19-2.73,1.45-2.28-1.19Zm.49-4.14,0,0,2.71-1.4,2.29,1.19-2.73,1.44-2.28-1.18Zm2.48-5.16a0,0,0,0,1,0,0l1.15-.61,2.29,1.18-1.17.66-2.28-1.18Zm1.27,7.1s0,0,0,0l2.7-1.4,2.29,1.19-2.72,1.44-2.29-1.18Zm2.48-5.16s0,0,0,0l1.15-.61,2.29,1.18-1.18.66-2.28-1.18Zm1.26,7.1s0,0,0,0l2.71-1.4,2.29,1.19-2.72,1.44-2.29-1.18Zm2.49-5.16s0,0,0,0l1.14-.61,2.29,1.18-1.17.66-2.28-1.18Zm3.74,1.94a0,0,0,0,1,0,0l1.15-.61,2.29,1.18-1.18.66-2.27-1.18Z"></path></g></g><g id="Device"><polygon id="Shadow-6" data-name="Shadow" class="cls-10" points="401.32 210.29 426.91 197.04 298.96 130.78 273.37 144.03 401.32 210.29"></polygon><g id="Monitor"><path class="cls-2" d="M328.86,188.72l-18.27-9.47c-1.88-1-2.82-2.26-2.82-3.53s0-2.28,0-2.28L325,164.68a3.53,3.53,0,0,0,1.82-2.82v-20.2l31.91,16.53V178.4a3.54,3.54,0,0,1-1.81,2.82l-14.37,7.5A16.63,16.63,0,0,1,328.86,188.72Z"></path><path class="cls-12" d="M351,182v2.27l5.85-3a3.55,3.55,0,0,0,1.82-2.82V158.2l-6.08-3.15c-.13,1.38-.27,2.82-.39,4.21l4.26,2.21v15.79a3.54,3.54,0,0,1-1.81,2.82Z"></path><path class="cls-1" d="M356.48,177.26a3.55,3.55,0,0,1-1.82,2.83l-12.15,6.35a16.63,16.63,0,0,1-13.64,0L310.59,177c-3.77-1.95-3.77-5.11,0-7.06l12.16-6.36a3.55,3.55,0,0,0,1.82-2.83V144.93l31.91,16.54Z"></path><path class="cls-13" d="M319.05,165.47h0l3.7-1.91a3.55,3.55,0,0,0,1.82-2.83V144.93l31.91,16.54v15.79a3.55,3.55,0,0,1-1.82,2.83L351,182Z"></path><path class="cls-13" d="M307.76,173.44v2.28c0,1.28.95,2.55,2.83,3.53l18.27,9.47a15,15,0,0,0,6.51,1.45V187.9a15,15,0,0,1-6.51-1.45L310.59,177C308.71,176,307.76,174.72,307.76,173.44Z"></path><path class="cls-4" d="M407.72,199.06a5.39,5.39,0,0,1-4.41-.08L279.9,135.08a4.45,4.45,0,0,1-2.27-3.53V34.66a4.31,4.31,0,0,1,2.13-3.46,5.39,5.39,0,0,1,4.41.08l123.41,63.9a4.45,4.45,0,0,1,2.27,3.53V195.6A4.28,4.28,0,0,1,407.72,199.06Z"></path><path class="cls-3" d="M403.31,199,279.9,135.08a4.46,4.46,0,0,1-2.27-3.54V34.66c0-1.3,1-1.83,2.27-1.18L403.31,97.39a4.43,4.43,0,0,1,2.28,3.53V197.8C405.59,199.1,404.57,199.63,403.31,199Z"></path><path class="cls-12" d="M403.65,199.38a5.44,5.44,0,0,0,4.07-.07,4.29,4.29,0,0,0,2.13-3.47V185l-4.26,2.21v10.9A1.31,1.31,0,0,1,403.65,199.38Z"></path><path class="cls-14" d="M405.59,187.16v10.89c0,1.3-1,1.83-2.28,1.18L279.9,135.33a4.46,4.46,0,0,1-2.27-3.54V120.9Z"></path><path class="cls-5" d="M401.32,178.87V102.19a2.67,2.67,0,0,0-1.36-2.12L283.26,39.64c-.75-.39-1.36-.07-1.36.71V117a2.66,2.66,0,0,0,1.37,2.12L400,179.57C400.71,180,401.32,179.65,401.32,178.87Z"></path><path class="cls-15" d="M401.32,178.87V102.19a2.67,2.67,0,0,0-1.36-2.12L283.26,39.64c-.75-.39-1.36-.07-1.36.71V117a2.66,2.66,0,0,0,1.37,2.12L400,179.57C400.71,180,401.32,179.65,401.32,178.87Z"></path><path class="cls-4" d="M341.61,158.19a4.17,4.17,0,0,1,2.13,3.32c0,1.22-.95,1.71-2.13,1.1a4.15,4.15,0,0,1-2.13-3.31C339.48,158.08,340.43,157.58,341.61,158.19Z"></path><path class="cls-11" d="M404.92,98.9a4,4,0,0,1,.67,2v86.24l4.26-2.21V98.71a3.88,3.88,0,0,0-.67-2Z"></path></g></g><g id="Window"><g id="Window-2" data-name="Window"><path class="cls-4" d="M297.82,14.66a1,1,0,0,1,0-.18s0,0,0,0a.34.34,0,0,1,.05-.17A.72.72,0,0,1,298,14a.76.76,0,0,1,.08-.11s0-.05.06-.07a.53.53,0,0,1,.14-.12l0,0a.61.61,0,0,1,.18-.09,1.76,1.76,0,0,1,1.47.16L444,88.32a4.26,4.26,0,0,1,2.18,3.38v93.94a1.31,1.31,0,0,1-.78,1.17l-.09.05-.12.06a.55.55,0,0,1-.18.06,1.33,1.33,0,0,1-.28,0,1.56,1.56,0,0,1-.72-.18l-.06,0h0l-2.08-1.08L300,112.25a4.25,4.25,0,0,1-2.18-3.38v-94C297.81,14.82,297.82,14.73,297.82,14.66Z"></path><path class="cls-5" d="M298.52,13.61a1.76,1.76,0,0,1,1.47.16L444,88.32a4.26,4.26,0,0,1,2.18,3.38v6.38L449,96.62V90.29a4.23,4.23,0,0,0-2.17-3.38l-144-74.55a1.66,1.66,0,0,0-1.57-.11C300.79,12.46,299,13.39,298.52,13.61Z"></path><path class="cls-5" d="M297.81,14.89c0-1.23,1-1.73,2.18-1.11L444,88.32a4.26,4.26,0,0,1,2.18,3.38v6.38L297.81,21.29Z"></path><g class="cls-16"><path class="cls-14" d="M300,13.78,444,88.32a4.23,4.23,0,0,1,1.53,1.45l2.76-1.44a4.09,4.09,0,0,0-1.51-1.42l-144-74.55a1.68,1.68,0,0,0-1.58-.11c-.39.21-2.2,1.13-2.66,1.35A1.76,1.76,0,0,1,300,13.78Z"></path></g><path class="cls-10" d="M449,96.63V90.28a3.69,3.69,0,0,0-.67-2l-2.77,1.43a3.63,3.63,0,0,1,.65,1.94v6.38Z"></path><path class="cls-4" d="M441.28,89.67A2.8,2.8,0,0,1,442.51,92c0,.94-.55,1.41-1.23,1.06a2.8,2.8,0,0,1-1.23-2.33C440.05,89.79,440.6,89.32,441.28,89.67Z"></path><path class="cls-4" d="M436.85,87.37a2.81,2.81,0,0,1,1.23,2.34c0,.93-.55,1.41-1.23,1.06a2.81,2.81,0,0,1-1.23-2.34C435.62,87.5,436.17,87,436.85,87.37Z"></path><path class="cls-4" d="M432.43,85.08a2.8,2.8,0,0,1,1.23,2.33c0,.94-.55,1.41-1.23,1.06a2.8,2.8,0,0,1-1.23-2.33C431.2,85.2,431.75,84.73,432.43,85.08Z"></path><path class="cls-17" d="M445.4,186.82l.12-.06,2.29-1.19a2.09,2.09,0,0,0,1.14-1.51,2.83,2.83,0,0,0,0-.29V96.62l-2.78,1.46v87.55a1.26,1.26,0,0,1-.68,1.11l-.07,0a0,0,0,0,0,0,0Z"></path></g><g id="Code"><path class="cls-5" d="M341.93,54.56l30.36,15.7a1.46,1.46,0,0,1,.78,1.15c0,.41-.35.57-.78.35L341.93,56.07a1.49,1.49,0,0,1-.78-1.16C341.15,54.5,341.5,54.34,341.93,54.56Z"></path><path class="cls-2" d="M353.53,84.6,365,90.54a1.46,1.46,0,0,1,.77,1.15c0,.42-.34.58-.77.35l-11.51-5.93a1.46,1.46,0,0,1-.77-1.15C352.76,84.54,353.1,84.38,353.53,84.6Z"></path><path class="cls-2" d="M353.53,90.61,365,96.55a1.46,1.46,0,0,1,.77,1.15c0,.42-.34.57-.77.35l-11.51-5.93a1.48,1.48,0,0,1-.77-1.16C352.76,90.55,353.1,90.39,353.53,90.61Z"></path><path class="cls-5" d="M375.29,71.81l60.79,31.4a1.46,1.46,0,0,1,.77,1.15c0,.42-.34.57-.77.35l-60.79-31.4a1.46,1.46,0,0,1-.77-1.15C374.52,71.74,374.86,71.59,375.29,71.81Z"></path><path class="cls-5" d="M353.78,126.74l18.51,9.6a1.48,1.48,0,0,1,.78,1.15c0,.42-.35.58-.78.36l-18.51-9.61a1.46,1.46,0,0,1-.77-1.15C353,126.67,353.35,126.52,353.78,126.74Z"></path><path class="cls-5" d="M375.29,137.89l60.79,31.44a1.48,1.48,0,0,1,.77,1.16c0,.41-.34.57-.77.35L375.29,139.4a1.46,1.46,0,0,1-.77-1.16C374.52,137.83,374.86,137.67,375.29,137.89Z"></path><path class="cls-5" d="M341.93,60.59l15.29,7.88a1.46,1.46,0,0,1,.78,1.15c0,.41-.35.57-.78.35l-15.29-7.88a1.48,1.48,0,0,1-.78-1.15C341.15,60.52,341.5,60.36,341.93,60.59Z"></path><path class="cls-18" d="M341.93,60.59l15.29,7.88a1.46,1.46,0,0,1,.78,1.15c0,.41-.35.57-.78.35l-15.29-7.88a1.48,1.48,0,0,1-.78-1.15C341.15,60.52,341.5,60.36,341.93,60.59Z"></path><path class="cls-5" d="M341.93,66.58l7.15,3.7a1.48,1.48,0,0,1,.78,1.16c0,.41-.35.57-.78.35l-7.15-3.71a1.46,1.46,0,0,1-.78-1.15C341.15,66.52,341.5,66.36,341.93,66.58Z"></path><path class="cls-18" d="M341.93,66.58l7.15,3.7a1.48,1.48,0,0,1,.78,1.16c0,.41-.35.57-.78.35l-7.15-3.71a1.46,1.46,0,0,1-.78-1.15C341.15,66.52,341.5,66.36,341.93,66.58Z"></path><path class="cls-5" d="M341.93,78.6l7.15,3.7a1.48,1.48,0,0,1,.78,1.15c0,.42-.35.57-.78.35l-7.15-3.7a1.48,1.48,0,0,1-.78-1.15C341.15,78.53,341.5,78.38,341.93,78.6Z"></path><path class="cls-18" d="M341.93,78.6l7.15,3.7a1.48,1.48,0,0,1,.78,1.15c0,.42-.35.57-.78.35l-7.15-3.7a1.48,1.48,0,0,1-.78-1.15C341.15,78.53,341.5,78.38,341.93,78.6Z"></path><path class="cls-5" d="M341.93,84.61l7.15,3.7a1.46,1.46,0,0,1,.78,1.15c0,.41-.35.57-.78.35l-7.15-3.7a1.48,1.48,0,0,1-.78-1.15C341.15,84.54,341.5,84.39,341.93,84.61Z"></path><path class="cls-18" d="M341.93,84.61l7.15,3.7a1.46,1.46,0,0,1,.78,1.15c0,.41-.35.57-.78.35l-7.15-3.7a1.48,1.48,0,0,1-.78-1.15C341.15,84.54,341.5,84.39,341.93,84.61Z"></path><path class="cls-5" d="M360.22,70l9.17,4.76a1.48,1.48,0,0,1,.77,1.16c0,.41-.34.57-.77.35l-9.17-4.77a1.46,1.46,0,0,1-.77-1.15C359.45,70,359.79,69.8,360.22,70Z"></path><path class="cls-18" d="M360.22,70l9.17,4.76a1.48,1.48,0,0,1,.77,1.16c0,.41-.34.57-.77.35l-9.17-4.77a1.46,1.46,0,0,1-.77-1.15C359.45,70,359.79,69.8,360.22,70Z"></path><path class="cls-14" d="M374.4,113.45l61.68,31.85a1.46,1.46,0,0,1,.77,1.15c0,.42-.34.58-.77.36L374.4,115a1.5,1.5,0,0,1-.77-1.16C373.63,113.39,374,113.23,374.4,113.45Z"></path><path class="cls-14" d="M426.91,134.52l9.17,4.77a1.45,1.45,0,0,1,.77,1.15c0,.41-.34.57-.77.35L426.91,136a1.46,1.46,0,0,1-.78-1.15C426.13,134.46,426.48,134.3,426.91,134.52Z"></path><path class="cls-14" d="M362.23,101.12,423.91,133a1.46,1.46,0,0,1,.77,1.15c0,.42-.34.57-.77.35l-61.68-31.85a1.47,1.47,0,0,1-.77-1.15C361.46,101.06,361.81,100.9,362.23,101.12Z"></path><path class="cls-5" d="M353.53,72.59l15.3,7.88a1.49,1.49,0,0,1,.77,1.15c0,.42-.35.58-.77.36l-15.3-7.89a1.45,1.45,0,0,1-.77-1.15C352.76,72.53,353.1,72.37,353.53,72.59Z"></path><path class="cls-18" d="M353.53,72.59l15.3,7.88a1.49,1.49,0,0,1,.77,1.15c0,.42-.35.58-.77.36l-15.3-7.89a1.45,1.45,0,0,1-.77-1.15C352.76,72.53,353.1,72.37,353.53,72.59Z"></path><path class="cls-5" d="M371.82,82l63.8,33.11a1.48,1.48,0,0,1,.78,1.15c0,.42-.35.57-.78.35l-63.8-33.1a1.46,1.46,0,0,1-.77-1.15C371.05,82,371.39,81.8,371.82,82Z"></path><path class="cls-18" d="M371.82,82l63.8,33.11a1.48,1.48,0,0,1,.78,1.15c0,.42-.35.57-.78.35l-63.8-33.1a1.46,1.46,0,0,1-.77-1.15C371.05,82,371.39,81.8,371.82,82Z"></path><path class="cls-2" d="M353.53,108.76l82.55,42.7a1.45,1.45,0,0,1,.77,1.15c0,.41-.34.57-.77.35l-82.55-42.7a1.45,1.45,0,0,1-.77-1.15C352.76,108.7,353.1,108.54,353.53,108.76Z"></path><path class="cls-5" d="M341.93,102.76l7.15,3.7a1.46,1.46,0,0,1,.78,1.15c0,.41-.35.57-.78.35l-7.15-3.7a1.48,1.48,0,0,1-.78-1.15C341.15,102.69,341.5,102.53,341.93,102.76Z"></path><path class="cls-18" d="M341.93,102.76l7.15,3.7a1.46,1.46,0,0,1,.78,1.15c0,.41-.35.57-.78.35l-7.15-3.7a1.48,1.48,0,0,1-.78-1.15C341.15,102.69,341.5,102.53,341.93,102.76Z"></path><path class="cls-2" d="M353.53,114.77l82.55,42.69a1.48,1.48,0,0,1,.77,1.16c0,.41-.34.57-.77.35l-82.55-42.7a1.46,1.46,0,0,1-.77-1.15C352.76,114.7,353.1,114.55,353.53,114.77Z"></path><path class="cls-5" d="M341.93,108.76l7.15,3.7a1.48,1.48,0,0,1,.78,1.15c0,.42-.35.58-.78.35l-7.15-3.7a1.46,1.46,0,0,1-.78-1.15C341.15,108.7,341.5,108.54,341.93,108.76Z"></path><path class="cls-18" d="M341.93,108.76l7.15,3.7a1.48,1.48,0,0,1,.78,1.15c0,.42-.35.58-.78.35l-7.15-3.7a1.46,1.46,0,0,1-.78-1.15C341.15,108.7,341.5,108.54,341.93,108.76Z"></path><path class="cls-2" d="M353.53,120.77l82.55,42.7a1.46,1.46,0,0,1,.77,1.15c0,.42-.34.57-.77.35l-82.55-42.69a1.48,1.48,0,0,1-.77-1.16C352.76,120.71,353.1,120.55,353.53,120.77Z"></path><path class="cls-5" d="M341.93,114.77l7.15,3.7a1.48,1.48,0,0,1,.78,1.15c0,.41-.35.57-.78.35l-7.15-3.7a1.48,1.48,0,0,1-.78-1.15C341.15,114.7,341.5,114.55,341.93,114.77Z"></path><path class="cls-18" d="M341.93,114.77l7.15,3.7a1.48,1.48,0,0,1,.78,1.15c0,.41-.35.57-.78.35l-7.15-3.7a1.48,1.48,0,0,1-.78-1.15C341.15,114.7,341.5,114.55,341.93,114.77Z"></path><g class="cls-19"><path class="cls-14" d="M330.77,48.54,335,50.72a1.49,1.49,0,0,1,.76,1.18v1.39c0,.44-.34.62-.76.4l-4.21-2.18a1.49,1.49,0,0,1-.76-1.19V48.94C330,48.5,330.35,48.32,330.77,48.54Z"></path><path class="cls-14" d="M330.77,54.6,335,56.78a1.49,1.49,0,0,1,.76,1.19v1.39c0,.43-.34.61-.76.39l-4.21-2.18a1.48,1.48,0,0,1-.76-1.18V55C330,54.56,330.35,54.39,330.77,54.6Z"></path><path class="cls-14" d="M330.77,60.67,335,62.85a1.49,1.49,0,0,1,.76,1.18v1.39c0,.44-.34.61-.76.4l-4.21-2.18a1.49,1.49,0,0,1-.76-1.19V61.06C330,60.63,330.35,60.45,330.77,60.67Z"></path><path class="cls-14" d="M330.77,66.73,335,68.91a1.49,1.49,0,0,1,.76,1.19v1.39c0,.43-.34.61-.76.39l-4.21-2.18a1.49,1.49,0,0,1-.76-1.18V67.13C330,66.69,330.35,66.52,330.77,66.73Z"></path><path class="cls-14" d="M330.77,72.8,335,75a1.48,1.48,0,0,1,.76,1.18v1.39c0,.44-.34.61-.76.4l-4.21-2.18a1.49,1.49,0,0,1-.76-1.19V73.19C330,72.76,330.35,72.58,330.77,72.8Z"></path><path class="cls-14" d="M330.77,78.86,335,81a1.49,1.49,0,0,1,.76,1.19v1.38c0,.44-.34.62-.76.4l-4.21-2.18a1.49,1.49,0,0,1-.76-1.18V79.26C330,78.82,330.35,78.64,330.77,78.86Z"></path><path class="cls-14" d="M330.77,84.93,335,87.11a1.48,1.48,0,0,1,.76,1.18v1.39c0,.44-.34.61-.76.4l-4.21-2.18a1.49,1.49,0,0,1-.76-1.19V85.32C330,84.89,330.35,84.71,330.77,84.93Z"></path><path class="cls-14" d="M330.77,91,335,93.17a1.49,1.49,0,0,1,.76,1.19v1.38c0,.44-.34.62-.76.4L330.77,94a1.49,1.49,0,0,1-.76-1.18V91.39C330,91,330.35,90.77,330.77,91Z"></path><path class="cls-14" d="M330.77,97.06,335,99.24a1.48,1.48,0,0,1,.76,1.18v1.39c0,.44-.34.61-.76.39L330.77,100a1.49,1.49,0,0,1-.76-1.19V97.45C330,97,330.35,96.84,330.77,97.06Z"></path><path class="cls-14" d="M330.77,103.12,335,105.3a1.49,1.49,0,0,1,.76,1.19v1.38c0,.44-.34.62-.76.4l-4.21-2.18a1.49,1.49,0,0,1-.76-1.19v-1.38C330,103.08,330.35,102.9,330.77,103.12Z"></path><path class="cls-14" d="M330.77,109.19l4.21,2.17a1.49,1.49,0,0,1,.76,1.19v1.39c0,.44-.34.61-.76.39l-4.21-2.17A1.49,1.49,0,0,1,330,111v-1.39C330,109.15,330.35,109,330.77,109.19Z"></path><path class="cls-14" d="M330.77,115.25l4.21,2.18a1.49,1.49,0,0,1,.76,1.19V120c0,.44-.34.62-.76.4l-4.21-2.18A1.49,1.49,0,0,1,330,117v-1.38C330,115.21,330.35,115,330.77,115.25Z"></path></g><path class="cls-3" d="M302.87,28.84l22.75,11.78A3,3,0,0,1,327.14,43V66.55c0,.87-.68,1.22-1.52.79L302.87,55.56a3,3,0,0,1-1.53-2.38V29.63C301.34,28.76,302,28.4,302.87,28.84Z"></path><path class="cls-5" d="M305,52.19l2.1,1.08a1.5,1.5,0,0,1,.77,1.16c0,.41-.35.57-.77.35L305,53.69a1.49,1.49,0,0,1-.77-1.15C304.21,52.12,304.56,52,305,52.19Z"></path><path class="cls-18" d="M305,52.19l2.1,1.08a1.5,1.5,0,0,1,.77,1.16c0,.41-.35.57-.77.35L305,53.69a1.49,1.49,0,0,1-.77-1.15C304.21,52.12,304.56,52,305,52.19Z"></path><path class="cls-5" d="M305,32.9l2.1,1.08a1.5,1.5,0,0,1,.77,1.16c0,.41-.35.57-.77.35L305,34.4a1.49,1.49,0,0,1-.77-1.15C304.21,32.83,304.56,32.68,305,32.9Z"></path><path class="cls-18" d="M305,32.9l2.1,1.08a1.5,1.5,0,0,1,.77,1.16c0,.41-.35.57-.77.35L305,34.4a1.49,1.49,0,0,1-.77-1.15C304.21,32.83,304.56,32.68,305,32.9Z"></path><path class="cls-5" d="M307.93,38.27,310,39.36a1.45,1.45,0,0,1,.77,1.15c0,.41-.34.57-.77.35l-2.09-1.09a1.46,1.46,0,0,1-.78-1.15C307.15,38.21,307.5,38.05,307.93,38.27Z"></path><path class="cls-18" d="M307.93,38.27,310,39.36a1.45,1.45,0,0,1,.77,1.15c0,.41-.34.57-.77.35l-2.09-1.09a1.46,1.46,0,0,1-.78-1.15C307.15,38.21,307.5,38.05,307.93,38.27Z"></path><path class="cls-5" d="M307.93,42.12,310,43.21a1.45,1.45,0,0,1,.77,1.15c0,.41-.34.57-.77.35l-2.09-1.09a1.46,1.46,0,0,1-.78-1.15C307.15,42.06,307.5,41.9,307.93,42.12Z"></path><path class="cls-18" d="M307.93,42.12,310,43.21a1.45,1.45,0,0,1,.77,1.15c0,.41-.34.57-.77.35l-2.09-1.09a1.46,1.46,0,0,1-.78-1.15C307.15,42.06,307.5,41.9,307.93,42.12Z"></path><path class="cls-5" d="M305,44.47l2.1,1.09a1.47,1.47,0,0,1,.77,1.15c0,.41-.35.57-.77.35L305,46a1.47,1.47,0,0,1-.77-1.15C304.21,44.41,304.56,44.25,305,44.47Z"></path><path class="cls-18" d="M305,44.47l2.1,1.09a1.47,1.47,0,0,1,.77,1.15c0,.41-.35.57-.77.35L305,46a1.47,1.47,0,0,1-.77-1.15C304.21,44.41,304.56,44.25,305,44.47Z"></path><path class="cls-5" d="M307.93,49.85,310,50.93a1.46,1.46,0,0,1,.77,1.15c0,.42-.34.58-.77.35l-2.09-1.08a1.48,1.48,0,0,1-.78-1.15C307.15,49.78,307.5,49.63,307.93,49.85Z"></path><path class="cls-18" d="M307.93,49.85,310,50.93a1.46,1.46,0,0,1,.77,1.15c0,.42-.34.58-.77.35l-2.09-1.08a1.48,1.48,0,0,1-.78-1.15C307.15,49.78,307.5,49.63,307.93,49.85Z"></path><path class="cls-5" d="M310.72,35.87l12.78,6.62a1.48,1.48,0,0,1,.78,1.15c0,.42-.35.57-.78.35l-12.78-6.62a1.48,1.48,0,0,1-.78-1.15C309.94,35.81,310.29,35.65,310.72,35.87Z"></path><path class="cls-20" d="M310.72,35.87l12.78,6.62a1.48,1.48,0,0,1,.78,1.15c0,.42-.35.57-.78.35l-12.78-6.62a1.48,1.48,0,0,1-.78-1.15C309.94,35.81,310.29,35.65,310.72,35.87Z"></path><path class="cls-5" d="M310.72,55.16l12.78,6.62a1.48,1.48,0,0,1,.78,1.15c0,.42-.35.57-.78.35l-12.78-6.62a1.48,1.48,0,0,1-.78-1.15C309.94,55.09,310.29,54.94,310.72,55.16Z"></path><path class="cls-20" d="M310.72,55.16l12.78,6.62a1.48,1.48,0,0,1,.78,1.15c0,.42-.35.57-.78.35l-12.78-6.62a1.48,1.48,0,0,1-.78-1.15C309.94,55.09,310.29,54.94,310.72,55.16Z"></path><path class="cls-5" d="M313.66,41.24l9.84,5.11a1.48,1.48,0,0,1,.78,1.15c0,.42-.35.57-.78.35l-9.84-5.11a1.45,1.45,0,0,1-.77-1.15C312.89,41.18,313.23,41,313.66,41.24Z"></path><path class="cls-20" d="M313.66,41.24l9.84,5.11a1.48,1.48,0,0,1,.78,1.15c0,.42-.35.57-.78.35l-9.84-5.11a1.45,1.45,0,0,1-.77-1.15C312.89,41.18,313.23,41,313.66,41.24Z"></path><path class="cls-5" d="M313.66,45.1l9.84,5.11a1.46,1.46,0,0,1,.78,1.15c0,.41-.35.57-.78.35l-9.84-5.11a1.45,1.45,0,0,1-.77-1.15C312.89,45,313.23,44.88,313.66,45.1Z"></path><path class="cls-20" d="M313.66,45.1l9.84,5.11a1.46,1.46,0,0,1,.78,1.15c0,.41-.35.57-.78.35l-9.84-5.11a1.45,1.45,0,0,1-.77-1.15C312.89,45,313.23,44.88,313.66,45.1Z"></path><path class="cls-5" d="M310.72,47.44l12.78,6.62a1.49,1.49,0,0,1,.78,1.16c0,.41-.35.57-.78.35L310.72,49a1.49,1.49,0,0,1-.78-1.16C309.94,47.38,310.29,47.22,310.72,47.44Z"></path><path class="cls-20" d="M310.72,47.44l12.78,6.62a1.49,1.49,0,0,1,.78,1.16c0,.41-.35.57-.78.35L310.72,49a1.49,1.49,0,0,1-.78-1.16C309.94,47.38,310.29,47.22,310.72,47.44Z"></path><path class="cls-5" d="M313.66,52.82l9.84,5.1a1.48,1.48,0,0,1,.78,1.15c0,.42-.35.58-.78.35l-9.84-5.1a1.46,1.46,0,0,1-.77-1.15C312.89,52.75,313.23,52.6,313.66,52.82Z"></path><path class="cls-20" d="M313.66,52.82l9.84,5.1a1.48,1.48,0,0,1,.78,1.15c0,.42-.35.58-.78.35l-9.84-5.1a1.46,1.46,0,0,1-.77-1.15C312.89,52.75,313.23,52.6,313.66,52.82Z"></path><path class="cls-3" d="M302.87,60l22.75,11.78a3,3,0,0,1,1.52,2.37v46.55c0,.87-.68,1.22-1.52.79L302.87,109.7a3,3,0,0,1-1.53-2.37V60.78C301.34,59.91,302,59.55,302.87,60Z"></path><path class="cls-5" d="M305,64.05l2.1,1.09a1.47,1.47,0,0,1,.77,1.15c0,.41-.35.57-.77.35L305,65.55a1.47,1.47,0,0,1-.77-1.15C304.21,64,304.56,63.83,305,64.05Z"></path><path class="cls-18" d="M305,64.05l2.1,1.09a1.47,1.47,0,0,1,.77,1.15c0,.41-.35.57-.77.35L305,65.55a1.47,1.47,0,0,1-.77-1.15C304.21,64,304.56,63.83,305,64.05Z"></path><path class="cls-5" d="M307.93,69.42,310,70.51a1.46,1.46,0,0,1,.77,1.15c0,.42-.34.57-.77.35l-2.09-1.08a1.49,1.49,0,0,1-.78-1.16C307.15,69.36,307.5,69.2,307.93,69.42Z"></path><path class="cls-18" d="M307.93,69.42,310,70.51a1.46,1.46,0,0,1,.77,1.15c0,.42-.34.57-.77.35l-2.09-1.08a1.49,1.49,0,0,1-.78-1.16C307.15,69.36,307.5,69.2,307.93,69.42Z"></path><path class="cls-5" d="M307.93,73.27,310,74.36a1.45,1.45,0,0,1,.77,1.15c0,.41-.34.57-.77.35l-2.09-1.09a1.46,1.46,0,0,1-.78-1.15C307.15,73.21,307.5,73.05,307.93,73.27Z"></path><path class="cls-18" d="M307.93,73.27,310,74.36a1.45,1.45,0,0,1,.77,1.15c0,.41-.34.57-.77.35l-2.09-1.09a1.46,1.46,0,0,1-.78-1.15C307.15,73.21,307.5,73.05,307.93,73.27Z"></path><path class="cls-5" d="M305,75.62l2.1,1.09a1.47,1.47,0,0,1,.77,1.15c0,.41-.35.57-.77.35L305,77.12a1.47,1.47,0,0,1-.77-1.15C304.21,75.56,304.56,75.4,305,75.62Z"></path><path class="cls-18" d="M305,75.62l2.1,1.09a1.47,1.47,0,0,1,.77,1.15c0,.41-.35.57-.77.35L305,77.12a1.47,1.47,0,0,1-.77-1.15C304.21,75.56,304.56,75.4,305,75.62Z"></path><path class="cls-5" d="M310.72,67l12.78,6.62a1.48,1.48,0,0,1,.78,1.15c0,.42-.35.58-.78.35l-12.78-6.62a1.46,1.46,0,0,1-.78-1.15C309.94,67,310.29,66.8,310.72,67Z"></path><path class="cls-20" d="M310.72,67l12.78,6.62a1.48,1.48,0,0,1,.78,1.15c0,.42-.35.58-.78.35l-12.78-6.62a1.46,1.46,0,0,1-.78-1.15C309.94,67,310.29,66.8,310.72,67Z"></path><path class="cls-5" d="M313.66,72.39l9.84,5.11a1.48,1.48,0,0,1,.78,1.15c0,.42-.35.57-.78.35l-9.84-5.1a1.48,1.48,0,0,1-.77-1.16C312.89,72.33,313.23,72.17,313.66,72.39Z"></path><path class="cls-20" d="M313.66,72.39l9.84,5.11a1.48,1.48,0,0,1,.78,1.15c0,.42-.35.57-.78.35l-9.84-5.1a1.48,1.48,0,0,1-.77-1.16C312.89,72.33,313.23,72.17,313.66,72.39Z"></path><path class="cls-5" d="M313.66,76.25l9.84,5.11a1.46,1.46,0,0,1,.78,1.15c0,.41-.35.57-.78.35l-9.84-5.11a1.45,1.45,0,0,1-.77-1.15C312.89,76.19,313.23,76,313.66,76.25Z"></path><path class="cls-20" d="M313.66,76.25l9.84,5.11a1.46,1.46,0,0,1,.78,1.15c0,.41-.35.57-.78.35l-9.84-5.11a1.45,1.45,0,0,1-.77-1.15C312.89,76.19,313.23,76,313.66,76.25Z"></path><path class="cls-5" d="M310.72,78.59l12.78,6.63a1.46,1.46,0,0,1,.78,1.15c0,.41-.35.57-.78.35L310.72,80.1a1.48,1.48,0,0,1-.78-1.15C309.94,78.53,310.29,78.37,310.72,78.59Z"></path><path class="cls-20" d="M310.72,78.59l12.78,6.63a1.46,1.46,0,0,1,.78,1.15c0,.41-.35.57-.78.35L310.72,80.1a1.48,1.48,0,0,1-.78-1.15C309.94,78.53,310.29,78.37,310.72,78.59Z"></path><path class="cls-5" d="M307.93,81,310,82.11a1.45,1.45,0,0,1,.77,1.15c0,.41-.34.57-.77.35l-2.09-1.09a1.46,1.46,0,0,1-.78-1.15C307.15,81,307.5,80.8,307.93,81Z"></path><path class="cls-18" d="M307.93,81,310,82.11a1.45,1.45,0,0,1,.77,1.15c0,.41-.34.57-.77.35l-2.09-1.09a1.46,1.46,0,0,1-.78-1.15C307.15,81,307.5,80.8,307.93,81Z"></path><path class="cls-5" d="M307.93,84.87,310,86a1.48,1.48,0,0,1,.77,1.16c0,.41-.34.57-.77.35l-2.09-1.09a1.48,1.48,0,0,1-.78-1.15C307.15,84.8,307.5,84.65,307.93,84.87Z"></path><path class="cls-18" d="M307.93,84.87,310,86a1.48,1.48,0,0,1,.77,1.16c0,.41-.34.57-.77.35l-2.09-1.09a1.48,1.48,0,0,1-.78-1.15C307.15,84.8,307.5,84.65,307.93,84.87Z"></path><path class="cls-5" d="M313.66,84l9.84,5.11a1.46,1.46,0,0,1,.78,1.15c0,.41-.35.57-.78.35l-9.84-5.11a1.45,1.45,0,0,1-.77-1.15C312.89,83.93,313.23,83.77,313.66,84Z"></path><path class="cls-20" d="M313.66,84l9.84,5.11a1.46,1.46,0,0,1,.78,1.15c0,.41-.35.57-.78.35l-9.84-5.11a1.45,1.45,0,0,1-.77-1.15C312.89,83.93,313.23,83.77,313.66,84Z"></path><path class="cls-5" d="M313.66,87.85,323.5,93a1.46,1.46,0,0,1,.78,1.15c0,.41-.35.57-.78.35l-9.84-5.11a1.46,1.46,0,0,1-.77-1.15C312.89,87.78,313.23,87.63,313.66,87.85Z"></path><path class="cls-20" d="M313.66,87.85,323.5,93a1.46,1.46,0,0,1,.78,1.15c0,.41-.35.57-.78.35l-9.84-5.11a1.46,1.46,0,0,1-.77-1.15C312.89,87.78,313.23,87.63,313.66,87.85Z"></path><path class="cls-5" d="M305,95l2.1,1.08a1.49,1.49,0,0,1,.77,1.15c0,.42-.35.58-.77.35L305,96.46a1.49,1.49,0,0,1-.77-1.15C304.21,94.89,304.56,94.74,305,95Z"></path><path class="cls-18" d="M305,95l2.1,1.08a1.49,1.49,0,0,1,.77,1.15c0,.42-.35.58-.77.35L305,96.46a1.49,1.49,0,0,1-.77-1.15C304.21,94.89,304.56,94.74,305,95Z"></path><path class="cls-5" d="M310.72,97.93l12.78,6.62a1.48,1.48,0,0,1,.78,1.15c0,.42-.35.58-.78.35l-12.78-6.62a1.46,1.46,0,0,1-.78-1.15C309.94,97.87,310.29,97.71,310.72,97.93Z"></path><path class="cls-20" d="M310.72,97.93l12.78,6.62a1.48,1.48,0,0,1,.78,1.15c0,.42-.35.58-.78.35l-12.78-6.62a1.46,1.46,0,0,1-.78-1.15C309.94,97.87,310.29,97.71,310.72,97.93Z"></path><path class="cls-5" d="M307.93,100.36l2.09,1.08a1.46,1.46,0,0,1,.77,1.15c0,.42-.34.58-.77.35l-2.09-1.08a1.48,1.48,0,0,1-.78-1.15C307.15,100.29,307.5,100.13,307.93,100.36Z"></path><path class="cls-18" d="M307.93,100.36l2.09,1.08a1.46,1.46,0,0,1,.77,1.15c0,.42-.34.58-.77.35l-2.09-1.08a1.48,1.48,0,0,1-.78-1.15C307.15,100.29,307.5,100.13,307.93,100.36Z"></path><path class="cls-5" d="M307.93,104.2l2.09,1.09a1.46,1.46,0,0,1,.77,1.15c0,.42-.34.57-.77.35l-2.09-1.08a1.48,1.48,0,0,1-.78-1.16C307.15,104.14,307.5,104,307.93,104.2Z"></path><path class="cls-18" d="M307.93,104.2l2.09,1.09a1.46,1.46,0,0,1,.77,1.15c0,.42-.34.57-.77.35l-2.09-1.08a1.48,1.48,0,0,1-.78-1.16C307.15,104.14,307.5,104,307.93,104.2Z"></path><path class="cls-5" d="M313.66,103.33l9.84,5.1a1.48,1.48,0,0,1,.78,1.15c0,.42-.35.58-.78.36l-9.84-5.11a1.46,1.46,0,0,1-.77-1.15C312.89,103.26,313.23,103.1,313.66,103.33Z"></path><path class="cls-20" d="M313.66,103.33l9.84,5.1a1.48,1.48,0,0,1,.78,1.15c0,.42-.35.58-.78.36l-9.84-5.11a1.46,1.46,0,0,1-.77-1.15C312.89,103.26,313.23,103.1,313.66,103.33Z"></path><path class="cls-5" d="M313.66,107.18l9.84,5.11a1.48,1.48,0,0,1,.78,1.15c0,.42-.35.57-.78.35l-9.84-5.1a1.48,1.48,0,0,1-.77-1.16C312.89,107.12,313.23,107,313.66,107.18Z"></path><path class="cls-20" d="M313.66,107.18l9.84,5.11a1.48,1.48,0,0,1,.78,1.15c0,.42-.35.57-.78.35l-9.84-5.1a1.48,1.48,0,0,1-.77-1.16C312.89,107.12,313.23,107,313.66,107.18Z"></path><path class="cls-5" d="M307.93,88.7,310,89.78a1.46,1.46,0,0,1,.77,1.15c0,.42-.34.57-.77.35l-2.09-1.08a1.48,1.48,0,0,1-.78-1.15C307.15,88.63,307.5,88.47,307.93,88.7Z"></path><path class="cls-18" d="M307.93,88.7,310,89.78a1.46,1.46,0,0,1,.77,1.15c0,.42-.34.57-.77.35l-2.09-1.08a1.48,1.48,0,0,1-.78-1.15C307.15,88.63,307.5,88.47,307.93,88.7Z"></path><path class="cls-5" d="M305,91.05l2.1,1.08a1.49,1.49,0,0,1,.77,1.15c0,.42-.35.57-.77.35L305,92.55a1.49,1.49,0,0,1-.77-1.15C304.21,91,304.56,90.82,305,91.05Z"></path><path class="cls-18" d="M305,91.05l2.1,1.08a1.49,1.49,0,0,1,.77,1.15c0,.42-.35.57-.77.35L305,92.55a1.49,1.49,0,0,1-.77-1.15C304.21,91,304.56,90.82,305,91.05Z"></path><path class="cls-5" d="M313.66,91.68l9.84,5.1a1.48,1.48,0,0,1,.78,1.15c0,.42-.35.58-.78.35l-9.84-5.1a1.46,1.46,0,0,1-.77-1.15C312.89,91.61,313.23,91.45,313.66,91.68Z"></path><path class="cls-20" d="M313.66,91.68l9.84,5.1a1.48,1.48,0,0,1,.78,1.15c0,.42-.35.58-.78.35l-9.84-5.1a1.46,1.46,0,0,1-.77-1.15C312.89,91.61,313.23,91.45,313.66,91.68Z"></path><path class="cls-5" d="M310.72,94l12.78,6.62a1.48,1.48,0,0,1,.78,1.15c0,.42-.35.57-.78.35l-12.78-6.62a1.48,1.48,0,0,1-.78-1.15C309.94,94,310.29,93.8,310.72,94Z"></path><path class="cls-20" d="M310.72,94l12.78,6.62a1.48,1.48,0,0,1,.78,1.15c0,.42-.35.57-.78.35l-12.78-6.62a1.48,1.48,0,0,1-.78-1.15C309.94,94,310.29,93.8,310.72,94Z"></path><path class="cls-5" d="M305,106.61l2.1,1.08a1.49,1.49,0,0,1,.77,1.15c0,.42-.35.58-.77.36l-2.1-1.09a1.49,1.49,0,0,1-.77-1.15C304.21,106.54,304.56,106.39,305,106.61Z"></path><path class="cls-18" d="M305,106.61l2.1,1.08a1.49,1.49,0,0,1,.77,1.15c0,.42-.35.58-.77.36l-2.1-1.09a1.49,1.49,0,0,1-.77-1.15C304.21,106.54,304.56,106.39,305,106.61Z"></path><path class="cls-5" d="M310.72,109.58l12.78,6.62a1.48,1.48,0,0,1,.78,1.15c0,.42-.35.58-.78.35l-12.78-6.62a1.46,1.46,0,0,1-.78-1.15C309.94,109.52,310.29,109.36,310.72,109.58Z"></path><path class="cls-20" d="M310.72,109.58l12.78,6.62a1.48,1.48,0,0,1,.78,1.15c0,.42-.35.58-.78.35l-12.78-6.62a1.46,1.46,0,0,1-.78-1.15C309.94,109.52,310.29,109.36,310.72,109.58Z"></path></g></g><g id="Window-3" data-name="Window"><g class="cls-21"><path class="cls-4" d="M429.42,125.42V201.8a3.48,3.48,0,0,0,1.77,2.75l48.92,25.31a1.15,1.15,0,0,0,.59.15l.23,0,.15-.05.09-.05.11-.06a.34.34,0,0,0,.09-.08,1.2,1.2,0,0,0,.33-.41,1.79,1.79,0,0,0,.18-.81v-76a3.46,3.46,0,0,0-1.77-2.75L431.19,124.5a1.41,1.41,0,0,0-1.19-.13.55.55,0,0,0-.15.08h0a.58.58,0,0,0-.12.1l-.05.06-.06.08a.75.75,0,0,0-.1.2.37.37,0,0,0,0,.14.06.06,0,0,0,0,0l0,.14C429.43,125.28,429.42,125.35,429.42,125.42Z"></path></g><path class="cls-8" d="M430,124.37a1.41,1.41,0,0,1,1.19.13l48.92,25.29a3.46,3.46,0,0,1,1.77,2.75v5.19l2.82-1.46v-5.15a3.47,3.47,0,0,0-1.76-2.75L434,123.08a1.35,1.35,0,0,0-1.28-.09C432.41,123.16,430.38,124.19,430,124.37Z"></path><path class="cls-5" d="M429.43,125.41c0-1,.79-1.41,1.76-.9l48.93,25.29a3.44,3.44,0,0,1,1.76,2.74v5.19l-52.45-27.12Z"></path><g class="cls-16"><path class="cls-14" d="M431.19,124.5l48.92,25.29a3.52,3.52,0,0,1,1.25,1.18l2.81-1.44a3.4,3.4,0,0,0-1.23-1.16L434,123.08a1.35,1.35,0,0,0-1.28-.09c-.32.17-2.35,1.2-2.72,1.37A1.43,1.43,0,0,1,431.19,124.5Z"></path></g><path class="cls-10" d="M484.71,156.27v-5.15a3,3,0,0,0-.54-1.59L481.35,151a3,3,0,0,1,.53,1.57v5.19Z"></path><path class="cls-4" d="M479.31,151.93a2.28,2.28,0,0,1,1,1.9c0,.76-.45,1.14-1,.86a2.3,2.3,0,0,1-1-1.9C478.31,152,478.76,151.64,479.31,151.93Z"></path><path class="cls-4" d="M475.71,150.06a2.28,2.28,0,0,1,1,1.9c0,.76-.44,1.15-1,.86a2.27,2.27,0,0,1-1-1.9C474.72,150.16,475.16,149.78,475.71,150.06Z"></path><path class="cls-4" d="M472.12,148.2a2.27,2.27,0,0,1,1,1.89c0,.77-.45,1.15-1,.87a2.3,2.3,0,0,1-1-1.9C471.12,148.3,471.57,147.91,472.12,148.2Z"></path><g class="cls-22"><path class="cls-3" d="M481.23,229.87l.23-.12.54-.27h0l.29-.15h0l.46-.24.95-.47.22-.11a.93.93,0,0,0,.3-.22,1.08,1.08,0,0,0,.24-.32,1.77,1.77,0,0,0,.2-.84V156.27l-2.82,1.46v70.8a2.15,2.15,0,0,1-.18.81,1.2,1.2,0,0,1-.33.41.24.24,0,0,1-.09.08Z"></path></g><path class="cls-5" d="M433.49,139.38a.23.23,0,0,1,.09-.21l1.27-1a.07.07,0,0,1,.06,0h0a.27.27,0,0,1,.1.11.34.34,0,0,1,0,.16v.8a.51.51,0,0,1,0,.21.22.22,0,0,1-.09.13l-.67.55.67,1.24a.73.73,0,0,1,.09.22.81.81,0,0,1,0,.25v.79a.16.16,0,0,1,0,.12.09.09,0,0,1-.1,0l0,0a.14.14,0,0,1-.06-.07l-1.27-2.36a.58.58,0,0,1-.09-.3Z"></path><path class="cls-5" d="M438.14,138.28a.34.34,0,0,1,.09-.14.19.19,0,0,1,.19,0l.48.25a.27.27,0,0,1,.1.11.34.34,0,0,1,0,.16.22.22,0,0,1,0,.08l-2.18,6.07a.3.3,0,0,1-.09.13c-.05,0-.11,0-.2,0l-.45-.23a.22.22,0,0,1-.1-.11.37.37,0,0,1-.05-.16.24.24,0,0,1,0-.08Z"></path><path class="cls-5" d="M441.51,144.12a.23.23,0,0,1-.09.2l-1.27,1.05h-.06l0,0a.22.22,0,0,1-.1-.11.29.29,0,0,1,0-.16v-.79a1.09,1.09,0,0,1,0-.22A.47.47,0,0,1,440,144l.68-.55-.68-1.25a1.28,1.28,0,0,1-.09-.22,1.44,1.44,0,0,1,0-.24v-.79a.15.15,0,0,1,0-.12.11.11,0,0,1,.1,0l0,0a.14.14,0,0,1,.06.07l1.27,2.36a.57.57,0,0,1,.09.29Z"></path><path class="cls-5" d="M445.05,147.23a.43.43,0,0,1,.12.14.45.45,0,0,1,.05.19v.88a.2.2,0,0,1-.05.14.11.11,0,0,1-.12,0l-.6-.31a.36.36,0,0,1-.13-.14.45.45,0,0,1-.05-.19v-.88a.2.2,0,0,1,.05-.14.12.12,0,0,1,.13,0Z"></path><path class="cls-5" d="M447.05,148.27a.36.36,0,0,1,.13.14.45.45,0,0,1,.05.19v.88a.2.2,0,0,1-.05.14.12.12,0,0,1-.13,0l-.6-.32a.31.31,0,0,1-.12-.13.49.49,0,0,1-.05-.2v-.87a.2.2,0,0,1,.05-.14.11.11,0,0,1,.12,0Z"></path><path class="cls-5" d="M449.06,149.31a.24.24,0,0,1,.12.14.34.34,0,0,1,.05.19v.87a.17.17,0,0,1-.05.15s-.07,0-.12,0l-.6-.31a.26.26,0,0,1-.12-.13.39.39,0,0,1-.06-.2v-.87a.17.17,0,0,1,.06-.14.1.1,0,0,1,.12,0Z"></path><path class="cls-5" d="M434,146.3l29.4,15.22a1.22,1.22,0,0,1,.63.93c0,.34-.29.47-.63.29L434,147.52a1.22,1.22,0,0,1-.63-.94C433.39,146.24,433.68,146.12,434,146.3Z"></path><path class="cls-2" d="M443.45,165.83l29.4,15.22a1.19,1.19,0,0,1,.63.94c0,.34-.28.46-.63.28l-29.4-15.22a1.2,1.2,0,0,1-.62-.93C442.83,165.78,443.11,165.65,443.45,165.83Z"></path><path class="cls-2" d="M443.45,175.6l14.07,7.29a1.19,1.19,0,0,1,.63.93c0,.34-.28.47-.63.29l-14.07-7.29a1.2,1.2,0,0,1-.62-.94C442.83,175.55,443.11,175.42,443.45,175.6Z"></path><path class="cls-5" d="M465.85,162.78l11.71,6a1.19,1.19,0,0,1,.63.94c0,.33-.28.46-.63.28l-11.71-6a1.22,1.22,0,0,1-.63-.94C465.22,162.73,465.51,162.6,465.85,162.78Z"></path><path class="cls-5" d="M434,200l29.4,15.22a1.22,1.22,0,0,1,.63.94c0,.34-.29.46-.63.28L434,201.23a1.22,1.22,0,0,1-.63-.93C433.39,200,433.68,199.83,434,200Z"></path><path class="cls-5" d="M465.85,216.49l11.71,6a1.18,1.18,0,0,1,.63.93c0,.34-.28.47-.63.29l-11.71-6a1.22,1.22,0,0,1-.63-.94C465.22,216.44,465.51,216.31,465.85,216.49Z"></path><path class="cls-5" d="M465.85,201.87l11.71,6a1.19,1.19,0,0,1,.63.94c0,.33-.28.46-.63.28l-11.71-6a1.22,1.22,0,0,1-.63-.94C465.22,201.82,465.51,201.69,465.85,201.87Z"></path><path class="cls-5" d="M465.85,206.75l11.71,6a1.19,1.19,0,0,1,.63.94c0,.34-.28.46-.63.28l-11.71-6a1.22,1.22,0,0,1-.63-.93C465.22,206.7,465.51,206.57,465.85,206.75Z"></path><path class="cls-5" d="M455.87,196.68l6.58,3.41a1.22,1.22,0,0,1,.63.94c0,.33-.29.46-.63.28l-6.58-3.41a1.16,1.16,0,0,1-.63-.93C455.24,196.63,455.52,196.5,455.87,196.68Z"></path><path class="cls-5" d="M434,151.19l17.15,8.87a1.19,1.19,0,0,1,.63.94c0,.34-.28.46-.63.28L434,152.41a1.22,1.22,0,0,1-.63-.93C433.39,151.14,433.68,151,434,151.19Z"></path><path class="cls-18" d="M434,151.19l17.15,8.87a1.19,1.19,0,0,1,.63.94c0,.34-.28.46-.63.28L434,152.41a1.22,1.22,0,0,1-.63-.93C433.39,151.14,433.68,151,434,151.19Z"></path><path class="cls-5" d="M434,156.07l5.82,3a1.19,1.19,0,0,1,.63.94c0,.34-.28.46-.63.28l-5.82-3a1.22,1.22,0,0,1-.63-.94C433.39,156,433.68,155.89,434,156.07Z"></path><path class="cls-18" d="M434,156.07l5.82,3a1.19,1.19,0,0,1,.63.94c0,.34-.28.46-.63.28l-5.82-3a1.22,1.22,0,0,1-.63-.94C433.39,156,433.68,155.89,434,156.07Z"></path><path class="cls-5" d="M434,161l5.82,3a1.19,1.19,0,0,1,.63.93c0,.34-.28.47-.63.29l-5.82-3a1.22,1.22,0,0,1-.63-.94C433.39,160.9,433.68,160.77,434,161Z"></path><path class="cls-18" d="M434,161l5.82,3a1.19,1.19,0,0,1,.63.93c0,.34-.28.47-.63.29l-5.82-3a1.22,1.22,0,0,1-.63-.94C433.39,160.9,433.68,160.77,434,161Z"></path><path class="cls-5" d="M434,165.83l5.82,3a1.19,1.19,0,0,1,.63.94c0,.33-.28.46-.63.28l-5.82-3a1.22,1.22,0,0,1-.63-.93C433.39,165.78,433.68,165.65,434,165.83Z"></path><path class="cls-18" d="M434,165.83l5.82,3a1.19,1.19,0,0,1,.63.94c0,.33-.28.46-.63.28l-5.82-3a1.22,1.22,0,0,1-.63-.93C433.39,165.78,433.68,165.65,434,165.83Z"></path><path class="cls-23" d="M443.45,170.71l17.15,8.88a1.19,1.19,0,0,1,.63.93c0,.34-.28.47-.63.29l-17.15-8.87a1.2,1.2,0,0,1-.62-.94C442.83,170.66,443.11,170.53,443.45,170.71Z"></path><path class="cls-23" d="M463,180.85l7.46,3.87a1.19,1.19,0,0,1,.63.94c0,.33-.28.46-.63.28L463,182.07a1.2,1.2,0,0,1-.62-.94C462.41,180.8,462.69,180.67,463,180.85Z"></path><path class="cls-18" d="M443.45,170.71l17.15,8.88a1.19,1.19,0,0,1,.63.93c0,.34-.28.47-.63.29l-17.15-8.87a1.2,1.2,0,0,1-.62-.94C442.83,170.66,443.11,170.53,443.45,170.71Z"></path><path class="cls-18" d="M463,180.85l7.46,3.87a1.19,1.19,0,0,1,.63.94c0,.33-.28.46-.63.28L463,182.07a1.2,1.2,0,0,1-.62-.94C462.41,180.8,462.69,180.67,463,180.85Z"></path><path class="cls-5" d="M434,170.72l5.82,3a1.19,1.19,0,0,1,.63.94c0,.34-.28.46-.63.29l-5.82-3a1.22,1.22,0,0,1-.63-.94C433.39,170.66,433.68,170.54,434,170.72Z"></path><path class="cls-18" d="M434,170.72l5.82,3a1.19,1.19,0,0,1,.63.94c0,.34-.28.46-.63.29l-5.82-3a1.22,1.22,0,0,1-.63-.94C433.39,170.66,433.68,170.54,434,170.72Z"></path><path class="cls-5" d="M453.6,161.32l7.46,3.88a1.19,1.19,0,0,1,.63.93c0,.34-.28.47-.63.29l-7.46-3.88a1.19,1.19,0,0,1-.62-.93C453,161.27,453.26,161.14,453.6,161.32Z"></path><path class="cls-18" d="M453.6,161.32l7.46,3.88a1.19,1.19,0,0,1,.63.93c0,.34-.28.47-.63.29l-7.46-3.88a1.19,1.19,0,0,1-.62-.93C453,161.27,453.26,161.14,453.6,161.32Z"></path><path class="cls-14" d="M450.53,184.14,467.67,193a1.19,1.19,0,0,1,.63.94c0,.33-.28.46-.63.28l-17.14-8.87a1.19,1.19,0,0,1-.63-.94C449.9,184.09,450.18,184,450.53,184.14Z"></path><path class="cls-14" d="M460.42,194.16,477.56,203a1.19,1.19,0,0,1,.63.94c0,.34-.28.47-.63.29l-17.14-8.88a1.18,1.18,0,0,1-.63-.93C459.79,194.11,460.07,194,460.42,194.16Z"></path><path class="cls-14" d="M470.11,194.27l7.45,3.87a1.19,1.19,0,0,1,.63.94c0,.34-.28.46-.63.28l-7.45-3.87a1.19,1.19,0,0,1-.63-.93C469.48,194.22,469.76,194.09,470.11,194.27Z"></path><path class="cls-2" d="M470.11,213.61l7.45,3.88a1.18,1.18,0,0,1,.63.93c0,.34-.28.47-.63.29l-7.45-3.88a1.19,1.19,0,0,1-.63-.93C469.48,213.56,469.76,213.43,470.11,213.61Z"></path><path class="cls-5" d="M443.45,161l17.15,8.87a1.19,1.19,0,0,1,.63.94c0,.33-.28.46-.63.28l-17.15-8.87a1.2,1.2,0,0,1-.62-.94C442.83,160.9,443.11,160.77,443.45,161Z"></path><path class="cls-18" d="M443.45,161l17.15,8.87a1.19,1.19,0,0,1,.63.94c0,.33-.28.46-.63.28l-17.15-8.87a1.2,1.2,0,0,1-.62-.94C442.83,160.9,443.11,160.77,443.45,161Z"></path><path class="cls-5" d="M463,171.08l7.46,3.87a1.19,1.19,0,0,1,.63.94c0,.34-.28.47-.63.29L463,172.3a1.2,1.2,0,0,1-.62-.93C462.41,171,462.69,170.9,463,171.08Z"></path><path class="cls-18" d="M463,171.08l7.46,3.87a1.19,1.19,0,0,1,.63.94c0,.34-.28.47-.63.29L463,172.3a1.2,1.2,0,0,1-.62-.93C462.41,171,462.69,170.9,463,171.08Z"></path></g><g id="Mouse"><path class="cls-10" d="M346.17,227l10.51,5.44a12.68,12.68,0,0,0,11.59-.55l17.34-11.35c3.09-2,2.91-5-.4-6.77l-5.27-2.73a15.78,15.78,0,0,0-12.18-.33l-21.4,10.4C343,222.68,342.86,225.32,346.17,227Z"></path><path class="cls-3" d="M385.89,215.64l-12,8.41-8.85,6.21a9,9,0,0,1-7-.19l-9.4-4.87h0l-.05,0a5.6,5.6,0,0,1-1.9-8.53c.09-.12.18-.23.28-.34a12.65,12.65,0,0,1,7.56-4.3l4.76-.86c7.72-1.4,14.05-2.09,14.78-1.64l11.79,6.13Z"></path><path class="cls-5" d="M379.19,220.34l.67-.47-10.57-5.48,9.25-2.57-.93-.48-9.26,2.57-6.3-3.27-1.2.21Z"></path><path class="cls-11" d="M366.09,229.75l.06,0a0,0,0,0,1,0,0l8.42-5.45L386,216.88v-1.15a.08.08,0,0,0-.06-.09l-.06,0c-.85-.27-5.78,1.06-11.73,3.19l-4,1.4a12.79,12.79,0,0,0-3.37,1.79,10.83,10.83,0,0,0-4.55,8.68v.19a8.51,8.51,0,0,0,2.82-.61Z"></path></g></g></g><g id="Plant"><g id="Pot"><path class="cls-5" d="M387,380.64c-11.57-10.71-18.37-54.29-7.08-62.78H437.3c11.28,8.49,4.49,52.05-7.07,62.77l-.32.29c-.13.12-.26.24-.4.35-.32.29-.67.57-1,.85l-.28.2c-.28.2-.56.4-.87.59a14.21,14.21,0,0,1-1.5.87c-9.51,5-24.95,5-34.46,0h0q-.75-.39-1.5-.87c-.29-.18-.55-.37-.81-.56l-.35-.24c-.36-.27-.69-.54-1-.82l-.46-.4Z"></path><g class="cls-16"><path class="cls-14" d="M387,380.64c-11.57-10.71-18.37-54.29-7.08-62.78H437.3c11.28,8.49,4.49,52.05-7.07,62.77l-.32.29c-.13.12-.26.24-.4.35-.32.29-.67.57-1,.85l-.28.2c-.28.2-.56.4-.87.59a14.21,14.21,0,0,1-1.5.87c-9.51,5-24.95,5-34.46,0h0q-.75-.39-1.5-.87c-.29-.18-.55-.37-.81-.56l-.35-.24c-.36-.27-.69-.54-1-.82l-.46-.4Z"></path></g><path class="cls-5" d="M432.31,314.43c13.11,6.87,13.11,18,0,24.85s-34.34,6.86-47.44,0-13.11-18,0-24.84S419.21,307.57,432.31,314.43Z"></path><g class="cls-24"><path class="cls-14" d="M432.31,314.43c13.11,6.87,13.11,18,0,24.85s-34.34,6.86-47.44,0-13.11-18,0-24.84S419.21,307.57,432.31,314.43Z"></path></g><path class="cls-5" d="M426,317.73c9.62,5,9.62,13.21,0,18.25s-25.22,5-34.84,0-9.62-13.21,0-18.25S416.39,312.7,426,317.73Z"></path><g class="cls-25"><path d="M426,317.73c9.62,5,9.62,13.21,0,18.25s-25.22,5-34.84,0-9.62-13.21,0-18.25S416.39,312.7,426,317.73Z"></path></g><path class="cls-1" d="M391.17,326.39c9.62-5,25.22-5,34.84,0a15.55,15.55,0,0,1,5.77,4.8A15.54,15.54,0,0,1,426,336c-9.62,5-25.22,5-34.84,0a15.54,15.54,0,0,1-5.77-4.79A15.55,15.55,0,0,1,391.17,326.39Z"></path><g id="Plants"><path class="cls-5" d="M403.89,304.4a13.09,13.09,0,0,1-1.47-3.76c-.64-3.13.23-6.73,3.06-8.66,1.13-.77,2.59-1.34,3.07-2.53a3.59,3.59,0,0,0,0-2.08c-.52-2.67-1.53-5.43-.7-8.05.77-2.42,3-4.27,5.57-5.35a32.84,32.84,0,0,1,8.11-1.9,14,14,0,0,0,4.29-1.11c1.61-.8,2.1-2.22,3.1-3.47a25.6,25.6,0,0,1,3.94-3.77c2.92-2.35,6.59-4.28,10.64-4.12,8.44.34,8.2,6.86,5.76,11.8s-3.08,6.55,2.2,11.7,5.29,11.49-1,15-10.39,4-7.9,10.86c2.23,6.11,3.61,11.32-2.69,17.85a21.48,21.48,0,0,1-16.58,7,30.28,30.28,0,0,1-8.14-1.7c-1.92-.85-.62-2.19-1.27-3.88l-4.17-10.93c-1.08-2.82-1.9-5.94-3.32-8.61C405.61,307.21,404.67,305.84,403.89,304.4Z"></path><g class="cls-26"><path d="M403.89,304.4a13.09,13.09,0,0,1-1.47-3.76c-.64-3.13.23-6.73,3.06-8.66,1.13-.77,2.59-1.34,3.07-2.53a3.59,3.59,0,0,0,0-2.08c-.52-2.67-1.53-5.43-.7-8.05.77-2.42,3-4.27,5.57-5.35a32.84,32.84,0,0,1,8.11-1.9,14,14,0,0,0,4.29-1.11c1.61-.8,2.1-2.22,3.1-3.47a25.6,25.6,0,0,1,3.94-3.77c2.92-2.35,6.59-4.28,10.64-4.12,8.44.34,8.2,6.86,5.76,11.8s-3.08,6.55,2.2,11.7,5.29,11.49-1,15-10.39,4-7.9,10.86c2.23,6.11,3.61,11.32-2.69,17.85a21.48,21.48,0,0,1-16.58,7,30.28,30.28,0,0,1-8.14-1.7c-1.92-.85-.62-2.19-1.27-3.88l-4.17-10.93c-1.08-2.82-1.9-5.94-3.32-8.61C405.61,307.21,404.67,305.84,403.89,304.4Z"></path></g><path class="cls-14" d="M415.37,332.1a.59.59,0,0,0,.42-.54c-.36-37.41,22.63-59.75,22.87-60a.52.52,0,0,0,0-.79.66.66,0,0,0-.88,0c-.23.22-23.57,22.87-23.21,60.76a.61.61,0,0,0,.63.56A.64.64,0,0,0,415.37,332.1Z"></path><path class="cls-14" d="M422.06,297.29l.13-.05c7.48-4.22,20.83-7.37,21-7.41a.55.55,0,0,0,.45-.68.64.64,0,0,0-.76-.41c-.55.13-13.67,3.23-21.31,7.54a.54.54,0,0,0-.2.78A.64.64,0,0,0,422.06,297.29Z"></path><path class="cls-14" d="M424.37,292.16h0a.54.54,0,0,0,.33-.73,42.12,42.12,0,0,0-6.9-10.41.66.66,0,0,0-.87-.07.53.53,0,0,0-.07.8,42.22,42.22,0,0,1,6.69,10.1A.64.64,0,0,0,424.37,292.16Z"></path><path class="cls-5" d="M409.51,336.15a39,39,0,0,1-18.32.61c-10.51-2-16.94-10.84-16.94-10.84s11.37-4.09,18-4.48a65,65,0,0,0-19.91.38s-6.08-2-4.93-11.25c0,0,5.72-3.78,18.9-2.3,0,0-6.6-4.23-18.18-5.48-.91,0,.32-12,1.43-17.34s3.29-4.53,8-4.06,18.73,3.32,20.51,6.4,0,10.93,0,10.93A16.88,16.88,0,0,0,402,288.44s5.28,1.73,8.09,4a17.15,17.15,0,0,1,5,5.66c-.65,4.22-2.86,10.64-6,14.23,0,0,7-4,8.57-11.49,0,0,5.59,6.4,5.53,14.65C423.22,324.87,418.55,331.86,409.51,336.15Z"></path><path class="cls-27" d="M409.51,336.15a39,39,0,0,1-18.32.61c-10.51-2-16.94-10.84-16.94-10.84s11.37-4.09,18-4.48a65,65,0,0,0-19.91.38s-6.08-2-4.93-11.25c0,0,5.72-3.78,18.9-2.3,0,0-6.6-4.23-18.18-5.48-.91,0,.32-12,1.43-17.34s3.29-4.53,8-4.06,18.73,3.32,20.51,6.4,0,10.93,0,10.93A16.88,16.88,0,0,0,402,288.44s5.28,1.73,8.09,4a17.15,17.15,0,0,1,5,5.66c-.65,4.22-2.86,10.64-6,14.23,0,0,7-4,8.57-11.49,0,0,5.59,6.4,5.53,14.65C423.22,324.87,418.55,331.86,409.51,336.15Z"></path><path class="cls-14" d="M410.9,335.31a.54.54,0,0,1-.38-.46c-1.59-17.85-23.87-45.75-33.71-51.35a.5.5,0,0,1-.19-.74.62.62,0,0,1,.82-.17c10,5.69,32.65,34,34.27,52.18a.59.59,0,0,1-.81.54Z"></path></g></g></g><g id="Character"><g id="Character-2" data-name="Character"><path class="cls-28" d="M209.45,324.15c0-.2-3.58-11.79-3.58-11.79s1.17,1.06,8.64-.7a45.13,45.13,0,0,0,8.13-3.06l2.13,8.47c2,3.26,8.59,1.76,15.82,1,1.22-.12,2.47-.3,3.72-.5h.07c3.91-.2,7.82,1.91,3.77,4.89s-10.76,4.12-16.93,5.12C223.8,328.8,210.78,330.76,209.45,324.15Z"></path><path class="cls-11" d="M261.35,323.12a6.26,6.26,0,0,1,.54,3.57c-.14,1.29-3.7,5.67-10,8.35s-14.07,2.86-17.71,3.8-7,2.82-11.27,3.76-8.54,1.43-12.84-1.11c-.79-1.1-1.67-3.63-1.42-3.87C209.35,337,261.35,323.12,261.35,323.12Z"></path><path class="cls-5" d="M225.91,318.2c2.77,1.72,8.49.53,14.68-.11,5.84-.59,12.41-2.43,16.38-1.2s7.28,5.42,1.92,10.79c-1.55,1.56-4.84,4.29-7.46,5.13-6.66,2.14-12.64,2.31-16.93,3.26-5.58,1.24-8.62,3.45-13.78,4-6.68.69-10.9-.84-12.06-2.44s-2.22-14.49.64-14.23c0,0,1.2,4.17,12.11.12C226.17,321.74,226.09,319.14,225.91,318.2Z"></path><path class="cls-9" d="M225.91,318.2c2.77,1.72,8.49.53,14.68-.11,5.84-.59,12.41-2.43,16.38-1.2s7.28,5.42,1.92,10.79c-1.55,1.56-4.84,4.29-7.46,5.13-6.66,2.14-12.64,2.31-16.93,3.26-5.58,1.24-8.62,3.45-13.78,4-6.68.69-10.9-.84-12.06-2.44s-2.22-14.49.64-14.23c0,0,1.2,4.17,12.11.12C226.17,321.74,226.09,319.14,225.91,318.2Z"></path><path class="cls-29" d="M244.42,325.12s-.63-5.45-5.12-6.89a2.6,2.6,0,0,0-2.47.29s4.17.55,5.53,6.93c0,0,.21.42,1.12.28C243.79,325.68,244.46,325.57,244.42,325.12Z"></path><path class="cls-29" d="M233,319s0-.18,1.05-.36a2.05,2.05,0,0,1,1.23.12s3.35,1.3,4,7c0,0,0,.69-1,.88S237,326,237,326,236.35,320,233,319Z"></path><path class="cls-29" d="M229.42,319.07s.18-.35,1-.34c1,0,1.22.35,1.22.35S234,321.27,234,326c0,0,.1.81-1.15.89s-1.07-.83-1.07-.83S231.37,320,229.42,319.07Z"></path><path class="cls-3" d="M204.83,245.32c5.47,14.73,20,65.46,20,65.46s-9.43,7.6-19.66,4.14l-24.38-63.17Z"></path><path class="cls-28" d="M247,340.53c-1.12-1.49-5.31-11.81-5.31-11.81s4.37,2.25,11.9.64c3.82-.81,7.4-4.54,7.4-4.54l3.21,9.92c1.9,3.3,8,2.21,15.28,1.63,1.22-.1,2.47-.25,3.73-.42h.07c3.91-.11,7.77,2.08,3.63,5s-10.86,3.87-17.06,4.74C262.37,346.71,251.15,346.09,247,340.53Z"></path><path class="cls-11" d="M303.18,340.22a6.65,6.65,0,0,1,.48,3.83c-.19,1.39-4.14,6-11,8.74s-15.19,2.74-19.13,3.66-7.57,2.86-12.21,3.76-9.21,1.34-13.75-1.49c-.82-1.2-1.69-3.93-1.41-4.19C247,353.83,303.18,340.22,303.18,340.22Z"></path><path class="cls-5" d="M265.35,334a15.32,15.32,0,0,0,1.37.76,4.55,4.55,0,0,0,1.52.28,24.72,24.72,0,0,0,3.65.08c3.07-.14,6.11-.55,9.16-.8,6.28-.5,13.39-2.32,17.61-.9s8.08,6,2.16,11.61a28.94,28.94,0,0,1-7.92,5.4c-7,2.63-14.29,2.13-18.92,3.05-6,1.2-9.36,3.5-14.92,4-7.18.58-11.67-1.17-12.87-2.91-.66-1,.08-6-.82-10-.78-3.38-.57-5.68.78-5.52a6.18,6.18,0,0,0,1,1.19,4.94,4.94,0,0,0,1.6,1.13,13.52,13.52,0,0,0,2.69.82,17.33,17.33,0,0,0,5,.61,2.62,2.62,0,0,0,1.36-.38,2.48,2.48,0,0,0,.79-1.53c.12-.5.24-1,.35-1.49a2,2,0,0,1,.31-.78,2.32,2.32,0,0,1,.85-.61,7.23,7.23,0,0,0,2.74-1.87,5.32,5.32,0,0,0,.8-2.31.59.59,0,0,1,.18-.38c.21-.15.5,0,.73.1Z"></path><path class="cls-9" d="M265.35,334a15.32,15.32,0,0,0,1.37.76,4.55,4.55,0,0,0,1.52.28,24.72,24.72,0,0,0,3.65.08c3.07-.14,6.11-.55,9.16-.8,6.28-.5,13.39-2.32,17.61-.9s8.08,6,2.16,11.61a28.94,28.94,0,0,1-7.92,5.4c-7,2.63-14.29,2.13-18.92,3.05-6,1.2-9.36,3.5-14.92,4-7.18.58-11.67-1.17-12.87-2.91-.66-1,.08-6-.82-10-.78-3.38-.57-5.68.78-5.52a6.18,6.18,0,0,0,1,1.19,4.94,4.94,0,0,0,1.6,1.13,13.52,13.52,0,0,0,2.69.82,17.33,17.33,0,0,0,5,.61,2.62,2.62,0,0,0,1.36-.38,2.48,2.48,0,0,0,.79-1.53c.12-.5.24-1,.35-1.49a2,2,0,0,1,.31-.78,2.32,2.32,0,0,1,.85-.61,7.23,7.23,0,0,0,2.74-1.87,5.32,5.32,0,0,0,.8-2.31.59.59,0,0,1,.18-.38c.21-.15.5,0,.73.1Z"></path><path class="cls-29" d="M284.94,342s-.51-5.86-5.28-7.52a2.77,2.77,0,0,0-2.66.26s4.45.68,5.73,7.57c0,0,.22.45,1.19.32C284.25,342.54,285,342.44,284.94,342Z"></path><path class="cls-29" d="M272.88,335.06s0-.19,1.14-.36a2.22,2.22,0,0,1,1.32.16s3.55,1.48,4.06,7.6c0,0,0,.74-1.14.92s-1.26-.63-1.26-.63S276.43,336.31,272.88,335.06Z"></path><path class="cls-29" d="M269,335.1s.21-.36,1.06-.34c1.06,0,1.3.41,1.3.41s2.49,2.4,2.38,7.51c0,0,.08.87-1.26.93s-1.13-.92-1.13-.92S271.09,336.18,269,335.1Z"></path><path class="cls-4" d="M243.29,262.71c4.3,11.88,15.29,45.67,20.31,63.05,0,0-9,7.27-20.62,6.64l-28-65.07,11.14-6.18Z"></path><path class="cls-4" d="M151.18,425.15a1.74,1.74,0,0,0,1.82-1.63V318.93a1.83,1.83,0,0,0-3.63,0V423.52A1.73,1.73,0,0,0,151.18,425.15Z"></path><path class="cls-4" d="M79,387.08a1.82,1.82,0,0,0,1.69-1l35.76-81.17a1.57,1.57,0,0,0-1-2.11,1.86,1.86,0,0,0-2.35.91L77.35,384.86a1.58,1.58,0,0,0,1,2.11A1.87,1.87,0,0,0,79,387.08Z"></path><path class="cls-4" d="M83.33,377.33a1.92,1.92,0,0,0,1.32-.51l66.53-63.15,66.42,62.89a2,2,0,0,0,2.56.06,1.51,1.51,0,0,0,.07-2.3L152.5,310.19a1.89,1.89,0,0,0-1.32-.51h0a1.91,1.91,0,0,0-1.32.51L82,374.59a1.52,1.52,0,0,0,.07,2.3A2,2,0,0,0,83.33,377.33Z"></path><path class="cls-4" d="M223.33,387.08A2,2,0,0,0,224,387a1.59,1.59,0,0,0,1-2.11l-35.76-81.18a1.87,1.87,0,0,0-2.35-.91,1.57,1.57,0,0,0-1,2.11l35.75,81.17A1.84,1.84,0,0,0,223.33,387.08Z"></path><path class="cls-5" d="M224.2,283.07c1.31-6.56-4.65-11.68-15.86-18.47a275.16,275.16,0,0,0-32.49-16.37c-9.38-3.86-19-3.51-31,2-16.68,7.69-66.89,35-66.89,35s75.06,38,89.5,36.3,50.54-22.75,53.4-30.16S224.2,283.07,224.2,283.07Z"></path><g class="cls-30"><path d="M224.2,283.07c1.31-6.56-4.65-11.68-15.86-18.47a275.16,275.16,0,0,0-32.49-16.37c-9.38-3.86-19-3.51-31,2-16.68,7.69-66.89,35-66.89,35s75.06,38,89.5,36.3,50.54-22.75,53.4-30.16S224.2,283.07,224.2,283.07Z"></path></g><path class="cls-5" d="M160.23,313.56c10.78,8.75,22,1.22,39.86-9.15,20.16-11.74,24.11-21.34,24.11-21.34s0,7.19-1.5,10.57-4.76,7.19-19.31,16.19S178.32,323.32,168.54,325l-7.71-1"></path><path class="cls-7" d="M200.09,304.41c20.16-11.74,24.11-21.34,24.11-21.34s0,7.19-1.5,10.57-4.76,7.19-19.31,16.19S178.32,323.32,168.54,325l-7.71-1-.6-10.47C171,322.31,182.27,314.78,200.09,304.41Z"></path><path class="cls-5" d="M81.85,374.34l-5.53,11.43a1.36,1.36,0,0,0-.06.29,1.48,1.48,0,0,0,0,.21c0,.24.35.56.7.77a3.63,3.63,0,0,0,3,.12,1.24,1.24,0,0,0,.61-.52v0l0-.16,5.12-10.71Z"></path><path class="cls-5" d="M220.86,374.82,225.59,386a1,1,0,0,1,0,.29v.2a1.44,1.44,0,0,1-.72.71,3.5,3.5,0,0,1-2.87,0,1.12,1.12,0,0,1-.56-.53v0l0-.15L217.06,376Z"></path><path class="cls-5" d="M149.09,415.43v9.25a.93.93,0,0,0,.61.77,3.63,3.63,0,0,0,3,0,.93.93,0,0,0,.61-.77v-9.25A4.86,4.86,0,0,0,149.09,415.43Z"></path><path class="cls-3" d="M108,243.85c4.28,4.46,43.18-5.57,53.48-6.83,16.63-2,30.16-3.52,35.8-1.93s8,4.17,9.76,10.23c2,7.15,3.1,10.79,3.1,10.79s-27.62,9.51-49.39,11.8S108,243.85,108,243.85Z"></path><path class="cls-4" d="M100.79,250.4c-4.32,14.73-8.19,31.87,1.79,41.26,6.72,6.32,40.49,22.74,62.27,16.27,21.46-6.37,65.89-36,70.35-38.94s8.52-5,8.09-6.28c-6-17.84-14.75-19.23-31-16-19.86,3.92-63.46,19.88-63.46,19.88Z"></path><polygon class="cls-28" points="199.45 155.64 184.47 170.84 160.27 160.54 177.19 139.55 199.45 155.64"></polygon><path class="cls-31" d="M218,126.78s6.14,7.95,5.48,8.76-5,1.61-5,1.61Z"></path><ellipse class="cls-32" cx="217.99" cy="125.45" rx="6.66" ry="5.98"></ellipse><path class="cls-28" d="M201,104.81c12.05,2,15.63,6.68,17.2,23.74,1.64,17.84-.25,23.49-2.81,25.95-1.72,1.66-11.53,2.15-16.51,1-6.23-1.4-20.34-5.57-27.13-14.41-8-10.41-10.38-24.69-2.27-30.74C180.9,101.87,196.1,104,201,104.81Z"></path><path class="cls-31" d="M199.45,155.64c5.19,1.06,13.07.42,15.41-.79a19.51,19.51,0,0,1-8.72-.28,30.06,30.06,0,0,1-8-3.16Z"></path><path class="cls-11" d="M220.44,111.79l0,0c-3.37,2.08-7.47,3-11.51,3.51.32,2.9-.7,5.76-1.7,8.53-.7,1.91-3.2,7.92-5.93,4.62-2-2.38-3.77-4.55-7.54-4-6.22,1-6.88,8.12-2.84,12.38s7.67,2.51,7.67,2.51.58,7.7-3.95,13.13c0,0-6.75,3.72-16.22.92-6-1.76-14.61-8.53-17.79-13.8-8.75-14.53-8.8-28.44,1.82-32.72,1-7,7-10.2,13.9-11.78,9.57-2.18,19.52,3.21,28.77-.34,1.95-.75,3.75-1.82,5.74-2.46a4.31,4.31,0,0,1,3.45,0,3.63,3.63,0,0,1,1.47,2.36,6.07,6.07,0,0,1-.36,5,16.85,16.85,0,0,1,4.35-1.44,5.9,5.9,0,0,1,4.39.89,4.81,4.81,0,0,1,1.77,3.44C226.28,106.19,223.79,109.71,220.44,111.79Z"></path><path class="cls-11" d="M162.29,109.24,155,105.59a4.42,4.42,0,0,1,5.67-1.43A3.53,3.53,0,0,1,162.29,109.24Z"></path><line class="cls-33" x1="201.27" y1="128.47" x2="224.57" y2="124.56"></line><path class="cls-28" d="M250,164.52c-.63-.94-2-1.12-3.18-1.48-2.14-.67-3.81-2.21-5.87-3a12.67,12.67,0,0,0-7.42-.45,18.58,18.58,0,0,0-2.48.71,34.09,34.09,0,0,0-4.43,2c-5.91,3.14-10.35,10.22-16.15,13.47-2.17,1.22-4.19,2.32-6.18,3.41l13.87,11.09a82.28,82.28,0,0,1,6.84-4.67c3.41-1.82,6.86-1.86,10.69-2.36a57.8,57.8,0,0,0,7.82-1.76,3.44,3.44,0,0,0,2.31-1.35c.49-1-.37-2.16-1.49-2.56a22.43,22.43,0,0,0-4.06-.49c-1-.15-3.67.39-4.26-.52-.31-.47.07-1.06.46-1.49,2.4-2.68,5.44-5.57,9.29-6.38a8.58,8.58,0,0,0,3.39-1.2A2.25,2.25,0,0,0,250,164.52Z"></path><path class="cls-5" d="M167.06,152.12c-14.73-7.21-28.14-2.58-33,6.69-4.38,8.39-13.57,40.84-13.57,40.84C124.94,207.08,167.06,152.12,167.06,152.12Z"></path><path class="cls-5" d="M164.85,154.72l2.21-2.6c-16.63-7.09-31.52,2.22-44.63,20.51-14.14,19.72-21.55,48-21.62,77.91,0,0,2.82,13.43,21.73,20.15,20.07,7.12,48.07,4.11,56.79-14.55,0,0,.18-18.64,6.5-27.81,4.09-5.94,13.62-19.14,20.71-28.6,6.18-8.24,11-27-1.92-33.85a112.09,112.09,0,0,0-10.49-4.8C182.39,164.55,163.34,158.9,164.85,154.72Z"></path><path class="cls-34" d="M164.9,154.79l2.16-2.67c-16.63-7.09-31.52,2.22-44.63,20.51-14.14,19.72-21.55,48-21.62,77.91,0,0,2.82,13.43,21.73,20.15,20.07,7.12,48.07,4.11,56.79-14.55,0,0,.18-18.64,6.5-27.81,4.09-5.94,13.62-19.14,20.71-28.6,6.18-8.24,11-27-1.92-33.85a112.09,112.09,0,0,0-10.49-4.8C182.39,164.55,163.39,159,164.9,154.79Z"></path><path class="cls-35" d="M211.91,187.78a27.19,27.19,0,0,0,.52-10.86h0a58.25,58.25,0,0,1-12.56,17.2c-6.76,6.39-15.12,11.37-21.4,18.15-6.65,7.18-11.43,15.86-17,23.71-2.24,3.15-5.29,9.22-9.44,9.46-5.06.3-9.9-5.24-12.66-9.05-4.4-6.09-8.18-13.69-13.65-19-4.79-4.67-12.19-10.65-18.7-7.94h0q-.73,2.33-1.38,4.71c-.44,1.6-.84,3.21-1.22,4.83a1.16,1.16,0,0,1,0,.18c-.37,1.63-.72,3.25-1,4.89a2,2,0,0,0,0,.26c-.31,1.61-.59,3.24-.84,4.86a141.59,141.59,0,0,0-1.66,21.4s2.82,13.43,21.73,20.15c20.07,7.12,48.07,4.11,56.79-14.55,0,0,.18-18.64,6.5-27.81.63-.93,1.41-2,2.28-3.27h0l.15-.21c.72-1,1.51-2.13,2.35-3.31l.15-.22.06-.09c1.81-2.52,3.83-5.33,5.93-8.21.32-.44.63-.88,1-1.31,2-2.78,4.09-5.59,6-8.24l0,0,1.94-2.62.81-1.08h0c.22-.3.44-.61.66-.94.07-.09.13-.19.2-.29.15-.25.31-.49.46-.75l.21-.33.5-.88.12-.23c.21-.39.42-.8.62-1.21l0-.05,0-.07c.18-.37.35-.75.52-1.14l.12-.28q.24-.54.45-1.11l0-.09a.61.61,0,0,1,.05-.12c.26-.7.5-1.41.73-2.14h0c.23-.73.43-1.47.61-2.22v-.08Z"></path><path class="cls-28" d="M289.06,205.93a31,31,0,0,1-3.46,3.2c-5.08,4.13-11,6.11-17.94,10.14-5.58,3.25-14.19,8-21.45,12A114.72,114.72,0,0,1,222.85,241c-6.74,1.77-10.52,1.85-14.5-7.84-2-4.75-3.51-9.62-5.2-14.46q-3.77-10.78-7.4-21.61s-9-19.83,11.09-29.78c8.73,4.48,12.06,6.29,14.8,15.67,3.27,11.22,8.58,33.38,8.58,33.38A188.78,188.78,0,0,0,251,208.45c2.55-1.14,5.68-1.93,7.49-4a31.21,31.21,0,0,0,3.19-4.45c.86-1.38,1.47-2.89,2.41-4.21a39.5,39.5,0,0,1,6.6-6.51,2.83,2.83,0,0,1,1.59-.85,1.86,1.86,0,0,1,1.62.89c.74,1.15,0,2.29-.33,3.47l-1.29,4A38,38,0,0,0,285,186.11a5.79,5.79,0,0,1,1-1.15,2.09,2.09,0,0,1,1.49-.49c1.34.15,2.67,2.1,2.74,3.21a14.65,14.65,0,0,0,.1,3.38c.29,1.05,1.08,1.91,1.45,2.93a15.11,15.11,0,0,1,.76,3.24,10.27,10.27,0,0,1-2,6.78A16.17,16.17,0,0,1,289.06,205.93Z"></path><path class="cls-5" d="M205.64,166.47c7.65,2.78,13.15,5.91,16.64,16.37s7.26,27.24,7.26,27.24.07,3.51-9.21,8.41a25.19,25.19,0,0,1-18,2.17l-7-20.19S182.94,173.45,205.64,166.47Z"></path><path class="cls-5" d="M160.83,324c-6.14-.27-10.94-4.31-25.53-9.77-26.94-10.06-47.14-18.12-54.84-30.77s-13.14-49.18-11.22-65a19.31,19.31,0,0,1,1.32-5.25L68.67,213l4.9-3.74h0c5-3.69,13.22-.4,19.39,2.61,17.64,8.61,31.43,17,42.33,47.17,8.2,22.72,13.61,43.44,24.93,54.52"></path><path class="cls-36" d="M70.56,213.24,68.67,213l4.9-3.74h0c5-3.69,13.22-.4,19.39,2.61,17.64,8.61,31.43,17,42.33,47.17,8.2,22.72,13.61,43.44,24.93,54.52l.6,10.47c-6.14-.27-10.94-4.31-25.53-9.77-26.94-10.06-47.14-18.12-54.84-30.77s-13.14-49.18-11.22-65A19.31,19.31,0,0,1,70.56,213.24Z"></path><path class="cls-8" d="M87.86,215.76c17.64,8.61,31.43,17,42.33,47.17s16.87,56.88,38.35,62.06c0,0-9.71,3.46-39.48-7.83-9.48-3.59-21-10.15-28.52-14-14.8-7.45-23.77-13.55-25.19-15.83-7.82-12.6-13.14-49.18-11.22-65S79,211.45,87.86,215.76Z"></path></g></g><g id="Speech_Bubble" data-name="Speech Bubble"><g id="Speech_Bubble-2" data-name="Speech Bubble"><path class="cls-5" d="M187,81.82l-4.87-8.22L186,63.46V57.25l-12,6.21v6.21l5.15,8a.8.8,0,0,0,.35.28h0Z"></path><path class="cls-37" d="M187,81.82l-4.87-8.22L186,63.46V57.25l-12,6.21v6.21l5.15,8a.8.8,0,0,0,.35.28h0Z"></path><path class="cls-8" d="M215.62,7.87A7,7,0,0,0,212,2.29L209.1.77a8.75,8.75,0,0,0-7.19,0L157,24.06a7,7,0,0,0-3.6,5.59V74a7,7,0,0,0,3.6,5.59l2.92,1.51a8.77,8.77,0,0,0,7.2,0l14.44-7.48,5.14,8a.81.81,0,0,0,1.39-.12l5.44-14.08L212,57.77a7,7,0,0,0,3.59-5.58Z"></path><path class="cls-37" d="M153.41,74a7,7,0,0,0,3.6,5.59l2.92,1.51a8.89,8.89,0,0,0,6.58.26,2.06,2.06,0,0,1-3-2.12V34.89a6.1,6.1,0,0,1,1.05-3.18l-10.12-5.24a6.1,6.1,0,0,0-1.05,3.18Z"></path><path class="cls-15" d="M215.51,7c-.42-1.37-1.82-1.81-3.48-1l-44.91,23.3a6.7,6.7,0,0,0-2.53,2.41l-10.12-5.24A7,7,0,0,1,157,24.07L201.9.77a8.85,8.85,0,0,1,7.2,0L212,2.29A7.17,7.17,0,0,1,215.51,7Z"></path><g id="_" data-name="&lt;/&gt;"><path class="cls-14" d="M170.13,52.29a2,2,0,0,1,.19-.92,5.78,5.78,0,0,1,.52-.86l9.76-14.16.16-.16a.59.59,0,0,1,.11-.08.31.31,0,0,1,.37,0,.55.55,0,0,1,.14.43V42a2.17,2.17,0,0,1-.28,1.14,6.23,6.23,0,0,1-.5.74l-5,6.89,5,2.07a1.91,1.91,0,0,1,.5.22c.19.1.28.38.28.83v3.88a1.34,1.34,0,0,1-.14.58.93.93,0,0,1-.37.39l-.11,0a.42.42,0,0,1-.16,0l-9.76-4a1.35,1.35,0,0,1-.52-.31,1,1,0,0,1-.19-.73Z"></path><path class="cls-14" d="M191.41,30.42a5,5,0,0,1,.37-.88,1.67,1.67,0,0,1,.71-.68l3.27-1.7a.33.33,0,0,1,.38,0,.56.56,0,0,1,.16.44,1.48,1.48,0,0,1-.05.32L188,59.49a3.83,3.83,0,0,1-.35.85,1.64,1.64,0,0,1-.73.72l-3.19,1.65a.31.31,0,0,1-.38,0,.54.54,0,0,1-.16-.44,1.1,1.1,0,0,1,.05-.33Z"></path><path class="cls-14" d="M209.35,35.52a2.13,2.13,0,0,1-.18.92,5.49,5.49,0,0,1-.53.87l-9.76,14.15a.9.9,0,0,1-.16.17l-.11.07a.3.3,0,0,1-.36,0,.55.55,0,0,1-.15-.43V45.8a2,2,0,0,1,.28-1.12c.19-.3.36-.55.5-.73L203.15,38l-4.27-1.46a2.35,2.35,0,0,1-.5-.23c-.19-.12-.28-.4-.28-.85V30a1.19,1.19,0,0,1,.15-.58.89.89,0,0,1,.36-.4l.11,0h.16l9.76,4a1.29,1.29,0,0,1,.53.32,1.09,1.09,0,0,1,.18.73Z"></path></g></g></g><g id="Text_Boxes" data-name="Text Boxes"><g id="Text_Box" data-name="Text Box"><g id="_2" data-name="{}"><g id="Speech_Bubble-3" data-name="Speech Bubble"><g id="Speach_Bubble" data-name="Speach Bubble"><path class="cls-11" d="M79,2.33l-60.09,31a2.93,2.93,0,0,0-1.49,2.32V65.77a2.88,2.88,0,0,0,1.5,2.3l5.93,3a3.67,3.67,0,0,0,3,0L87.94,40a2.92,2.92,0,0,0,1.49-2.32V7.64a2.88,2.88,0,0,0-1.5-2.3L82,2.32A3.67,3.67,0,0,0,79,2.33Z"></path><path class="cls-4" d="M89.41,7.4c-.12-.67-.73-.91-1.48-.53L27.86,37.92a2.82,2.82,0,0,0-1.06,1l-8.9-4.6a2.91,2.91,0,0,1,1-1L79,2.33a3.67,3.67,0,0,1,3,0l5.93,3A3,3,0,0,1,89.41,7.4Z"></path><path class="cls-3" d="M87.94,6.87,27.85,37.92a2.9,2.9,0,0,0-1.49,2.31V70.31c0,.85.67,1.2,1.49.77L87.94,40a2.92,2.92,0,0,0,1.49-2.32V7.64C89.43,6.79,88.76,6.45,87.94,6.87Z"></path></g></g></g><path class="cls-38" d="M41.21,45.63c0,.23,0,.56,0,1s0,.84,0,1.27,0,.85,0,1.27,0,.72,0,.95a5.57,5.57,0,0,0,.17,1.07,1.59,1.59,0,0,0,.42.76,1.07,1.07,0,0,0,.73.3,2.25,2.25,0,0,0,1.1-.31,4.26,4.26,0,0,0,1.07-.77,5.25,5.25,0,0,0,.69-.87,4.75,4.75,0,0,0,.42-.89c.09-.3.16-.57.22-.81a2.68,2.68,0,0,1,.21-.7.87.87,0,0,1,.44-.4l2.51-1.3a.25.25,0,0,1,.3,0,.46.46,0,0,1,.12.35,9.3,9.3,0,0,1-.48,2.79A12,12,0,0,1,47.87,52,12.78,12.78,0,0,1,46,54.4a9.86,9.86,0,0,1-2.35,1.74,5.42,5.42,0,0,1-2.47.7,3,3,0,0,1-1.85-.59,3.72,3.72,0,0,1-1.18-1.68,8.25,8.25,0,0,1-.47-2.52c0-.71,0-1.48,0-2.31s0-1.64,0-2.41a12.86,12.86,0,0,1,.46-3,13.79,13.79,0,0,1,1.18-2.9,12.23,12.23,0,0,1,1.85-2.51,9.73,9.73,0,0,1,2.48-1.85,5.74,5.74,0,0,1,2.35-.7,3.52,3.52,0,0,1,1.89.41,3.17,3.17,0,0,1,1.26,1.41,5.38,5.38,0,0,1,.48,2.3,1.07,1.07,0,0,1-.12.48.78.78,0,0,1-.3.32l-2.51,1.3c-.22.12-.37.13-.44.06a1.08,1.08,0,0,1-.21-.49,6,6,0,0,0-.22-.57,1.1,1.1,0,0,0-.42-.46A1.22,1.22,0,0,0,44.7,41a2.54,2.54,0,0,0-1.07.34,4.05,4.05,0,0,0-1.1.82,4.72,4.72,0,0,0-1.15,2.25A9.07,9.07,0,0,0,41.21,45.63Z"></path><path class="cls-38" d="M57.54,29.86a5.52,5.52,0,0,1,2.25-.68,3.71,3.71,0,0,1,1.78.34,3,3,0,0,1,1.17,1.09,3.2,3.2,0,0,1,.44,1.55,1,1,0,0,1-.13.47.64.64,0,0,1-.28.32l-2.51,1.3a.85.85,0,0,1-.43.12.77.77,0,0,1-.34-.15l-.18-.17a1,1,0,0,0-.35-.2,1.34,1.34,0,0,0-.58,0,2.4,2.4,0,0,0-.84.29,4.53,4.53,0,0,0-.7.43,3.4,3.4,0,0,0-.6.52,2.31,2.31,0,0,0-.42.63,1.7,1.7,0,0,0-.16.74.75.75,0,0,0,.18.57.84.84,0,0,0,.61.17A5.75,5.75,0,0,0,57.59,37c.48-.1,1.07-.24,1.77-.41a6.4,6.4,0,0,1,1.84-.21A2.15,2.15,0,0,1,63.3,38a6.68,6.68,0,0,1,.26,2,8.21,8.21,0,0,1-.44,2.64,9.91,9.91,0,0,1-1.24,2.45A11.49,11.49,0,0,1,60,47.26a11.3,11.3,0,0,1-2.37,1.62,6.06,6.06,0,0,1-2.38.76,3.64,3.64,0,0,1-1.85-.3,2.83,2.83,0,0,1-1.22-1.13,3.64,3.64,0,0,1-.46-1.75.9.9,0,0,1,.13-.47.64.64,0,0,1,.28-.32l2.51-1.3a.88.88,0,0,1,.42-.13.67.67,0,0,1,.31.12c.05,0,.13.12.23.23a1.46,1.46,0,0,0,.41.27,1.29,1.29,0,0,0,.65.1,2.5,2.5,0,0,0,1-.31,7,7,0,0,0,1.7-1.19A2,2,0,0,0,60,42a.54.54,0,0,0-.25-.53,1.43,1.43,0,0,0-.75-.11,8.49,8.49,0,0,0-1.27.23L55.91,42A3,3,0,0,1,53,41.56a4.35,4.35,0,0,1-.91-3.17A8,8,0,0,1,52.48,36a10,10,0,0,1,1.09-2.39,10.92,10.92,0,0,1,1.71-2.15A9.1,9.1,0,0,1,57.54,29.86Z"></path><path class="cls-38" d="M71.43,22.67A5.37,5.37,0,0,1,73.68,22a3.59,3.59,0,0,1,1.78.34,2.86,2.86,0,0,1,1.17,1.09A3.2,3.2,0,0,1,77.07,25a1,1,0,0,1-.13.47.69.69,0,0,1-.28.32l-2.51,1.3a.85.85,0,0,1-.43.12.91.91,0,0,1-.34-.15l-.18-.17a.9.9,0,0,0-.35-.2,1.5,1.5,0,0,0-.58-.05,2.45,2.45,0,0,0-.84.3,4.64,4.64,0,0,0-1.3.94,2.66,2.66,0,0,0-.42.63,1.78,1.78,0,0,0-.16.75.75.75,0,0,0,.18.57.89.89,0,0,0,.61.17,5.75,5.75,0,0,0,1.14-.15l1.77-.41a6.83,6.83,0,0,1,1.84-.22,2.17,2.17,0,0,1,2.1,1.63,6.68,6.68,0,0,1,.26,2A8.21,8.21,0,0,1,77,35.49a10.09,10.09,0,0,1-1.24,2.45,11.49,11.49,0,0,1-1.88,2.13,11.3,11.3,0,0,1-2.37,1.62,6.41,6.41,0,0,1-2.38.76,3.64,3.64,0,0,1-1.85-.3A2.89,2.89,0,0,1,66.07,41a3.67,3.67,0,0,1-.46-1.75,1,1,0,0,1,.13-.48.66.66,0,0,1,.28-.31l2.51-1.3a.78.78,0,0,1,.42-.13.67.67,0,0,1,.31.12l.23.22a1.29,1.29,0,0,0,.41.28,1.41,1.41,0,0,0,.65.1,2.38,2.38,0,0,0,1-.32,7,7,0,0,0,1.7-1.18,2,2,0,0,0,.68-1.45.55.55,0,0,0-.25-.54,1.43,1.43,0,0,0-.75-.1,8.27,8.27,0,0,0-1.27.22q-.78.2-1.83.42a3,3,0,0,1-2.89-.45A4.35,4.35,0,0,1,66,31.2a8.1,8.1,0,0,1,.37-2.37,10.16,10.16,0,0,1,1.09-2.38,10.64,10.64,0,0,1,1.71-2.15A9.29,9.29,0,0,1,71.43,22.67Z"></path></g><g id="Text_Box-2" data-name="Text Box"><g id="_3" data-name="{}"><g id="Speech_Bubble-4" data-name="Speech Bubble"><g id="Speach_Bubble-2" data-name="Speach Bubble"><path class="cls-11" d="M79,64.84,18.92,95.89a2.9,2.9,0,0,0-1.49,2.31v30.08a2.88,2.88,0,0,0,1.5,2.31l5.93,3a3.71,3.71,0,0,0,3,0l60.09-31a2.9,2.9,0,0,0,1.49-2.31V70.16a2.88,2.88,0,0,0-1.5-2.31l-5.93-3A3.71,3.71,0,0,0,79,64.84Z"></path><path class="cls-4" d="M89.41,69.91c-.12-.67-.73-.91-1.48-.53L27.86,100.43a2.9,2.9,0,0,0-1.06,1l-8.9-4.59a2.83,2.83,0,0,1,1-1L79,64.84a3.67,3.67,0,0,1,3,0l5.93,3A3,3,0,0,1,89.41,69.91Z"></path><path class="cls-3" d="M87.94,69.39l-60.09,31a2.92,2.92,0,0,0-1.49,2.31v30.09c0,.85.67,1.19,1.49.77l60.09-31a2.9,2.9,0,0,0,1.49-2.31V70.16C89.43,69.3,88.76,69,87.94,69.39Z"></path></g></g></g><path class="cls-38" d="M41.5,100.94a.3.3,0,0,1,.36,0,.54.54,0,0,1,.15.42v17.12a1.28,1.28,0,0,1-.15.58.89.89,0,0,1-.36.4L39,120.79a.3.3,0,0,1-.36,0,.55.55,0,0,1-.15-.43v-6.49l-4.26,2.21v6.49a1.16,1.16,0,0,1-.16.58.84.84,0,0,1-.36.4l-2.51,1.3a.31.31,0,0,1-.37,0,.52.52,0,0,1-.15-.43V107.27a1.25,1.25,0,0,1,.15-.58.86.86,0,0,1,.37-.4l2.51-1.3a.28.28,0,0,1,.36,0,.51.51,0,0,1,.16.42v6.39l4.26-2.21v-6.38a1.22,1.22,0,0,1,.15-.58.84.84,0,0,1,.36-.4Z"></path><path class="cls-38" d="M55.52,93.68a.33.33,0,0,1,.37,0,.55.55,0,0,1,.15.43v2.81a1.25,1.25,0,0,1-.15.58,1,1,0,0,1-.37.4l-3.37,1.75v13.59a1.27,1.27,0,0,1-.16.58.84.84,0,0,1-.36.4l-2.51,1.3a.3.3,0,0,1-.37,0,.54.54,0,0,1-.15-.42V101.51l-3.38,1.75a.3.3,0,0,1-.36,0,.51.51,0,0,1-.16-.42V100a1.16,1.16,0,0,1,.16-.58.84.84,0,0,1,.36-.4Z"></path><path class="cls-38" d="M64.34,103a1.23,1.23,0,0,1-.26-.31l-1.81-3.43V108a1.29,1.29,0,0,1-.15.59.89.89,0,0,1-.36.4l-2.52,1.3a.31.31,0,0,1-.36,0,.55.55,0,0,1-.16-.43V92.74a1.24,1.24,0,0,1,.16-.58.92.92,0,0,1,.36-.41l2.23-1.15c.25-.13.45-.13.57,0a1.33,1.33,0,0,1,.25.29l3.11,5.73,3.11-9a5.84,5.84,0,0,1,.25-.55,1.28,1.28,0,0,1,.58-.59l2.22-1.15a.28.28,0,0,1,.36,0,.51.51,0,0,1,.16.42v17.12a1.16,1.16,0,0,1-.16.58.84.84,0,0,1-.36.4l-2.51,1.3a.3.3,0,0,1-.37,0,.54.54,0,0,1-.15-.42V96l-1.8,5.3a4.65,4.65,0,0,1-.26.57,1.05,1.05,0,0,1-.45.46l-1.23.64A.39.39,0,0,1,64.34,103Z"></path><path class="cls-38" d="M85.12,92.66a.31.31,0,0,1,.37,0,.55.55,0,0,1,.15.43v2.8a1.29,1.29,0,0,1-.15.59,1,1,0,0,1-.37.4l-8.88,4.6a.3.3,0,0,1-.36,0,.5.5,0,0,1-.16-.42V83.94a1.19,1.19,0,0,1,.16-.59,1,1,0,0,1,.36-.4l2.51-1.3a.33.33,0,0,1,.37,0,.55.55,0,0,1,.15.43V95.69Z"></path></g><g id="Text_Box-3" data-name="Text Box"><g id="_4" data-name="{}"><g id="Speech_Bubble-5" data-name="Speech Bubble"><g id="Speach_Bubble-3" data-name="Speach Bubble"><path class="cls-11" d="M79,127.36l-60.09,31a2.92,2.92,0,0,0-1.49,2.32V190.8a2.88,2.88,0,0,0,1.5,2.3l5.93,3a3.67,3.67,0,0,0,3,0l60.09-31a2.93,2.93,0,0,0,1.49-2.32V132.67a2.88,2.88,0,0,0-1.5-2.3l-5.93-3A3.67,3.67,0,0,0,79,127.36Z"></path><path class="cls-4" d="M89.41,132.43c-.12-.67-.73-.92-1.48-.53l-60.07,31a2.9,2.9,0,0,0-1.06,1l-8.9-4.59a2.83,2.83,0,0,1,1-.95L79,127.35a3.71,3.71,0,0,1,3,0l5.93,3A3,3,0,0,1,89.41,132.43Z"></path><path class="cls-3" d="M87.94,131.9l-60.09,31a2.93,2.93,0,0,0-1.49,2.32v30.08c0,.85.67,1.2,1.49.77l60.09-31a2.93,2.93,0,0,0,1.49-2.32V132.67C89.43,131.82,88.76,131.47,87.94,131.9Z"></path></g></g></g><path class="cls-38" d="M42.38,170.05c0,.23,0,.56,0,1s0,.83,0,1.26,0,.86,0,1.27,0,.73,0,.95a5.57,5.57,0,0,0,.17,1.07,1.6,1.6,0,0,0,.43.77,1.07,1.07,0,0,0,.72.29,2.15,2.15,0,0,0,1.1-.31,4.26,4.26,0,0,0,1.07-.77,5.25,5.25,0,0,0,.69-.87,4.75,4.75,0,0,0,.42-.89c.09-.3.16-.57.22-.8a2.66,2.66,0,0,1,.21-.71.92.92,0,0,1,.44-.4l2.51-1.3a.24.24,0,0,1,.3,0,.43.43,0,0,1,.12.34,9.3,9.3,0,0,1-.48,2.79A12.27,12.27,0,0,1,49,176.46a13.05,13.05,0,0,1-1.89,2.36,9.86,9.86,0,0,1-2.35,1.74,5.58,5.58,0,0,1-2.47.71,3,3,0,0,1-1.85-.6A3.62,3.62,0,0,1,39.3,179a8.25,8.25,0,0,1-.47-2.52c0-.71,0-1.48,0-2.31s0-1.63,0-2.41a12.78,12.78,0,0,1,.46-3,13.66,13.66,0,0,1,1.18-2.91,12.23,12.23,0,0,1,1.85-2.51,9.73,9.73,0,0,1,2.48-1.85,5.74,5.74,0,0,1,2.35-.7,3.43,3.43,0,0,1,1.89.42,3.06,3.06,0,0,1,1.26,1.41,5.3,5.3,0,0,1,.48,2.29,1.07,1.07,0,0,1-.12.48.72.72,0,0,1-.3.32L47.85,167c-.22.12-.37.14-.44.06a1,1,0,0,1-.21-.49A6,6,0,0,0,47,166a1.1,1.1,0,0,0-.42-.46,1.22,1.22,0,0,0-.69-.16,2.54,2.54,0,0,0-1.07.34,4.05,4.05,0,0,0-1.1.82,4.66,4.66,0,0,0-.72,1.05,4.93,4.93,0,0,0-.43,1.2A9.07,9.07,0,0,0,42.38,170.05Z"></path><path class="cls-38" d="M60,166.52v4.37a1.25,1.25,0,0,1-.15.58.86.86,0,0,1-.37.4l-2.41,1.25a.3.3,0,0,1-.37,0,.54.54,0,0,1-.15-.42v-4.37l-3,1.54a.3.3,0,0,1-.36,0,.54.54,0,0,1-.15-.42v-2.68a1.25,1.25,0,0,1,.15-.58.89.89,0,0,1,.36-.4l3-1.54v-4.37a1.22,1.22,0,0,1,.15-.58.94.94,0,0,1,.37-.41l2.41-1.25a.31.31,0,0,1,.37,0A.52.52,0,0,1,60,158v4.37l3-1.53a.3.3,0,0,1,.36,0,.51.51,0,0,1,.15.42V164a1.29,1.29,0,0,1-.15.59,1,1,0,0,1-.36.4Z"></path><path class="cls-38" d="M72.71,159.93v4.37a1.22,1.22,0,0,1-.15.58.94.94,0,0,1-.37.41l-2.41,1.25a.31.31,0,0,1-.37,0,.52.52,0,0,1-.15-.42v-4.37l-3,1.54a.31.31,0,0,1-.36,0,.55.55,0,0,1-.15-.43v-2.67a1.29,1.29,0,0,1,.15-.59.89.89,0,0,1,.36-.4l3-1.54v-4.37a1.25,1.25,0,0,1,.15-.58.86.86,0,0,1,.37-.4L72.19,151a.3.3,0,0,1,.37,0,.54.54,0,0,1,.15.42v4.37l3-1.53a.3.3,0,0,1,.36,0,.54.54,0,0,1,.15.42v2.68A1.25,1.25,0,0,1,76,158a.89.89,0,0,1-.36.4Z"></path></g></g></g></svg>