<svg xmlns="http://www.w3.org/2000/svg" viewBox="0 0 548 770.47"><defs><style>.cls-1{fill:#f0f0f0;}.cls-2{fill:#e0e0e0;}.cls-3{fill:#27debf;}.cls-4{opacity:0.2;}.cls-10,.cls-21,.cls-22,.cls-5{fill:#fff;}.cls-6{fill:#37474f;}.cls-7{fill:#263238;}.cls-11,.cls-8{fill:#455a64;}.cls-9{opacity:0.15;}.cls-10{opacity:0.7;}.cls-11,.cls-18{opacity:0.8;}.cls-12{fill:#ebebeb;}.cls-13,.cls-19,.cls-21{opacity:0.3;}.cls-14{fill:#03a84e;}.cls-15,.cls-22{opacity:0.4;}.cls-16{opacity:0.5;}.cls-17,.cls-18{fill:#fafafa;}.cls-20{opacity:0.1;}.cls-23{fill:#ffa8a7;}.cls-24{fill:#f5f5f5;}.cls-25{fill:#f28f8f;}</style></defs><g id="Calque_2" data-name="Calque 2"><g id="Floor"><ellipse id="Floor-2" data-name="Floor" class="cls-1" cx="274" cy="547.32" rx="274" ry="223.15"></ellipse></g><g id="Shadows"><path id="Shadow" class="cls-2" d="M361.68,606.15a27.79,27.79,0,0,0-2.19-10.85h0c-.29-.71-.6-1.38-.94-2l-.05-.1a20,20,0,0,0-1-1.77,1.3,1.3,0,0,1-.1-.15,16.37,16.37,0,0,0-1.11-1.51,1.27,1.27,0,0,0-.1-.12,11.29,11.29,0,0,0-1.22-1.26,7,7,0,0,0-.71-.56,3.53,3.53,0,0,0-.32-.21c-.12-.07-.24-.16-.37-.23s-.35-.16-.52-.23l-.14-.07a3.67,3.67,0,0,0-.61-.16h0a2.88,2.88,0,0,0-2.26.48h0c-6.26,4.43-42.34,36.8-58.94,51.4l-8.22,7a2.27,2.27,0,0,0-.61.81l-.06.13a2.9,2.9,0,0,0-.19.5l-.09.35c0,.14-.07.29-.09.45a2.72,2.72,0,0,0,0,.3l-1.36,1-1.21.93a53.53,53.53,0,0,0-9.39-9.81c-11.37-9.27-26.45-14.37-42.45-14.37s-31.08,5.1-42.46,14.37c-11.78,9.6-18.28,22.57-18.28,36.51s6.5,26.9,18.28,36.5c11.38,9.27,26.46,14.37,42.46,14.37s31.08-5.1,42.45-14.37c11.79-9.6,18.28-22.56,18.28-36.5a44.06,44.06,0,0,0-3.86-18l1.09-.83c.89.7,1.71.79,2.33.32l.05,0c5.63-4.38,60.54-37.39,71.77-45.88h0C360.75,611.57,361.6,609.36,361.68,606.15Zm-97.09,94.71c-9.83,8-23.07,12.41-37.27,12.41s-27.44-4.41-37.27-12.41C181.61,694,177,685.53,177,677s4.65-17,13.09-23.83c9.83-8,23.06-12.41,37.27-12.41s27.44,4.41,37.27,12.41c8.44,6.87,13.08,15.34,13.08,23.83S273,694,264.59,700.86Z"></path><path id="Shadow-2" data-name="Shadow" class="cls-2" d="M370.07,410.05l-55.7-45.46a8.48,8.48,0,0,0-10.25,0L21.18,595a5.17,5.17,0,0,0,0,8.35l55.7,45.46a8.48,8.48,0,0,0,10.25,0l106-86.35,16.3,13.36c8.63,7,22.62,7,31.25,0l48.59-39.29c8.63-7,8.63-18.41,0-25.44L273,497.76l97.05-79.36A5.17,5.17,0,0,0,370.07,410.05Z"></path><ellipse id="Shadow-3" data-name="Shadow" class="cls-2" cx="463.5" cy="580.75" rx="54.62" ry="44.48"></ellipse></g><g id="Plant"><g id="Plants"><path class="cls-3" d="M494.53,530.52c0-10.42-1.47-29.65,4.79-47.67,4.53-13.07,12.64-25.76,20.19-24.49,7,1.17,7.66,16.41.94,26.84s-15.27,24.87-17.13,47.93l-4.84,17.12Z"></path><g class="cls-4"><path d="M494.53,530.52c0-10.42-1.47-29.65,4.79-47.67,4.53-13.07,12.64-25.76,20.19-24.49,7,1.17,7.66,16.41.94,26.84s-15.27,24.87-17.13,47.93l-4.84,17.12Z"></path></g><path class="cls-5" d="M497.05,537.85a.71.71,0,0,0,.42-.74c-.85-29.66,6-54.27,19.79-71.19a1,1,0,0,0,0-1,.42.42,0,0,0-.73-.07c-14,17.21-21,42.23-20.13,72.34,0,.4.25.71.53.69Z"></path><path class="cls-3" d="M493.19,567.81a21.37,21.37,0,0,0,13,5.1c7.91.27,10.83-5.61,10.83-5.61s-4-9.67-8.69-11.71a33.54,33.54,0,0,1,14.18,5.24s4.74-.8,5.65-11.34c0,0-3.38-5.6-13.1-7.13,0,0,5.53-3.11,14.05-1.7.66.23,2-13.44,2.26-19.66s-1.5-5.84-5-6.47-15,.74-16.84,3.74-2.08,12.11-2.08,12.11a22.2,22.2,0,0,1-2.43-9.25,9,9,0,0,0-7.12,1.59c-3.6,2.57-4.75,4.63-4.93,8.52s-.41,9.73.7,14.25c0,0-3.28-7.45-3.11-13.93a83.21,83.21,0,0,0-3.35,9.87C485.69,547.1,487.52,560.84,493.19,567.81Z"></path><path class="cls-5" d="M493.32,568.51a.64.64,0,0,0,.36-.48c4.5-19.47,25.69-45.12,33.79-49a.84.84,0,0,0,.32-.92c-.09-.38-.36-.6-.65-.45-8.26,3.92-29.85,30-34.44,49.89a.83.83,0,0,0,.33.92A.42.42,0,0,0,493.32,568.51Z"></path></g></g><g id="Device"><g id="Device-2" data-name="Device"><g id="Monitor"><path class="cls-6" d="M240.72,569.21l41.86-34.14a16.43,16.43,0,0,0,6.47-12.72c0-4.61,0-8.22,0-8.22l-39.39-31.54c-2.3-1.87-4.17-6.43-4.17-10.18v-72.8l-73.12,59.6V532c0,3.75,1.87,8.31,4.17,10.18l32.9,27C218.09,576.24,232.09,576.24,240.72,569.21Z"></path><path class="cls-7" d="M190,544.9v8.18l-13.4-10.89c-2.29-1.87-4.17-6.42-4.17-10.18v-72.8l13.93-11.34c.29,5,.61,10.15.89,15.17l-9.76,8V527.9c0,3.77,1.85,8.31,4.16,10.18Z"></path><path class="cls-8" d="M177.43,527.91c0,3.75,1.87,8.31,4.17,10.18L209.46,561c8.63,7,22.62,7,31.25,0l41.89-34.14c8.63-7,8.63-18.42,0-25.45l-27.88-22.93c-2.3-1.87-4.17-6.43-4.17-10.18V411.42L177.43,471Z"></path><path class="cls-9" d="M263.21,485.41h0l-8.49-6.91c-2.3-1.87-4.17-6.43-4.17-10.18V411.42L177.43,471v56.89c0,3.75,1.87,8.31,4.17,10.18l8.34,6.8Z"></path><path class="cls-6" d="M289.06,514.14v8.21a16.45,16.45,0,0,1-6.47,12.73L240.72,569.2a24.52,24.52,0,0,1-14.92,5.23v-8.18A24.46,24.46,0,0,0,240.72,561l41.87-34.16A16.39,16.39,0,0,0,289.06,514.14Z"></path><path class="cls-8" d="M60,606.46a8.37,8.37,0,0,0,10.1-.27L352.9,375.9c2.88-2.34,5.21-8,5.21-12.72V14c0-4.69-2.19-10.27-4.89-12.47a8.34,8.34,0,0,0-10.09.27L60.36,232.13c-2.88,2.34-5.21,8-5.21,12.72V594C55.15,598.68,57.34,604.26,60,606.46Z"></path><path class="cls-6" d="M70.13,606.18,352.9,375.89c2.88-2.34,5.21-8,5.21-12.72V14c0-4.69-2.33-6.59-5.21-4.24L70.13,240.08c-2.87,2.34-5.2,8-5.2,12.72V601.94C64.92,606.63,67.25,608.53,70.13,606.18Z"></path><path class="cls-3" d="M74.69,555.82V257.38c0-2.81,1.4-6.23,3.13-7.64L345.21,32c1.72-1.41,3.12-.27,3.12,2.54V333c0,2.81-1.4,6.23-3.13,7.64L77.82,558.37C76.09,559.77,74.69,558.63,74.69,555.82Z"></path><path class="cls-10" d="M74.69,555.82V257.38c0-2.81,1.4-6.23,3.13-7.64L345.21,32c1.72-1.41,3.12-.27,3.12,2.54V333c0,2.81-1.4,6.23-3.13,7.64L77.82,558.37C76.09,559.77,74.69,558.63,74.69,555.82Z"></path><path class="cls-3" d="M211,476.91a2.41,2.41,0,0,1-1.57-.58c-1.11-.9-1.72-2.74-1.72-5.18,0-4.74,2.27-10.3,5.18-12.66h0c1.5-1.22,2.94-1.39,4-.49s1.72,2.75,1.72,5.19c0,4.73-2.27,10.29-5.18,12.66A4.06,4.06,0,0,1,211,476.91Zm4.37-17.81a3.14,3.14,0,0,0-1.89.83h0c-2.53,2.06-4.59,7.1-4.59,11.22,0,1.81.4,3.14,1.13,3.74s1.75.42,2.87-.48c2.53-2.07,4.59-7.1,4.59-11.22,0-1.82-.4-3.15-1.13-3.74A1.49,1.49,0,0,0,215.35,459.1Z"></path></g></g></g><g id="Window"><g id="Window-2" data-name="Window"><path class="cls-1" d="M394.78,88.14l-275.39,224V598.47c0,3.81,2.93,6.21,5.27,4.3l4.91-4L389.65,387.24c2.82-2.31,5.13-7.91,5.13-12.54Z"></path><path class="cls-2" d="M393.6,91V374.7c0,4-2.08,9.09-4.55,11.09L129,597.33l-4.9,4a1.85,1.85,0,0,1-1.16.44,2.1,2.1,0,0,1-1.63-.93,4.05,4.05,0,0,1-.7-2.37V313.12L393.6,91m1.18-2.89-275.39,224V598.47c0,2.89,1.69,5,3.52,5a2.75,2.75,0,0,0,1.75-.67l4.91-4L389.65,387.24c2.82-2.31,5.13-7.91,5.13-12.54V88.14Z"></path><polygon class="cls-11" points="388.25 82.82 112.84 306.82 119.39 312.16 394.78 88.14 388.25 82.82"></polygon><path class="cls-12" d="M121.24,602.84a5.28,5.28,0,0,1-1.85-4.37V312.16l-6.55-5.34V591.55c0,.35,0,.71,0,1.06a8.3,8.3,0,0,0,2.68,5.61l5.41,4.41.27.21Z"></path><path class="cls-3" d="M112.84,307V287.63a9.15,9.15,0,0,1,2.56-6.28L385.69,61.55a4.22,4.22,0,0,1,5.12,0l1.41,1.15a9,9,0,0,1,2.56,6.26V88.29l-275.39,224Z"></path><path class="cls-13" d="M112.84,307V287.63a9.15,9.15,0,0,1,2.56-6.28L385.69,61.55a4.22,4.22,0,0,1,5.12,0l1.41,1.15a9,9,0,0,1,2.56,6.26V88.29l-275.39,224Z"></path><path class="cls-14" d="M119.39,293c0-2.31,1.14-5.12,2.56-6.28L392.23,66.87c1.41-1.16,2.55-.24,2.55,2.07V88.29l-275.39,224Z"></path><path class="cls-15" d="M119.39,293c0-2.31,1.14-5.12,2.56-6.28L392.23,66.87c1.41-1.16,2.55-.24,2.55,2.07V88.29l-275.39,224Z"></path><path class="cls-3" d="M120.14,289.39a9.9,9.9,0,0,0-.75,3.58v19.31L112.85,307V287.62a9.73,9.73,0,0,1,.74-3.55Z"></path><path class="cls-16" d="M120.14,289.39a9.9,9.9,0,0,0-.75,3.58v19.31L112.85,307V287.62a9.73,9.73,0,0,1,.74-3.55Z"></path><path class="cls-17" d="M382.76,87.41c0,2.16,1.08,3,2.41,2a8.5,8.5,0,0,0,2.4-5.87c0-2.17-1.08-3-2.4-2A8.46,8.46,0,0,0,382.76,87.41Z"></path><path class="cls-17" d="M373.15,95.24c0,2.16,1.07,3,2.4,2A8.46,8.46,0,0,0,378,91.33c0-2.17-1.08-3-2.41-2A8.46,8.46,0,0,0,373.15,95.24Z"></path><path class="cls-17" d="M363.53,103.07c0,2.16,1.08,3,2.41,2a8.46,8.46,0,0,0,2.4-5.87c0-2.17-1.07-3-2.4-2A8.46,8.46,0,0,0,363.53,103.07Z"></path><path class="cls-17" d="M119.39,312.28V598.47c0,3.81,2.93,6.21,5.27,4.3l4.91-4,60.18-48.94V255.05l-70.36,57.23Z"></path><polygon class="cls-17" points="194.55 259.89 194.55 537.85 389.01 379.48 389.01 101.52 194.55 259.89"></polygon><path class="cls-3" d="M173.64,288.64l-44.88,36.58a5.33,5.33,0,0,0-1.5,3.68v6.59c0,1.35.67,1.9,1.5,1.22l44.88-36.58a5.3,5.3,0,0,0,1.5-3.67v-6.59C175.15,288.51,174.47,288,173.64,288.64Z"></path><path class="cls-18" d="M173.64,288.64l-44.88,36.58a5.33,5.33,0,0,0-1.5,3.68v6.59c0,1.35.67,1.9,1.5,1.22l44.88-36.58a5.3,5.3,0,0,0,1.5-3.67v-6.59C175.15,288.51,174.47,288,173.64,288.64Z"></path><path class="cls-8" d="M183.63,291.26l-1.32-1.8a11.41,11.41,0,0,0,.42-3,4.19,4.19,0,0,0-1-3.2,1.19,1.19,0,0,0-1.61.09c-1.16.95-2.08,3.62-2.08,6.07a4.25,4.25,0,0,0,1,3.2,1.11,1.11,0,0,0,.71.27,1.4,1.4,0,0,0,.9-.37,4.67,4.67,0,0,0,1.18-1.7l1.08,1.47a.45.45,0,0,0,.36.21.48.48,0,0,0,.38-.22A1,1,0,0,0,183.63,291.26Zm-3.5,0c-.23.19-.42.22-.57.1a2.83,2.83,0,0,1-.46-1.93c0-1.91.71-4.1,1.55-4.79a.6.6,0,0,1,.38-.17.26.26,0,0,1,.19.07c.22.17.47.78.47,1.93C181.69,288.39,181,290.58,180.13,291.27Z"></path><path class="cls-8" d="M128.35,356.06l-1,.82c-.06.05-.11,0-.11-.12v-3.84a.43.43,0,0,1,.11-.29l1-.82c.06-.05.11,0,.11.11v3.85A.43.43,0,0,1,128.35,356.06Z"></path><path class="cls-8" d="M129.86,354.83l-1,.82c-.06.05-.11,0-.11-.12v-3.84a.43.43,0,0,1,.11-.29l1-.82c.06-.05.1,0,.1.11v3.85A.42.42,0,0,1,129.86,354.83Z"></path><path class="cls-8" d="M131.37,353.6l-1,.82c-.06.05-.11,0-.11-.11v-3.85a.43.43,0,0,1,.11-.29l1-.82c.06-.05.1,0,.1.12v3.84A.42.42,0,0,1,131.37,353.6Z"></path><path class="cls-8" d="M128.35,361l-1,.82c-.06.05-.11,0-.11-.11v-3.84a.39.39,0,0,1,.11-.29l1-.82c.06,0,.11,0,.11.11v3.85A.38.38,0,0,1,128.35,361Z"></path><path class="cls-8" d="M129.86,359.79l-1,.82c-.06,0-.11,0-.11-.12v-3.84a.43.43,0,0,1,.11-.29l1-.82c.06-.05.1,0,.1.11v3.85A.42.42,0,0,1,129.86,359.79Z"></path><path class="cls-8" d="M131.37,358.56l-1,.82c-.06.05-.11,0-.11-.12v-3.84a.43.43,0,0,1,.11-.29l1-.82c.06-.05.1,0,.1.11v3.85A.42.42,0,0,1,131.37,358.56Z"></path><path class="cls-8" d="M128.51,374.11l-1.24-1.06s0-.2,0-.32l1.24-3.08c.06-.15.15-.13.15,0v4.15C128.66,374,128.57,374.16,128.51,374.11Z"></path><path class="cls-8" d="M128,371.76l1.63-1.33v1.09L128,372.85c-.14.12-.25,0-.25-.34A1.1,1.1,0,0,1,128,371.76Z"></path><polygon class="cls-8" points="129.92 370.18 130.48 369.73 130.48 370.82 129.92 371.28 129.92 370.18"></polygon><path class="cls-8" d="M132,369.05v4a1.1,1.1,0,0,1-.25.75c-.14.11-.25,0-.25-.34V370l-.69.56v-1.09l.94-.77C131.87,368.6,132,368.75,132,369.05Z"></path><path class="cls-8" d="M129,383.13c-1.16,1.12-1.94,4.22-1.72,6.51.21,2.1,1.09,2,1.18,3,0,.1.06.14.12.1l1.1-.88a.52.52,0,0,0,.11-.29c.12-1.28,1.24-2.83,1.25-5.95C131,383.22,130.11,382.05,129,383.13Z"></path><path class="cls-8" d="M129.65,394.35l-1.06.87c-.08.06-.14,0-.14-.14V393.7a.5.5,0,0,1,.14-.36l1.06-.87c.07-.06.13,0,.13.15V394A.51.51,0,0,1,129.65,394.35Z"></path><path class="cls-8" d="M129.25,350.66a11,11,0,0,0-1.93,5.76,8.12,8.12,0,0,0,.28,3.15l-.36,2.63c0,.22.06.33.14.19l1.08-1.65c.44.2,1,0,1.56-.64a11,11,0,0,0,1.93-5.77C132.2,350.65,130.84,348.81,129.25,350.66Zm.38,8.61c-1,.8-1.79-.29-1.79-2.43s.81-4.55,1.79-5.35,1.79.29,1.79,2.43S130.62,358.46,129.63,359.27Z"></path><path class="cls-8" d="M129.25,401.32a11,11,0,0,0-1.93,5.76,8.12,8.12,0,0,0,.28,3.15l-.36,2.63c0,.22.06.33.14.19l1.08-1.65c.44.21,1,0,1.56-.64A11,11,0,0,0,132,405C132.2,401.31,130.84,399.47,129.25,401.32Zm.38,8.61c-1,.8-1.79-.29-1.79-2.43s.81-4.54,1.79-5.35,1.79.29,1.79,2.43S130.62,409.12,129.63,409.93Z"></path><path class="cls-8" d="M130.76,419.88a4.2,4.2,0,0,1-.94,2.83c-.52.42-.95-.15-.95-1.29a4.19,4.19,0,0,1,.95-2.82C130.34,418.18,130.76,418.75,130.76,419.88Z"></path><path class="cls-8" d="M132.38,420.29a2.84,2.84,0,0,1-.62,1.88c-.35.28-.63-.1-.63-.86a2.79,2.79,0,0,1,.63-1.88C132.1,419.15,132.38,419.53,132.38,420.29Z"></path><path class="cls-8" d="M130.93,428l-2.23,1.82v-4a3.12,3.12,0,0,1,.81-2.17l.61-.5c.45-.37.81,0,.81.86Z"></path><path class="cls-8" d="M131.85,422.63l-.61.5v4.59l1.16-.94v-3.57C132.4,422.64,132.16,422.38,131.85,422.63Z"></path><path class="cls-8" d="M127.25,424.47c0,.76.28,1.14.63.86a2.79,2.79,0,0,0,.63-1.88c0-.76-.28-1.14-.63-.86A2.77,2.77,0,0,0,127.25,424.47Z"></path><path class="cls-8" d="M127.78,426l.61-.5V430l-1.16.94v-3.57A2.12,2.12,0,0,1,127.78,426Z"></path><path class="cls-2" d="M138.15,347.05l26.28-21.4c.71-.58,1.28-.17,1.28.91a4.31,4.31,0,0,1-1.28,3L138.15,351c-.71.58-1.28.17-1.28-.91A4.33,4.33,0,0,1,138.15,347.05Z"></path><path class="cls-2" d="M138.15,364.5l26.28-21.4c.71-.58,1.28-.17,1.28.91a4.33,4.33,0,0,1-1.28,3l-26.28,21.4c-.71.58-1.28.17-1.28-.91A4.31,4.31,0,0,1,138.15,364.5Z"></path><path class="cls-2" d="M138.15,382l26.28-21.41c.71-.57,1.28-.16,1.28.92a4.33,4.33,0,0,1-1.28,3l-26.28,21.4c-.71.58-1.28.17-1.28-.91A4.31,4.31,0,0,1,138.15,382Z"></path><path class="cls-2" d="M138.15,399.4,164.43,378c.71-.57,1.28-.16,1.28.92a4.33,4.33,0,0,1-1.28,3l-26.28,21.4c-.71.58-1.28.17-1.28-.91A4.31,4.31,0,0,1,138.15,399.4Z"></path><path class="cls-2" d="M138.15,416.85l26.28-21.41c.71-.57,1.28-.16,1.28.92a4.33,4.33,0,0,1-1.28,3l-26.28,21.4c-.71.58-1.28.17-1.28-.91A4.31,4.31,0,0,1,138.15,416.85Z"></path><path class="cls-8" d="M143,431.09l26.28-21.4c.71-.58,1.28-.17,1.28.92a4.33,4.33,0,0,1-1.28,3L143,435c-.71.58-1.28.17-1.28-.92A4.33,4.33,0,0,1,143,431.09Z"></path><path class="cls-2" d="M143,442.88l26.28-21.4c.71-.58,1.28-.17,1.28.91a4.31,4.31,0,0,1-1.28,3L143,446.8c-.71.57-1.28.16-1.28-.92A4.33,4.33,0,0,1,143,442.88Z"></path><path class="cls-2" d="M143,454.67l26.28-21.4c.71-.58,1.28-.17,1.28.91a4.33,4.33,0,0,1-1.28,3L143,458.58c-.71.58-1.28.17-1.28-.91A4.31,4.31,0,0,1,143,454.67Z"></path><path class="cls-2" d="M148.07,462.16l26.28-21.4c.71-.58,1.28-.17,1.28.91a4.31,4.31,0,0,1-1.28,3l-26.28,21.41c-.7.57-1.28.16-1.28-.92A4.37,4.37,0,0,1,148.07,462.16Z"></path><path class="cls-8" d="M141.93,472.3l2.13-5.31c.09-.2.09-.47,0-.54l-2.13-1.83c-.1-.09-.25.19-.25.47v7.15C141.68,472.52,141.83,472.56,141.93,472.3Z"></path><path class="cls-2" d="M148.07,473.91l26.28-21.41c.71-.57,1.28-.16,1.28.92a4.33,4.33,0,0,1-1.28,3l-26.28,21.4c-.7.58-1.28.17-1.28-.91A4.35,4.35,0,0,1,148.07,473.91Z"></path><path class="cls-8" d="M141.93,484.05l2.13-5.31c.09-.21.09-.47,0-.54l-2.13-1.84c-.1-.09-.25.19-.25.48V484C141.68,484.27,141.83,484.31,141.93,484.05Z"></path><path class="cls-2" d="M148.07,485.65l26.28-21.4c.71-.58,1.28-.17,1.28.91a4.33,4.33,0,0,1-1.28,3l-26.28,21.4c-.7.58-1.28.17-1.28-.92A4.37,4.37,0,0,1,148.07,485.65Z"></path><path class="cls-8" d="M141.93,495.8l2.13-5.32c.09-.2.09-.47,0-.54l-2.13-1.83c-.1-.09-.25.19-.25.47v7.15C141.68,496,141.83,496.05,141.93,495.8Z"></path><path class="cls-2" d="M148.07,497.4,174.35,476c.71-.58,1.28-.17,1.28.91a4.31,4.31,0,0,1-1.28,3l-26.28,21.4c-.7.58-1.28.17-1.28-.91A4.37,4.37,0,0,1,148.07,497.4Z"></path><path class="cls-8" d="M141.93,507.54l2.13-5.31c.09-.2.09-.47,0-.54l-2.13-1.84c-.1-.08-.25.2-.25.48v7.15C141.68,507.76,141.83,507.8,141.93,507.54Z"></path><path class="cls-2" d="M148.07,509.15l26.28-21.41c.71-.57,1.28-.16,1.28.92a4.33,4.33,0,0,1-1.28,3l-26.28,21.4c-.7.58-1.28.17-1.28-.91A4.35,4.35,0,0,1,148.07,509.15Z"></path><path class="cls-8" d="M141.93,519.29l2.13-5.31c.09-.21.09-.47,0-.54l-2.13-1.84c-.1-.09-.25.19-.25.48v7.14C141.68,519.51,141.83,519.54,141.93,519.29Z"></path><path class="cls-2" d="M148.07,520.89l26.28-21.4c.71-.58,1.28-.17,1.28.91a4.31,4.31,0,0,1-1.28,3l-26.28,21.41c-.7.57-1.28.16-1.28-.92A4.37,4.37,0,0,1,148.07,520.89Z"></path><path class="cls-8" d="M141.93,531l2.13-5.31c.09-.2.09-.47,0-.54l-2.13-1.83c-.1-.09-.25.19-.25.47V531C141.68,531.25,141.83,531.29,141.93,531Z"></path><path class="cls-2" d="M148.07,532.64l26.28-21.4c.71-.58,1.28-.17,1.28.91a4.33,4.33,0,0,1-1.28,3l-26.28,21.4c-.7.58-1.28.17-1.28-.91A4.35,4.35,0,0,1,148.07,532.64Z"></path><path class="cls-8" d="M141.93,542.78l2.13-5.31c.09-.2.09-.47,0-.54l-2.13-1.84c-.1-.09-.25.2-.25.48v7.15C141.68,543,141.83,543,141.93,542.78Z"></path><path class="cls-2" d="M148.07,544.38,174.35,523c.71-.57,1.28-.17,1.28.92a4.33,4.33,0,0,1-1.28,3l-26.28,21.4c-.7.58-1.28.17-1.28-.91A4.38,4.38,0,0,1,148.07,544.38Z"></path><path class="cls-8" d="M141.93,554.53l2.13-5.32c.09-.2.09-.47,0-.54l-2.13-1.83c-.1-.09-.25.19-.25.47v7.15C141.68,554.74,141.83,554.78,141.93,554.53Z"></path><path class="cls-1" d="M200.64,298,287,227.66a4.5,4.5,0,0,0,1.28-3.13V193.47c0-1.15-.57-1.62-1.28-1l-86.38,70.33a4.52,4.52,0,0,0-1.28,3.13V297C199.36,298.12,199.93,298.59,200.64,298Z"></path><path class="cls-8" d="M208.17,276.09s0,0,0-.08l.57-3.33-.78.63s0,0-.05,0,0-.05,0-.09v-.61a.25.25,0,0,1,0-.12.15.15,0,0,1,.05-.09l1.25-1s0,0,.05,0,0,.05,0,.1V272a1.89,1.89,0,0,1,0,.32l-.57,3.34,0,.12a.12.12,0,0,1-.05.08l-.36.3s0,0-.05,0A.15.15,0,0,1,208.17,276.09Z"></path><path class="cls-8" d="M210.27,270.47a.48.48,0,0,1,.34-.15.28.28,0,0,1,.23.14,1,1,0,0,1,.14.38,4.41,4.41,0,0,1,.06.55v1c0,.22,0,.43-.06.64a4.15,4.15,0,0,1-.14.61,2.73,2.73,0,0,1-.23.52,1.5,1.5,0,0,1-.34.4.55.55,0,0,1-.34.16.35.35,0,0,1-.24-.15,1.05,1.05,0,0,1-.13-.38,4.21,4.21,0,0,1-.06-.55v-1c0-.21,0-.42.06-.64a3.75,3.75,0,0,1,.13-.6,3.69,3.69,0,0,1,.24-.53A1.67,1.67,0,0,1,210.27,270.47Zm.28,2.3q0-.5,0-1a1.66,1.66,0,0,0,0-.24.58.58,0,0,0-.05-.17s0-.07-.08-.08a.24.24,0,0,0-.13.06.51.51,0,0,0-.13.16.67.67,0,0,0-.09.21,1.72,1.72,0,0,0,0,.24,2.46,2.46,0,0,0,0,.28q0,.48,0,1c0,.09,0,.18,0,.25a.58.58,0,0,0,.05.17.13.13,0,0,0,.09.07.24.24,0,0,0,.13-.06.42.42,0,0,0,.13-.16,1,1,0,0,0,.09-.21,1.5,1.5,0,0,0,0-.24A2.46,2.46,0,0,0,210.55,272.77Z"></path><path class="cls-8" d="M212.09,269.83v.43l0,.34a3,3,0,0,1-.08.32,1.2,1.2,0,0,1-.13.28.91.91,0,0,1-.18.21.29.29,0,0,1-.17.08.16.16,0,0,1-.13-.07.64.64,0,0,1-.08-.2,2.16,2.16,0,0,1,0-.29v-.43c0-.12,0-.23,0-.34a3,3,0,0,1,.08-.32.9.9,0,0,1,.13-.28,1.2,1.2,0,0,1,.17-.21.34.34,0,0,1,.18-.08.16.16,0,0,1,.13.07.47.47,0,0,1,.07.2A1.84,1.84,0,0,1,212.09,269.83Zm.65-1.21s0-.08,0-.11a.16.16,0,0,1,.06-.08l.21-.17s0,0,0,0a.12.12,0,0,1,0,.07s0,0,0,0v0l-1.3,4.77s0,.08,0,.11a.13.13,0,0,1-.06.07l-.21.18s0,0-.05,0a.1.1,0,0,1,0-.07,0,0,0,0,0,0,0,.08.08,0,0,1,0,0Zm-1.17,2a.88.88,0,0,0,0,.2,0,0,0,0,0,.08,0,.24.24,0,0,0,.08-.15.78.78,0,0,0,0-.24,2.41,2.41,0,0,0,0-.38.49.49,0,0,0,0-.2s0,0-.08,0a.32.32,0,0,0-.08.13,1.69,1.69,0,0,0,0,.25A2.41,2.41,0,0,0,211.57,270.66Zm1.74.17v.43c0,.12,0,.23,0,.35a1.55,1.55,0,0,1-.07.31,1.46,1.46,0,0,1-.13.28.74.74,0,0,1-.18.21.28.28,0,0,1-.18.08.13.13,0,0,1-.12-.07.47.47,0,0,1-.08-.19,1.29,1.29,0,0,1,0-.29c0-.08,0-.15,0-.21s0-.14,0-.23a2,2,0,0,1,0-.34,1.67,1.67,0,0,1,.08-.32,1.11,1.11,0,0,1,.12-.27.63.63,0,0,1,.18-.21.24.24,0,0,1,.18-.08c.05,0,.09,0,.13.07a.42.42,0,0,1,.07.19A2,2,0,0,1,213.31,270.83Zm-.53.83a1.46,1.46,0,0,0,0,.2s0,0,.08,0a.22.22,0,0,0,.08-.14.81.81,0,0,0,0-.25v-.37a.43.43,0,0,0,0-.2s0,0-.08,0a.27.27,0,0,0-.08.14q0,.09,0,.24Z"></path><path class="cls-8" d="M208.16,266.52l-.87-1.89a32,32,0,0,0-2,7.79l1.41-.15A23.06,23.06,0,0,1,208.16,266.52Z"></path><path class="cls-8" d="M210.61,262.79v-3.2a13.09,13.09,0,0,0-3.32,5l.87,1.89A9.62,9.62,0,0,1,210.61,262.79Z"></path><path class="cls-8" d="M206.44,275.23a21.26,21.26,0,0,1,.21-3l-1.41.15a32,32,0,0,0-.27,4,22.34,22.34,0,0,0,.27,3.56l1.41-2.13A14.83,14.83,0,0,1,206.44,275.23Z"></path><path class="cls-3" d="M216,263.69c-.37-2.19-1.1-3.73-2.05-4.46s-2.07-.65-3.31.36v3.2a1.83,1.83,0,0,1,2.44-.26,5.22,5.22,0,0,1,1.52,3.29,15.87,15.87,0,0,1,.2,2.62,23.39,23.39,0,0,1-1.72,8.72,9.69,9.69,0,0,1-2.44,3.73,1.85,1.85,0,0,1-2.45.25,5.18,5.18,0,0,1-1.51-3.28L205.24,280c.38,2.18,1.1,3.72,2,4.45s2.08.65,3.32-.35a13.16,13.16,0,0,0,3.31-5,31.49,31.49,0,0,0,2.05-7.8,30,30,0,0,0,.28-4A21,21,0,0,0,216,263.69Z"></path><path class="cls-8" d="M224.68,254.93,251,233.53c.7-.58,1.28-.17,1.28.91a4.35,4.35,0,0,1-1.28,3l-26.28,21.41c-.71.57-1.28.16-1.28-.92A4.33,4.33,0,0,1,224.68,254.93Z"></path><path class="cls-2" d="M224.68,262.82l45.51-37c.7-.58,1.28-.17,1.28.91a4.38,4.38,0,0,1-1.28,3l-45.51,37.05c-.71.57-1.28.16-1.28-.92A4.33,4.33,0,0,1,224.68,262.82Z"></path><path class="cls-1" d="M294.37,221.66l86.38-70.35a4.52,4.52,0,0,0,1.28-3.13V117.12c0-1.15-.58-1.62-1.28-1l-86.38,70.33a4.52,4.52,0,0,0-1.28,3.13v31.08C293.09,221.77,293.66,222.24,294.37,221.66Z"></path><path class="cls-8" d="M302.33,196.89a3.57,3.57,0,0,1,.06-.65,3.28,3.28,0,0,1,.17-.58,2.39,2.39,0,0,1,.25-.48,1.26,1.26,0,0,1,.29-.34.51.51,0,0,1,.28-.13.29.29,0,0,1,.25.08.6.6,0,0,1,.17.31,2,2,0,0,1,.07.54c0,.11,0,.21,0,.32s0,.2-.05.3a2.8,2.8,0,0,1-.06.28,2.68,2.68,0,0,1-.07.27l-.49,1.91,0,.09a.2.2,0,0,1-.06.09l-.42.34s0,0,0,0a.15.15,0,0,1,0-.08.09.09,0,0,1,0-.05,0,0,0,0,1,0,0l.33-1.3a.43.43,0,0,1-.24,0,.33.33,0,0,1-.21-.12.81.81,0,0,1-.14-.31A1.79,1.79,0,0,1,302.33,196.89Zm1.05-.86a.9.9,0,0,0,0-.18.23.23,0,0,0-.07-.11.12.12,0,0,0-.09,0,.16.16,0,0,0-.1,0,.43.43,0,0,0-.11.12.51.51,0,0,0-.09.18.65.65,0,0,0-.06.21.85.85,0,0,0,0,.23.58.58,0,0,0,0,.19.17.17,0,0,0,.06.1.08.08,0,0,0,.09,0,.21.21,0,0,0,.11,0,.63.63,0,0,0,.1-.12.51.51,0,0,0,.09-.18,1,1,0,0,0,.07-.21A1.64,1.64,0,0,0,303.38,196Z"></path><path class="cls-8" d="M304.85,193.41a.61.61,0,0,1,.34-.15.33.33,0,0,1,.24.15,1.27,1.27,0,0,1,.14.38,4.15,4.15,0,0,1,.05.54c0,.17,0,.33,0,.51s0,.35,0,.51,0,.42-.05.63a5,5,0,0,1-.14.61,2.85,2.85,0,0,1-.24.53,1.47,1.47,0,0,1-.34.4.48.48,0,0,1-.34.15.3.3,0,0,1-.23-.14,1,1,0,0,1-.14-.38,3.12,3.12,0,0,1-.05-.55c0-.15,0-.32,0-.5s0-.35,0-.52a4.46,4.46,0,0,1,.05-.63,3.88,3.88,0,0,1,.14-.61,2.48,2.48,0,0,1,.23-.52A1.55,1.55,0,0,1,304.85,193.41Zm.28,2.31q0-.5,0-1a2,2,0,0,0,0-.25.61.61,0,0,0,0-.17.13.13,0,0,0-.09-.07s-.07,0-.13.06a.64.64,0,0,0-.13.15,1.8,1.8,0,0,0-.08.21,1.84,1.84,0,0,0-.05.25,2.46,2.46,0,0,0,0,.28c0,.32,0,.64,0,.95a1.69,1.69,0,0,0,0,.25.34.34,0,0,0,.05.17s.05.07.08.07.08,0,.13,0a.48.48,0,0,0,.13-.16.67.67,0,0,0,.09-.21,1.84,1.84,0,0,0,.05-.25A2.35,2.35,0,0,0,305.13,195.72Z"></path><path class="cls-8" d="M306.67,192.77v.44a2,2,0,0,1,0,.34,1.87,1.87,0,0,1-.08.32,1.11,1.11,0,0,1-.12.27.63.63,0,0,1-.18.21.28.28,0,0,1-.18.08.16.16,0,0,1-.13-.07.47.47,0,0,1-.07-.19,2,2,0,0,1,0-.29v-.44c0-.11,0-.23,0-.34a1.65,1.65,0,0,1,.07-.32,1.69,1.69,0,0,1,.13-.27.63.63,0,0,1,.18-.21.24.24,0,0,1,.18-.08.13.13,0,0,1,.12.07.42.42,0,0,1,.08.19A1.23,1.23,0,0,1,306.67,192.77Zm.66-1.2a1,1,0,0,1,0-.12l.06-.07.22-.18h0a.1.1,0,0,1,0,.07v0s0,0,0,0l-1.3,4.76a.28.28,0,0,1,0,.11.22.22,0,0,1-.05.08l-.22.17s0,0,0,0,0,0,0-.07v0a.06.06,0,0,1,0,0Zm-1.18,2a.46.46,0,0,0,0,.2s0,0,.08,0a.27.27,0,0,0,.08-.14q0-.09,0-.24v-.38a1.46,1.46,0,0,0,0-.2s0,0-.08,0a.22.22,0,0,0-.08.14.78.78,0,0,0,0,.24A2.41,2.41,0,0,0,306.15,193.6Zm1.74.18v.43l0,.34a1.67,1.67,0,0,1-.08.32,1,1,0,0,1-.13.28.85.85,0,0,1-.17.2.3.3,0,0,1-.18.09.17.17,0,0,1-.13-.07.52.52,0,0,1-.07-.2,2,2,0,0,1,0-.29v-.43c0-.12,0-.23,0-.34a1.5,1.5,0,0,1,.07-.32,1.2,1.2,0,0,1,.13-.28.91.91,0,0,1,.18-.21.29.29,0,0,1,.17-.08.14.14,0,0,1,.13.07.64.64,0,0,1,.08.2C307.87,193.57,307.88,193.67,307.89,193.78Zm-.52.82a.43.43,0,0,0,0,.2s0,0,.08,0a.3.3,0,0,0,.08-.14,1.44,1.44,0,0,0,0-.24,2.41,2.41,0,0,0,0-.38.88.88,0,0,0,0-.2,0,0,0,0,0-.08,0,.22.22,0,0,0-.08.14.85.85,0,0,0,0,.25A2.28,2.28,0,0,0,307.37,194.6Z"></path><path class="cls-8" d="M305.11,185.8v-3.2a13.19,13.19,0,0,0-3.31,5l.87,1.88A9.76,9.76,0,0,1,305.11,185.8Z"></path><path class="cls-3" d="M310.48,186.69c-.37-2.18-1.1-3.72-2.05-4.45s-2.08-.65-3.32.36v3.2a1.84,1.84,0,0,1,2.45-.26,5.26,5.26,0,0,1,1.52,3.28,16.09,16.09,0,0,1,.2,2.63,22.64,22.64,0,0,1-.2,3,23.06,23.06,0,0,1-1.52,5.75,9.71,9.71,0,0,1-2.45,3.74,1.83,1.83,0,0,1-2.44.25,5.21,5.21,0,0,1-1.52-3.28,16,16,0,0,1-.2-2.63,22.76,22.76,0,0,1,.2-3,23.26,23.26,0,0,1,1.52-5.76l-.87-1.88a31.41,31.41,0,0,0-2.05,7.79,30.24,30.24,0,0,0-.27,4,21.23,21.23,0,0,0,.27,3.56c.37,2.18,1.1,3.72,2.05,4.45s2.08.65,3.31-.36a13.09,13.09,0,0,0,3.32-5h0a31.41,31.41,0,0,0,2.05-7.79,30.13,30.13,0,0,0,.27-4A21.23,21.23,0,0,0,310.48,186.69Z"></path><path class="cls-8" d="M319.16,177.94l26.28-21.4c.71-.58,1.28-.17,1.28.91a4.33,4.33,0,0,1-1.28,3l-26.28,21.4c-.71.58-1.28.17-1.28-.91A4.35,4.35,0,0,1,319.16,177.94Z"></path><path class="cls-2" d="M319.16,185.83l45.51-37.05c.71-.58,1.28-.17,1.28.91a4.31,4.31,0,0,1-1.28,3l-45.51,37.06c-.71.57-1.28.16-1.28-.92A4.37,4.37,0,0,1,319.16,185.83Z"></path><path class="cls-8" d="M209.44,306.53l18.43-15.06c.71-.58,1.29-.17,1.29.91a4.32,4.32,0,0,1-1.29,3l-18.43,15.06c-.71.58-1.28.17-1.28-.91A4.31,4.31,0,0,1,209.44,306.53Z"></path><path class="cls-2" d="M381.39,176.22h0m-.55.44V375.25a2.71,2.71,0,0,1-.68,1.69L200.55,523.21V324.61a2.71,2.71,0,0,1,.69-1.68l2.25-1.83a6.38,6.38,0,0,0,1.87-4.57V305a2.66,2.66,0,0,1,.69-1.68l25.79-21V293c0,1.94.95,3,1.89,3a1.84,1.84,0,0,0,1.16-.47l146-118.87M232.37,281.92h0m149-107.36a1,1,0,0,0-.57.24L234.29,294.08a.91.91,0,0,1-.57.25c-.42,0-.71-.48-.71-1.29V281.55c0-.82-.29-1.29-.71-1.29a.91.91,0,0,0-.57.25l-26.28,21.4a4.52,4.52,0,0,0-1.28,3.13v11.49a4.56,4.56,0,0,1-1.28,3.13l-2.25,1.82a4.52,4.52,0,0,0-1.28,3.13V524c0,.82.29,1.29.71,1.29a.91.91,0,0,0,.57-.25L380.75,378.38a4.56,4.56,0,0,0,1.28-3.13V175.85c0-.82-.29-1.29-.71-1.29Z"></path><path class="cls-2" d="M210.94,333.28a1,1,0,0,1-.63-.23,2.45,2.45,0,0,1-.67-1.89v-7.57a5.49,5.49,0,0,1,1.58-3.85l14.28-11.62A1.13,1.13,0,0,1,227,308a2.43,2.43,0,0,1,.67,1.9v7.57a5.45,5.45,0,0,1-1.58,3.85l-14.28,11.62A1.43,1.43,0,0,1,210.94,333.28Zm.87-12.1a3.61,3.61,0,0,0-1,2.41v7.57c0,.29,0,.43.08.45s.14,0,.31-.13l14.28-11.62a3.55,3.55,0,0,0,1-2.4v-7.57a.87.87,0,0,0-.08-.45s-.14,0-.32.12Z"></path><path class="cls-2" d="M212.66,324.3l9.31-7.62c.47-.38.85-.11.85.61a2.9,2.9,0,0,1-.85,2l-9.31,7.62c-.47.38-.85.11-.85-.61A2.88,2.88,0,0,1,212.66,324.3Z"></path><path class="cls-8" d="M224.13,315.43l.78,1.55c0,.06.08,0,.11-.1l.77-2.8c0-.14,0-.26,0-.21l-1.55,1.26A.36.36,0,0,0,224.13,315.43Z"></path><path class="cls-3" d="M209,406.64c.68-.55,1.23-.1,1.23,1a4.38,4.38,0,0,1-1.23,3c-.69.55-1.24.1-1.24-1A4.34,4.34,0,0,1,209,406.64Z"></path><path class="cls-3" d="M218.59,391c.68-.55,1.23-.1,1.23,1a4.38,4.38,0,0,1-1.23,3c-.68.55-1.24.1-1.24-1A4.38,4.38,0,0,1,218.59,391Z"></path><path class="cls-3" d="M228.2,383.15c.69-.55,1.24-.1,1.24,1a4.34,4.34,0,0,1-1.24,3c-.68.55-1.23.1-1.23-1A4.38,4.38,0,0,1,228.2,383.15Z"></path><path class="cls-3" d="M237.82,378.76c.68-.55,1.23-.1,1.23,1a4.38,4.38,0,0,1-1.23,3c-.68.55-1.24.1-1.24-1A4.38,4.38,0,0,1,237.82,378.76Z"></path><path class="cls-3" d="M247.44,364.66c.68-.55,1.24-.1,1.24,1a4.38,4.38,0,0,1-1.24,3c-.68.55-1.23.1-1.23-1A4.38,4.38,0,0,1,247.44,364.66Z"></path><path class="cls-3" d="M257.05,359.66c.68-.55,1.23-.1,1.23,1a4.38,4.38,0,0,1-1.23,3c-.69.55-1.24.1-1.24-1A4.34,4.34,0,0,1,257.05,359.66Z"></path><path class="cls-3" d="M266.66,344c.68-.55,1.23-.1,1.23,1a4.38,4.38,0,0,1-1.23,3c-.68.55-1.24.1-1.24-1A4.38,4.38,0,0,1,266.66,344Z"></path><path class="cls-3" d="M276.27,340.09c.69-.56,1.24-.1,1.24,1a4.3,4.3,0,0,1-1.24,3c-.68.56-1.23.11-1.23-1A4.38,4.38,0,0,1,276.27,340.09Z"></path><path class="cls-3" d="M285.89,297c.68-.56,1.23-.11,1.23,1a4.38,4.38,0,0,1-1.23,3c-.68.56-1.24.11-1.24-1A4.34,4.34,0,0,1,285.89,297Z"></path><path class="cls-3" d="M295.5,320.52c.68-.56,1.24-.11,1.24,1a4.38,4.38,0,0,1-1.24,3c-.68.56-1.23.1-1.23-1A4.33,4.33,0,0,1,295.5,320.52Z"></path><path class="cls-3" d="M305.12,320.52c.68-.56,1.23-.11,1.23,1a4.38,4.38,0,0,1-1.23,3c-.69.56-1.24.1-1.24-1A4.3,4.3,0,0,1,305.12,320.52Z"></path><path class="cls-3" d="M314.73,320.52c.68-.56,1.23-.11,1.23,1a4.38,4.38,0,0,1-1.23,3c-.68.56-1.24.11-1.24-1A4.34,4.34,0,0,1,314.73,320.52Z"></path><path class="cls-3" d="M324.34,297c.69-.56,1.24-.11,1.24,1a4.32,4.32,0,0,1-1.24,3c-.68.56-1.23.11-1.23-1A4.33,4.33,0,0,1,324.34,297Z"></path><path class="cls-3" d="M334,292.53c.68-.56,1.23-.11,1.23,1a4.38,4.38,0,0,1-1.23,3c-.69.56-1.24.11-1.24-1A4.3,4.3,0,0,1,334,292.53Z"></path><path class="cls-3" d="M343.6,273.54c.69-.56,1.24-.11,1.24,1a4.34,4.34,0,0,1-1.24,3c-.68.56-1.23.11-1.23-1A4.33,4.33,0,0,1,343.6,273.54Z"></path><ellipse class="cls-3" cx="353.19" cy="275.55" rx="2.34" ry="1.06" transform="translate(-16.06 529.17) rotate(-72.44)"></ellipse><ellipse class="cls-3" cx="362.8" cy="275.55" rx="2.34" ry="1.06" transform="translate(-9.34 538.34) rotate(-72.44)"></ellipse><path class="cls-3" d="M372.41,265.71c.69-.56,1.24-.11,1.24,1a4.32,4.32,0,0,1-1.24,3c-.68.56-1.23.11-1.23-1A4.34,4.34,0,0,1,372.41,265.71Z"></path><path class="cls-3" d="M209,409.09a.23.23,0,0,1-.19-.1.53.53,0,0,1,0-.59l9.71-15.73a.22.22,0,0,1,.07-.09l9.54-7.77,9.6-4.4,9.57-14a.38.38,0,0,1,.11-.11l9.54-5,9.57-15.58a.29.29,0,0,1,.14-.13l9.46-3.85,9.57-42.85a.35.35,0,0,1,.25-.29.3.3,0,0,1,.28.21l9.53,23.28,9.47,0,9.42,0,9.53-23.28a.31.31,0,0,1,.16-.19l9.52-4.46,9.56-18.87a.3.3,0,0,1,.24-.18h19.15l9.55-7.77c.13-.12.32-.05.4.15a.53.53,0,0,1-.11.57L363,275.91a.24.24,0,0,1-.15.06H343.72l-9.52,18.81a.31.31,0,0,1-.15.15l-9.51,4.45L315,322.74a.32.32,0,0,1-.26.21h0l-9.59,0-9.64,0h0a.32.32,0,0,1-.26-.21L286,300.07l-9.41,42.16a.39.39,0,0,1-.2.27l-9.53,3.88L257.27,362a.34.34,0,0,1-.12.12l-9.55,5-9.57,14a.38.38,0,0,1-.12.1l-9.62,4.39-9.44,7.71L209.17,409A.28.28,0,0,1,209,409.09Z"></path><path class="cls-2" d="M209,417.32a.59.59,0,0,1-.52-.42,1.05,1.05,0,0,1,.22-1.14l163.44-133.1c.28-.23.64-.1.81.3a1.05,1.05,0,0,1-.22,1.14L209.27,417.21A.42.42,0,0,1,209,417.32Z"></path><path class="cls-3" d="M209,398.81c.68-.55,1.23-.1,1.23,1a4.38,4.38,0,0,1-1.23,3c-.69.55-1.24.1-1.24-1A4.34,4.34,0,0,1,209,398.81Z"></path><path class="cls-3" d="M218.59,375.32c.68-.55,1.23-.1,1.23,1a4.38,4.38,0,0,1-1.23,3c-.68.55-1.24.1-1.24-1A4.38,4.38,0,0,1,218.59,375.32Z"></path><ellipse class="cls-3" cx="228.2" cy="374.41" rx="2.34" ry="1.06" transform="translate(-197.6 479.05) rotate(-72.44)"></ellipse><path class="cls-3" d="M237.82,344c.68-.55,1.23-.1,1.23,1a4.38,4.38,0,0,1-1.23,3c-.68.55-1.24.1-1.24-1A4.34,4.34,0,0,1,237.82,344Z"></path><path class="cls-3" d="M247.44,351.84c.68-.56,1.24-.11,1.24,1a4.38,4.38,0,0,1-1.24,3c-.68.56-1.23.1-1.23-1A4.33,4.33,0,0,1,247.44,351.84Z"></path><path class="cls-3" d="M257.05,347.92c.68-.56,1.23-.1,1.23,1a4.33,4.33,0,0,1-1.23,3c-.68.56-1.24.11-1.24-1A4.38,4.38,0,0,1,257.05,347.92Z"></path><path class="cls-3" d="M266.66,336.18c.68-.56,1.23-.11,1.23,1a4.38,4.38,0,0,1-1.23,3c-.68.56-1.24.1-1.24-1A4.34,4.34,0,0,1,266.66,336.18Z"></path><path class="cls-3" d="M276.27,320.52c.69-.56,1.24-.11,1.24,1a4.34,4.34,0,0,1-1.24,3c-.68.56-1.23.1-1.23-1A4.33,4.33,0,0,1,276.27,320.52Z"></path><path class="cls-3" d="M285.89,316.6c.68-.55,1.23-.1,1.23,1a4.38,4.38,0,0,1-1.23,3c-.68.55-1.24.1-1.24-1A4.38,4.38,0,0,1,285.89,316.6Z"></path><path class="cls-3" d="M295.5,304.86c.68-.56,1.24-.11,1.24,1a4.38,4.38,0,0,1-1.24,3c-.68.56-1.23.11-1.23-1A4.33,4.33,0,0,1,295.5,304.86Z"></path><path class="cls-3" d="M305.12,304.86c.68-.56,1.23-.11,1.23,1a4.38,4.38,0,0,1-1.23,3c-.69.56-1.24.11-1.24-1A4.3,4.3,0,0,1,305.12,304.86Z"></path><path class="cls-3" d="M314.73,273.54c.68-.56,1.23-.11,1.23,1a4.36,4.36,0,0,1-1.23,3c-.68.56-1.24.11-1.24-1A4.34,4.34,0,0,1,314.73,273.54Z"></path><path class="cls-3" d="M324.34,289.08c.69-.55,1.24-.1,1.24,1a4.34,4.34,0,0,1-1.24,3c-.68.55-1.23.1-1.23-1A4.38,4.38,0,0,1,324.34,289.08Z"></path><path class="cls-3" d="M334,273.54c.68-.56,1.23-.11,1.23,1a4.36,4.36,0,0,1-1.23,3c-.68.56-1.24.11-1.24-1A4.34,4.34,0,0,1,334,273.54Z"></path><path class="cls-3" d="M343.57,265.71c.68-.56,1.24-.11,1.24,1a4.36,4.36,0,0,1-1.24,3c-.68.56-1.23.11-1.23-1A4.34,4.34,0,0,1,343.57,265.71Z"></path><path class="cls-3" d="M353.19,265.71c.68-.56,1.23-.11,1.23,1a4.38,4.38,0,0,1-1.23,3c-.69.56-1.24.11-1.24-1A4.3,4.3,0,0,1,353.19,265.71Z"></path><path class="cls-3" d="M362.8,257.88c.68-.56,1.23-.11,1.23,1a4.36,4.36,0,0,1-1.23,3c-.68.56-1.24.11-1.24-1A4.34,4.34,0,0,1,362.8,257.88Z"></path><path class="cls-3" d="M372.41,257.88c.69-.56,1.24-.11,1.24,1a4.32,4.32,0,0,1-1.24,3c-.68.56-1.23.11-1.23-1A4.33,4.33,0,0,1,372.41,257.88Z"></path><path class="cls-3" d="M209,401.24a.21.21,0,0,1-.15-.05.53.53,0,0,1-.11-.57l9.68-23.55a.33.33,0,0,1,.2-.2L228,374l9.55-28.2a.34.34,0,0,1,.18-.22.2.2,0,0,1,.23,0l9.52,7.75,9.42-3.85,9.55-11.68,9.6-15.63a.27.27,0,0,1,.14-.12l9.55-3.89,9.57-11.69a.26.26,0,0,1,.19-.1h9.42l9.54-31.07a.32.32,0,0,1,.22-.24.24.24,0,0,1,.27.14l9.39,15.29,9.39-15.29a.36.36,0,0,1,.08-.09l9.65-7.86a.2.2,0,0,1,.14-.06h9.54l9.51-7.74a.24.24,0,0,1,.15-.06h9.61c.17,0,.3.19.3.42s-.13.42-.3.42h-9.53l-9.51,7.74a.24.24,0,0,1-.15.06h-9.54l-9.53,7.76-9.58,15.61a.25.25,0,0,1-.45,0l-9.31-15.16L305.39,307c-.05.16-.16.26-.27.26h-9.51l-9.53,11.64a.21.21,0,0,1-.11.08l-9.53,3.88-9.57,15.58-9.63,11.78a.21.21,0,0,1-.11.08l-9.61,3.93a.24.24,0,0,1-.23,0L238,346.6l-9.48,28a.32.32,0,0,1-.2.22l-9.42,2.84L209.23,401A.28.28,0,0,1,209,401.24Z"></path><g class="cls-19"><path d="M209,398.81c.68-.55,1.23-.1,1.23,1a4.38,4.38,0,0,1-1.23,3c-.69.55-1.24.1-1.24-1A4.34,4.34,0,0,1,209,398.81Z"></path><path d="M218.59,375.32c.68-.55,1.23-.1,1.23,1a4.38,4.38,0,0,1-1.23,3c-.68.55-1.24.1-1.24-1A4.38,4.38,0,0,1,218.59,375.32Z"></path><ellipse cx="228.2" cy="374.41" rx="2.34" ry="1.06" transform="translate(-197.6 479.05) rotate(-72.44)"></ellipse><path d="M237.82,344c.68-.55,1.23-.1,1.23,1a4.38,4.38,0,0,1-1.23,3c-.68.55-1.24.1-1.24-1A4.34,4.34,0,0,1,237.82,344Z"></path><path d="M247.44,351.84c.68-.56,1.24-.11,1.24,1a4.38,4.38,0,0,1-1.24,3c-.68.56-1.23.1-1.23-1A4.33,4.33,0,0,1,247.44,351.84Z"></path><path d="M257.05,347.92c.68-.56,1.23-.1,1.23,1a4.33,4.33,0,0,1-1.23,3c-.68.56-1.24.11-1.24-1A4.38,4.38,0,0,1,257.05,347.92Z"></path><path d="M266.66,336.18c.68-.56,1.23-.11,1.23,1a4.38,4.38,0,0,1-1.23,3c-.68.56-1.24.1-1.24-1A4.34,4.34,0,0,1,266.66,336.18Z"></path><path d="M276.27,320.52c.69-.56,1.24-.11,1.24,1a4.34,4.34,0,0,1-1.24,3c-.68.56-1.23.1-1.23-1A4.33,4.33,0,0,1,276.27,320.52Z"></path><path d="M285.89,316.6c.68-.55,1.23-.1,1.23,1a4.38,4.38,0,0,1-1.23,3c-.68.55-1.24.1-1.24-1A4.38,4.38,0,0,1,285.89,316.6Z"></path><path d="M295.5,304.86c.68-.56,1.24-.11,1.24,1a4.38,4.38,0,0,1-1.24,3c-.68.56-1.23.11-1.23-1A4.33,4.33,0,0,1,295.5,304.86Z"></path><path d="M305.12,304.86c.68-.56,1.23-.11,1.23,1a4.38,4.38,0,0,1-1.23,3c-.69.56-1.24.11-1.24-1A4.3,4.3,0,0,1,305.12,304.86Z"></path><path d="M314.73,273.54c.68-.56,1.23-.11,1.23,1a4.36,4.36,0,0,1-1.23,3c-.68.56-1.24.11-1.24-1A4.34,4.34,0,0,1,314.73,273.54Z"></path><path d="M324.34,289.08c.69-.55,1.24-.1,1.24,1a4.34,4.34,0,0,1-1.24,3c-.68.55-1.23.1-1.23-1A4.38,4.38,0,0,1,324.34,289.08Z"></path><path d="M334,273.54c.68-.56,1.23-.11,1.23,1a4.36,4.36,0,0,1-1.23,3c-.68.56-1.24.11-1.24-1A4.34,4.34,0,0,1,334,273.54Z"></path><path d="M343.57,265.71c.68-.56,1.24-.11,1.24,1a4.36,4.36,0,0,1-1.24,3c-.68.56-1.23.11-1.23-1A4.34,4.34,0,0,1,343.57,265.71Z"></path><path d="M353.19,265.71c.68-.56,1.23-.11,1.23,1a4.38,4.38,0,0,1-1.23,3c-.69.56-1.24.11-1.24-1A4.3,4.3,0,0,1,353.19,265.71Z"></path><path d="M362.8,257.88c.68-.56,1.23-.11,1.23,1a4.36,4.36,0,0,1-1.23,3c-.68.56-1.24.11-1.24-1A4.34,4.34,0,0,1,362.8,257.88Z"></path><path d="M372.41,257.88c.69-.56,1.24-.11,1.24,1a4.32,4.32,0,0,1-1.24,3c-.68.56-1.23.11-1.23-1A4.33,4.33,0,0,1,372.41,257.88Z"></path><path d="M209,401.24a.21.21,0,0,1-.15-.05.53.53,0,0,1-.11-.57l9.68-23.55a.33.33,0,0,1,.2-.2L228,374l9.55-28.2a.34.34,0,0,1,.18-.22.2.2,0,0,1,.23,0l9.52,7.75,9.42-3.85,9.55-11.68,9.6-15.63a.27.27,0,0,1,.14-.12l9.55-3.89,9.57-11.69a.26.26,0,0,1,.19-.1h9.42l9.54-31.07a.32.32,0,0,1,.22-.24.24.24,0,0,1,.27.14l9.39,15.29,9.39-15.29a.36.36,0,0,1,.08-.09l9.65-7.86a.2.2,0,0,1,.14-.06h9.54l9.51-7.74a.24.24,0,0,1,.15-.06h9.61c.17,0,.3.19.3.42s-.13.42-.3.42h-9.53l-9.51,7.74a.24.24,0,0,1-.15.06h-9.54l-9.53,7.76-9.58,15.61a.25.25,0,0,1-.45,0l-9.31-15.16L305.39,307c-.05.16-.16.26-.27.26h-9.51l-9.53,11.64a.21.21,0,0,1-.11.08l-9.53,3.88-9.57,15.58-9.63,11.78a.21.21,0,0,1-.11.08l-9.61,3.93a.24.24,0,0,1-.23,0L238,346.6l-9.48,28a.32.32,0,0,1-.2.22l-9.42,2.84L209.23,401A.28.28,0,0,1,209,401.24Z"></path></g><path class="cls-2" d="M214,340.71l9.31-7.62c.47-.38.85-.11.85.61a2.88,2.88,0,0,1-.85,2L214,343.32c-.47.39-.85.11-.85-.61A2.9,2.9,0,0,1,214,340.71Z"></path><path class="cls-3" d="M209,344c.68-.56,1.23-.11,1.23,1a4.38,4.38,0,0,1-1.23,3c-.69.56-1.24.1-1.24-1A4.3,4.3,0,0,1,209,344Z"></path><path class="cls-13" d="M209,344c.68-.56,1.23-.11,1.23,1a4.38,4.38,0,0,1-1.23,3c-.69.56-1.24.1-1.24-1A4.3,4.3,0,0,1,209,344Z"></path><path class="cls-2" d="M214,348.52l9.31-7.62c.47-.38.85-.11.85.61a2.88,2.88,0,0,1-.85,2L214,351.13c-.47.39-.85.11-.85-.61A2.9,2.9,0,0,1,214,348.52Z"></path><path class="cls-3" d="M209,351.83c.68-.55,1.23-.1,1.23,1a4.38,4.38,0,0,1-1.23,3c-.69.55-1.24.1-1.24-1A4.34,4.34,0,0,1,209,351.83Z"></path><path class="cls-3" d="M209,456.17a.26.26,0,0,1-.21-.12.55.55,0,0,1,0-.59l4.88-7.08,4.79-.85,4.84-8.82,4.84.94,4.7-6,4.8-4.06,4.9-9.57,4.86,2.15,4.67-5.89a.24.24,0,0,1,.42,0,.55.55,0,0,1,0,.59l-4.93,6.21L242.74,421,238,430.27l-4.81,4.06-4.86,6.2-4.77-.93-4.78,8.71-4.83.86L209.19,456A.29.29,0,0,1,209,456.17Z"></path><path class="cls-8" d="M210.88,433.27l.12-.16.13-.12a1.09,1.09,0,0,1,.73-.31.74.74,0,0,1,.57.3,2.15,2.15,0,0,1,.38.86,5.35,5.35,0,0,1,.14,1.34,9.44,9.44,0,0,1-.52,3,6.56,6.56,0,0,1-.57,1.25,3.29,3.29,0,0,1-.73.88,1.14,1.14,0,0,1-.73.31.79.79,0,0,1-.58-.31,2.38,2.38,0,0,1-.38-.86,5.79,5.79,0,0,1-.13-1.34,8.12,8.12,0,0,1,0-.86c0-.28.07-.55.12-.82s.11-.52.17-.77.12-.5.18-.73l1.28-5.14.08-.25a.41.41,0,0,1,.14-.23l.4-.33s.08,0,.1,0a.35.35,0,0,1,0,.2.49.49,0,0,1,0,.13s0,.07,0,.1Zm-.9,4.34a3.23,3.23,0,0,0,.08.8,1.4,1.4,0,0,0,.23.55.5.5,0,0,0,.36.22.71.71,0,0,0,.48-.21,2,2,0,0,0,.48-.58,3.75,3.75,0,0,0,.36-.81,5.38,5.38,0,0,0,.23-.92,4.94,4.94,0,0,0,.08-.93,3.27,3.27,0,0,0-.08-.81,1.35,1.35,0,0,0-.23-.54.46.46,0,0,0-.36-.22.74.74,0,0,0-.48.2,2.15,2.15,0,0,0-.48.58,3.7,3.7,0,0,0-.36.81,5.38,5.38,0,0,0-.23.92A5,5,0,0,0,210,437.61Z"></path><path class="cls-8" d="M214.15,435.16a1.89,1.89,0,0,0,.1.41.49.49,0,0,0,.19.28.44.44,0,0,0,.33,0,1.46,1.46,0,0,0,.54-.32,2.59,2.59,0,0,0,.41-.45,3.22,3.22,0,0,0,.35-.64,3.74,3.74,0,0,0,.23-.8,4.52,4.52,0,0,0,.09-.93,2.93,2.93,0,0,0-.08-.76.67.67,0,0,0-.23-.37.4.4,0,0,0-.34,0,1.45,1.45,0,0,0-.43.26l-.59.47c-.05.05-.09,0-.13,0a.38.38,0,0,1-.06-.24v-.55a1.45,1.45,0,0,1,0-.29c0-.09.05-.18.08-.26l1.26-4-2,1.65a.09.09,0,0,1-.14,0,.49.49,0,0,1-.05-.25v-.54a1.27,1.27,0,0,1,.05-.34.53.53,0,0,1,.14-.23l2.77-2.26c.05,0,.09,0,.13,0a.4.4,0,0,1,.06.25v.55a1,1,0,0,1,0,.29,2,2,0,0,1-.09.33l-1.24,3.93a1.28,1.28,0,0,1,.64-.29.61.61,0,0,1,.5.22,1.61,1.61,0,0,1,.32.72,5,5,0,0,1,.12,1.19,8.34,8.34,0,0,1-.14,1.52,7.86,7.86,0,0,1-.38,1.34,6.38,6.38,0,0,1-.55,1.11,3.81,3.81,0,0,1-.68.78,1.84,1.84,0,0,1-.81.42.67.67,0,0,1-.57-.17,1.24,1.24,0,0,1-.33-.6,3.44,3.44,0,0,1-.11-.89.84.84,0,0,1,0-.27.41.41,0,0,1,.11-.19L214,435c.06,0,.1,0,.13,0A.42.42,0,0,1,214.15,435.16Z"></path><path class="cls-8" d="M218.33,431.75c0,.14.06.28.1.41a.54.54,0,0,0,.19.28.43.43,0,0,0,.34,0,1.52,1.52,0,0,0,.53-.32,2.28,2.28,0,0,0,.42-.45,3.21,3.21,0,0,0,.34-.64,4.56,4.56,0,0,0,.24-.79,4.62,4.62,0,0,0,.09-.94,2.61,2.61,0,0,0-.09-.77.58.58,0,0,0-.23-.36.4.4,0,0,0-.34,0,1.58,1.58,0,0,0-.43.26l-.58.48a.08.08,0,0,1-.13,0,.38.38,0,0,1-.06-.24v-.55a1,1,0,0,1,0-.29c0-.09.05-.18.07-.26l1.27-4-2,1.65s-.09,0-.13,0a.38.38,0,0,1-.06-.24v-.56a1,1,0,0,1,.06-.33.53.53,0,0,1,.13-.23l2.77-2.26c.06,0,.1,0,.14,0a.55.55,0,0,1,.05.25v.55a1.5,1.5,0,0,1,0,.29,2,2,0,0,1-.09.33L219.66,427a1.21,1.21,0,0,1,.64-.28.58.58,0,0,1,.51.22,1.74,1.74,0,0,1,.32.71,5,5,0,0,1,.12,1.2,7.58,7.58,0,0,1-.15,1.51,7.05,7.05,0,0,1-.37,1.34,5.4,5.4,0,0,1-.56,1.1,3.38,3.38,0,0,1-.68.79,1.75,1.75,0,0,1-.81.42.65.65,0,0,1-.56-.17,1.19,1.19,0,0,1-.33-.6,3.42,3.42,0,0,1-.12-.89.86.86,0,0,1,.05-.27.34.34,0,0,1,.11-.19l.32-.26c0-.05.09,0,.12,0A.48.48,0,0,1,218.33,431.75Z"></path><path class="cls-2" d="M209.85,461.56l41.54-34c.47-.39.85-.11.85.61a2.9,2.9,0,0,1-.85,2l-41.54,34c-.48.39-.86.12-.86-.6A2.85,2.85,0,0,1,209.85,461.56Z"></path><path class="cls-2" d="M209.85,422.39l9.3-7.62c.48-.39.86-.12.86.6a2.83,2.83,0,0,1-.86,2l-9.3,7.62c-.48.39-.86.12-.86-.6A2.83,2.83,0,0,1,209.85,422.39Z"></path><path class="cls-3" d="M209,503.1a.25.25,0,0,1-.21-.11.55.55,0,0,1,0-.59l4.88-7.08,4.82-.86,4.86-6,4.68-1.8,4.88-13.7,4.89,3.38,4.72-5.86.08,0,4.68-1.25L252,457.67a.26.26,0,0,1,.41-.15.52.52,0,0,1,.11.57L247.63,470l-4.87,1.3-4.89,6.09-4.73-3.27-4.73,13.3-4.87,1.87-4.82,6-4.8.86L209.19,503A.27.27,0,0,1,209,503.1Z"></path><g class="cls-19"><path d="M209,503.1a.25.25,0,0,1-.21-.11.55.55,0,0,1,0-.59l4.88-7.08,4.82-.86,4.86-6,4.68-1.8,4.88-13.7,4.89,3.38,4.72-5.86.08,0,4.68-1.25L252,457.67a.26.26,0,0,1,.41-.15.52.52,0,0,1,.11.57L247.63,470l-4.87,1.3-4.89,6.09-4.73-3.27-4.73,13.3-4.87,1.87-4.82,6-4.8.86L209.19,503A.27.27,0,0,1,209,503.1Z"></path></g><path class="cls-8" d="M211.43,486.48a1.26,1.26,0,0,1-.05.33.53.53,0,0,1-.14.23l-.29.24s-.09,0-.13,0a.44.44,0,0,1-.06-.25V478.6l-1.14,2.81c0,.12-.08.18-.14.21a.09.09,0,0,1-.12-.05l-.17-.34a.55.55,0,0,1,0-.28,1.3,1.3,0,0,1,.07-.33l1.51-3.73a.71.71,0,0,1,.11-.2l.11-.11.29-.23a.09.09,0,0,1,.14,0,.49.49,0,0,1,.05.25Z"></path><path class="cls-8" d="M214.51,478.76a8,8,0,0,0,.31-1.09,6.13,6.13,0,0,0,.11-1.2,2.43,2.43,0,0,0-.22-1.18c-.15-.24-.38-.24-.69,0a2,2,0,0,0-.42.49,4,4,0,0,0-.29.66,7.71,7.71,0,0,0-.18.76c0,.26-.08.53-.11.8a1.38,1.38,0,0,1-.07.32.56.56,0,0,1-.11.18l-.33.26s-.07,0-.1,0a.34.34,0,0,1,0-.2,7.1,7.1,0,0,1,.12-1.24,9.77,9.77,0,0,1,.32-1.32,7.24,7.24,0,0,1,.52-1.2,3,3,0,0,1,.7-.88,1.05,1.05,0,0,1,.68-.29.61.61,0,0,1,.49.3,1.87,1.87,0,0,1,.3.79,6,6,0,0,1,.11,1.19c0,.33,0,.63,0,.91a7.9,7.9,0,0,1-.11.85q-.09.44-.21.87c-.09.29-.19.61-.31.94l-1.57,4.45,2.15-1.75a.09.09,0,0,1,.14,0,.48.48,0,0,1,0,.24V483a1.4,1.4,0,0,1,0,.34.61.61,0,0,1-.14.23l-3,2.46c0,.05-.1,0-.13,0a.38.38,0,0,1-.06-.24v-.55a1.12,1.12,0,0,1,0-.32,2.66,2.66,0,0,1,.12-.39Z"></path><path class="cls-8" d="M220.07,473.22c0,.46,0,.89,0,1.29s0,.83,0,1.3a12.76,12.76,0,0,1-.12,1.75,10.78,10.78,0,0,1-.32,1.6,6.82,6.82,0,0,1-.55,1.34,3.52,3.52,0,0,1-.8,1,1.13,1.13,0,0,1-.8.33.78.78,0,0,1-.55-.44,3.07,3.07,0,0,1-.33-1.07,11.8,11.8,0,0,1-.12-1.56v-2.58a17,17,0,0,1,.12-1.76,9.42,9.42,0,0,1,.33-1.6,6.48,6.48,0,0,1,.55-1.34,3.15,3.15,0,0,1,.8-1,1.05,1.05,0,0,1,.8-.32.78.78,0,0,1,.55.44,3.32,3.32,0,0,1,.32,1.07A9,9,0,0,1,220.07,473.22Zm-2.93,5a4.14,4.14,0,0,0,.3,1.89c.19.31.47.31.84,0a2.8,2.8,0,0,0,.83-1.36,8.6,8.6,0,0,0,.3-2.39c0-.46,0-.89,0-1.29s0-.83,0-1.29a4.22,4.22,0,0,0-.3-1.9c-.19-.31-.47-.31-.83,0a2.76,2.76,0,0,0-.84,1.38,8.55,8.55,0,0,0-.3,2.39v2.58Z"></path><path class="cls-2" d="M209.85,508.49l41.54-33.95c.47-.39.85-.11.85.61a2.9,2.9,0,0,1-.85,2l-41.54,34c-.48.39-.86.11-.86-.61A2.87,2.87,0,0,1,209.85,508.49Z"></path><path class="cls-2" d="M209.85,469.32l9.3-7.62c.48-.38.86-.11.86.61a2.85,2.85,0,0,1-.86,2l-9.3,7.62c-.48.39-.86.11-.86-.61A2.87,2.87,0,0,1,209.85,469.32Z"></path><path class="cls-3" d="M266.66,409.09a.26.26,0,0,1-.23-.16.55.55,0,0,1,0-.58l4.81-5.41,4.84-7.81,4.92-1,4.69-1.49,4.85-8.09,4.78,1.19,4.79-10.7,4.87.11,4.71-5.94a.23.23,0,0,1,.41,0,.55.55,0,0,1,0,.59L305.24,376l-4.77-.11-4.82,10.78-4.84-1.2-4.76,7.93L281.14,395l-4.72,1-4.73,7.62L266.84,409A.24.24,0,0,1,266.66,409.09Z"></path><path class="cls-8" d="M268.56,386.19l.12-.15.13-.13a1.16,1.16,0,0,1,.73-.31.77.77,0,0,1,.58.31,2.22,2.22,0,0,1,.38.86,5.74,5.74,0,0,1,.14,1.34,9.14,9.14,0,0,1-.14,1.56,9.42,9.42,0,0,1-.38,1.48,6.87,6.87,0,0,1-.58,1.25,3.06,3.06,0,0,1-.73.87,1.07,1.07,0,0,1-.73.31.72.72,0,0,1-.57-.31,2.1,2.1,0,0,1-.38-.85,5.8,5.8,0,0,1-.14-1.34,8.14,8.14,0,0,1,.05-.87q0-.42.12-.81c0-.27.1-.53.16-.78s.12-.5.18-.73l1.28-5.14a1.86,1.86,0,0,0,.08-.25.53.53,0,0,1,.14-.23l.4-.32c.05,0,.08,0,.11,0a.56.56,0,0,1,0,.21.51.51,0,0,1,0,.13.24.24,0,0,1,0,.09Zm-.9,4.34a3.83,3.83,0,0,0,.08.81,1.35,1.35,0,0,0,.23.54.47.47,0,0,0,.36.22.72.72,0,0,0,.48-.2,2.15,2.15,0,0,0,.48-.58,4.27,4.27,0,0,0,.37-.81,6.87,6.87,0,0,0,.23-.92,6.07,6.07,0,0,0,.08-.94,3.8,3.8,0,0,0-.08-.8,1.57,1.57,0,0,0-.23-.55.5.5,0,0,0-.37-.22.71.71,0,0,0-.48.21,2.18,2.18,0,0,0-.48.58,4.31,4.31,0,0,0-.36.81,5.38,5.38,0,0,0-.23.92A5.94,5.94,0,0,0,267.66,390.53Z"></path><path class="cls-8" d="M273.43,383.74a7,7,0,0,0,.32-1.1,6.06,6.06,0,0,0,.11-1.2,2.49,2.49,0,0,0-.22-1.18c-.15-.24-.38-.23-.69,0a2,2,0,0,0-.42.49,4,4,0,0,0-.29.66,5.64,5.64,0,0,0-.18.76c-.05.26-.08.53-.11.8a1.38,1.38,0,0,1-.07.32.63.63,0,0,1-.11.18l-.33.26s-.07,0-.11,0a.35.35,0,0,1,0-.2,7.1,7.1,0,0,1,.12-1.24,8.47,8.47,0,0,1,.32-1.32,7.24,7.24,0,0,1,.52-1.2,2.84,2.84,0,0,1,.7-.87,1.05,1.05,0,0,1,.68-.3.61.61,0,0,1,.49.3,2,2,0,0,1,.3.8,5.85,5.85,0,0,1,.11,1.18c0,.33,0,.63,0,.92a6.43,6.43,0,0,1-.12.85c-.05.28-.12.57-.2.86s-.19.61-.31.94l-1.57,4.46,2.15-1.76a.08.08,0,0,1,.13,0,.38.38,0,0,1,.06.24V388a1,1,0,0,1-.06.34.45.45,0,0,1-.13.23l-3,2.47c-.05,0-.1,0-.13,0a.38.38,0,0,1-.06-.24v-.55a1.66,1.66,0,0,1,0-.32l.12-.39Z"></path><path class="cls-8" d="M278.22,374.77s.09,0,.13,0a.38.38,0,0,1,.06.24v.56c0,.09,0,.19,0,.3s0,.24-.06.37l-1.56,10c0,.1,0,.21-.07.31a.44.44,0,0,1-.14.22l-.32.26a.07.07,0,0,1-.12,0,.4.4,0,0,1-.05-.22.2.2,0,0,1,0-.07.72.72,0,0,1,0-.13l1.57-10.05-2.3,1.88c-.06,0-.1,0-.14,0a.39.39,0,0,1-.05-.24v-.55a1,1,0,0,1,.05-.34.45.45,0,0,1,.14-.23Z"></path><path class="cls-2" d="M267.53,414.48l41.54-34c.47-.38.85-.11.85.61a2.88,2.88,0,0,1-.85,2l-41.54,34c-.47.38-.85.11-.85-.61A2.88,2.88,0,0,1,267.53,414.48Z"></path><path class="cls-2" d="M267.53,375.31l9.31-7.62c.47-.38.85-.11.85.61a2.9,2.9,0,0,1-.85,2l-9.31,7.62c-.47.38-.85.11-.85-.61A2.88,2.88,0,0,1,267.53,375.31Z"></path><path class="cls-3" d="M266.66,456a.22.22,0,0,1-.15-.06.52.52,0,0,1-.1-.58L271.32,444l4.94,1.29,4.65-1.8,4.81-8.27,4.78-1.7,4.86-12.21,5,2,4.67-1.25,4.74-5.94a.23.23,0,0,1,.41,0,.55.55,0,0,1,0,.59l-4.86,6.1-.08,0-4.89,1.31-4.65-1.91-4.75,11.95L286.05,436l-4.8,8.27-.09,0-4.87,1.88-.07,0-4.61-1.2-4.7,10.88A.28.28,0,0,1,266.66,456Z"></path><g class="cls-19"><path d="M266.66,456a.22.22,0,0,1-.15-.06.52.52,0,0,1-.1-.58L271.32,444l4.94,1.29,4.65-1.8,4.81-8.27,4.78-1.7,4.86-12.21,5,2,4.67-1.25,4.74-5.94a.23.23,0,0,1,.41,0,.55.55,0,0,1,0,.59l-4.86,6.1-.08,0-4.89,1.31-4.65-1.91-4.75,11.95L286.05,436l-4.8,8.27-.09,0-4.87,1.88-.07,0-4.61-1.2-4.7,10.88A.28.28,0,0,1,266.66,456Z"></path></g><path class="cls-8" d="M268.88,436.34a.46.46,0,0,1-.1.1l-.09.08a1.16,1.16,0,0,1-.65.3.7.7,0,0,1-.56-.24,1.8,1.8,0,0,1-.4-.81,5.5,5.5,0,0,1-.15-1.42,9,9,0,0,1,.14-1.55,9.33,9.33,0,0,1,.38-1.45,6.45,6.45,0,0,1,.57-1.21,2.92,2.92,0,0,1,.67-.83,1.17,1.17,0,0,1,.74-.32.66.66,0,0,1,.55.3,2.17,2.17,0,0,1,.36.85,6.46,6.46,0,0,1,.12,1.34,6.21,6.21,0,0,1-.06.82,8.74,8.74,0,0,1-.14.87c-.05.29-.11.57-.18.85s-.13.53-.18.76l-1.28,5.13c0,.08-.05.16-.08.26a.48.48,0,0,1-.14.23l-.4.32s-.08,0-.1,0a.41.41,0,0,1,0-.21.53.53,0,0,1,0-.13.24.24,0,0,1,0-.09Zm.91-4.32a3.86,3.86,0,0,0-.08-.82,1.46,1.46,0,0,0-.22-.53.48.48,0,0,0-.35-.18.74.74,0,0,0-.45.2,2,2,0,0,0-.44.53,3.71,3.71,0,0,0-.35.75,5.52,5.52,0,0,0-.22.89,5.08,5.08,0,0,0-.08.95,3.33,3.33,0,0,0,.08.83,1.4,1.4,0,0,0,.22.52.44.44,0,0,0,.35.18.67.67,0,0,0,.44-.19,2.2,2.2,0,0,0,.45-.53,5.18,5.18,0,0,0,.35-.75,5.79,5.79,0,0,0,.22-.89A6,6,0,0,0,269.79,432Z"></path><path class="cls-8" d="M271.62,435.19a2.46,2.46,0,0,0,.1.41.49.49,0,0,0,.19.28.4.4,0,0,0,.33,0,1.41,1.41,0,0,0,.54-.31,2.06,2.06,0,0,0,.41-.46,2.71,2.71,0,0,0,.35-.63,4.31,4.31,0,0,0,.32-1.74,2.59,2.59,0,0,0-.08-.76.59.59,0,0,0-.23-.36.37.37,0,0,0-.34,0,1.4,1.4,0,0,0-.43.25l-.58.48a.09.09,0,0,1-.14,0,.55.55,0,0,1-.05-.25v-.55a1,1,0,0,1,0-.28,1.76,1.76,0,0,1,.07-.27l1.27-4-2,1.65a.08.08,0,0,1-.13,0,.38.38,0,0,1-.06-.24v-.55a1.06,1.06,0,0,1,.06-.34.45.45,0,0,1,.13-.23l2.77-2.26a.09.09,0,0,1,.14,0,.48.48,0,0,1,.05.24v.55a1.69,1.69,0,0,1,0,.3c0,.1-.06.21-.1.33L273,430.4a1.13,1.13,0,0,1,.64-.29.59.59,0,0,1,.5.22,1.74,1.74,0,0,1,.33.71,5.7,5.7,0,0,1,.11,1.2,8.31,8.31,0,0,1-.14,1.51,7.37,7.37,0,0,1-.38,1.35,5.65,5.65,0,0,1-.55,1.1,3.12,3.12,0,0,1-.68.78,1.69,1.69,0,0,1-.81.43.67.67,0,0,1-.57-.17,1.43,1.43,0,0,1-.33-.6,3.44,3.44,0,0,1-.11-.89.86.86,0,0,1,0-.28.48.48,0,0,1,.11-.19l.33-.26q.07-.06.12,0A.38.38,0,0,1,271.62,435.19Z"></path><path class="cls-2" d="M267.53,461.42l41.54-34c.47-.38.85-.11.85.61a2.88,2.88,0,0,1-.85,2l-41.54,34c-.47.38-.85.11-.85-.61A2.88,2.88,0,0,1,267.53,461.42Z"></path><path class="cls-2" d="M267.53,422.25l9.31-7.62c.47-.39.85-.11.85.61a2.9,2.9,0,0,1-.85,2l-9.31,7.62c-.47.38-.85.11-.85-.61A2.88,2.88,0,0,1,267.53,422.25Z"></path><path class="cls-3" d="M329.15,332.89c2.05-1.67,3.94-1.75,5.48-.57l-5.48,20.84Z"></path><path class="cls-3" d="M323.67,341.24c1.54-3.69,3.43-6.68,5.48-8.35v20.27Z"></path><path class="cls-3" d="M320.28,354.12a51.93,51.93,0,0,1,3.39-12.88l5.48,11.92Z"></path><path class="cls-13" d="M323.67,341.24a51.93,51.93,0,0,0-3.39,12.88l8.87-1V332.89C327.1,334.56,325.21,337.55,323.67,341.24Z"></path><path class="cls-3" d="M334.63,332.32c1.57,1.2,2.78,3.74,3.39,7.35l-8.87,13.49Z"></path><path class="cls-3" d="M320.28,366.64a34.66,34.66,0,0,1-.46-5.88,49.74,49.74,0,0,1,.46-6.64l8.87-1Z"></path><path class="cls-3" d="M338,352.19a51.93,51.93,0,0,1-3.39,12.88l-5.48-11.91Z"></path><path class="cls-3" d="M329.15,373.42c-2,1.67-3.94,1.76-5.48.58l5.48-20.84Z"></path><path class="cls-3" d="M320.28,366.64l8.87-13.48L323.67,374C322.1,372.79,320.89,370.25,320.28,366.64Z"></path><path class="cls-3" d="M338,339.67a34.7,34.7,0,0,1,.46,5.89,49.59,49.59,0,0,1-.46,6.63l-8.87,1Z"></path><path class="cls-3" d="M334.63,365.07c-1.54,3.69-3.43,6.68-5.48,8.35V353.16Z"></path><path class="cls-8" d="M324.5,383.76l9.31-7.62c.47-.39.85-.11.85.61a2.9,2.9,0,0,1-.85,2l-9.31,7.62c-.48.38-.86.11-.86-.61A2.89,2.89,0,0,1,324.5,383.76Z"></path><path class="cls-2" d="M322.44,393.28l13.42-11c.47-.39.85-.12.85.6a2.88,2.88,0,0,1-.85,2l-13.42,11c-.47.39-.85.11-.85-.61A2.9,2.9,0,0,1,322.44,393.28Z"></path><path class="cls-2" d="M322.44,401.13l13.42-11c.47-.38.85-.11.85.61a2.88,2.88,0,0,1-.85,2l-13.42,11c-.47.38-.85.11-.85-.61A2.9,2.9,0,0,1,322.44,401.13Z"></path><path class="cls-2" d="M322.44,409l13.42-11c.47-.38.85-.11.85.61a2.88,2.88,0,0,1-.85,2l-13.42,11c-.47.38-.85.11-.85-.61A2.88,2.88,0,0,1,322.44,409Z"></path><path class="cls-3" d="M362.8,305.39c2.05-1.67,3.94-1.76,5.48-.58l-5.48,20.84Z"></path><path class="cls-3" d="M357.32,313.73c1.54-3.68,3.43-6.67,5.48-8.34v20.26Z"></path><path class="cls-3" d="M353.93,326.62a52.13,52.13,0,0,1,3.39-12.89l5.48,11.92Z"></path><path class="cls-3" d="M368.28,304.81c1.57,1.21,2.78,3.75,3.39,7.35l-8.87,13.49Z"></path><path class="cls-3" d="M353.93,339.14a34.78,34.78,0,0,1-.46-5.89,49.48,49.48,0,0,1,.46-6.63l8.87-1Z"></path><path class="cls-3" d="M371.67,324.69a52,52,0,0,1-3.39,12.88l-5.48-11.92Z"></path><path class="cls-3" d="M362.8,345.92c-2.05,1.67-3.94,1.75-5.48.57l5.48-20.84Z"></path><path class="cls-3" d="M353.93,339.14l8.87-13.49-5.48,20.84C355.75,345.28,354.54,342.74,353.93,339.14Z"></path><path class="cls-13" d="M357.32,313.73a52.13,52.13,0,0,0-3.39,12.89,49.48,49.48,0,0,0-.46,6.63,34.78,34.78,0,0,0,.46,5.89c.61,3.6,1.82,6.14,3.39,7.35l5.48-20.84V305.39C360.75,307.06,358.86,310.05,357.32,313.73Z"></path><path class="cls-3" d="M371.67,312.16a34.78,34.78,0,0,1,.46,5.89,49.74,49.74,0,0,1-.46,6.64l-8.87,1Z"></path><path class="cls-3" d="M368.28,337.57c-1.54,3.68-3.43,6.68-5.48,8.35V325.65Z"></path><path class="cls-8" d="M358.15,356.35l9.3-7.62c.48-.38.86-.11.86.61a2.85,2.85,0,0,1-.86,2l-9.3,7.62c-.48.39-.86.11-.86-.61A2.87,2.87,0,0,1,358.15,356.35Z"></path><path class="cls-2" d="M356.09,365.88l13.42-11c.47-.38.85-.11.85.61a2.88,2.88,0,0,1-.85,2l-13.42,11c-.47.38-.85.11-.85-.61A2.88,2.88,0,0,1,356.09,365.88Z"></path><path class="cls-2" d="M356.09,373.73l13.42-11c.47-.39.85-.11.85.61a2.9,2.9,0,0,1-.85,2l-13.42,11c-.47.38-.85.11-.85-.61A2.88,2.88,0,0,1,356.09,373.73Z"></path><path class="cls-2" d="M356.09,381.57l13.42-11c.47-.39.85-.11.85.61a2.9,2.9,0,0,1-.85,2l-13.42,11c-.47.39-.85.11-.85-.61A2.9,2.9,0,0,1,356.09,381.57Z"></path></g></g><g id="Magnifying_Glass" data-name="Magnifying Glass"><g id="Glass"><path class="cls-14" d="M362.62,577.11c.15-6.43-2.86-14.39-6.73-17.79-1.91-1.68-3.67-1.93-5-1h0c-7.92,5.6-63.56,55.93-67.12,58.41l0,0c-.67.5-1.09,1.62-1.13,3.24-.08,3.24,1.44,7.25,3.39,9,1,.86,1.87,1,2.54.47l.05,0c5.63-4.38,60.54-37.39,71.77-45.88h0C361.69,582.53,362.54,580.32,362.62,577.11Z"></path><path class="cls-20" d="M360.43,566.26a19,19,0,0,0-4.54-6.94c-1.9-1.68-3.66-1.92-5-1-.26.2-.34.27-.16.12-7.23,5.21-48.64,42.48-62.57,54.59l-.09.08-.57.49-.17.14-.31.28-.38.32,0,0c-1.47,1.26-2.46,2.09-2.85,2.36l0,0a1.91,1.91,0,0,0-.33.36,4.8,4.8,0,0,0-.8,2.88,10.67,10.67,0,0,0,0,1.12c0,.15,0,.29,0,.44s.05.46.09.69.07.36.1.54.1.43.16.65.07.32.12.48a.19.19,0,0,1,0,.08Z"></path><path class="cls-3" d="M286,629c-1.94-1.7-3.45-5.7-3.37-8.92s1.71-4.46,3.65-2.76,3.45,5.71,3.38,8.93S287.94,630.69,286,629Z"></path><path class="cls-6" d="M269.37,631.14c-.06,2.48,1.1,5.55,2.59,6.86.74.66,1.43.75,1.93.37h0l13.46-10.11h0a3.15,3.15,0,0,0,.86-2.47c.06-2.48-1.1-5.55-2.59-6.86-.75-.65-1.44-.75-1.94-.36h0l-13.46,10.1h0A3.16,3.16,0,0,0,269.37,631.14Z"></path><path class="cls-7" d="M270.24,628.66a3.16,3.16,0,0,0-.87,2.48,10,10,0,0,0,.4,2.93L287.13,621a6.71,6.71,0,0,0-1.49-2.09c-.75-.65-1.44-.75-1.94-.36l-13.46,10.1Z"></path><path class="cls-14" d="M286.63,648c0-12.17-5.7-24.33-17.09-33.62-22.8-18.56-59.76-18.56-82.55,0-11.4,9.29-17.1,21.45-17.1,33.62h0v22.41c0,12.16,5.7,24.33,17.1,33.61,22.8,18.56,59.75,18.56,82.55,0,11.39-9.28,17.09-21.45,17.09-33.61V648Zm-96.82-26.72c10.18-8.29,23.84-12.86,38.45-12.86s28.27,4.57,38.45,12.86c9.21,7.49,14.28,17,14.28,26.72s-5.07,19.22-14.28,26.71c-10.18,8.29-23.83,12.86-38.45,12.86S200,683,189.81,674.71c-9.2-7.49-14.27-17-14.27-26.71S180.61,628.77,189.81,621.28Z"></path><path class="cls-21" d="M187,681.61c22.79,18.56,59.75,18.56,82.54,0s22.8-48.66,0-67.23-59.75-18.56-82.54,0S164.19,663.05,187,681.61ZM175.54,648c0-9.74,5.06-19.23,14.27-26.72,10.18-8.29,23.83-12.86,38.45-12.86s28.27,4.57,38.45,12.86c9.2,7.49,14.27,17,14.27,26.72s-5.07,19.22-14.27,26.71c-10.18,8.29-23.84,12.86-38.45,12.86S200,683,189.81,674.71C180.61,667.22,175.54,657.73,175.54,648Z"></path><path class="cls-3" d="M175.53,648a29.22,29.22,0,0,0,2.28,11.22,39.61,39.61,0,0,1,12-15.51c10.17-8.3,23.83-12.87,38.45-12.87s28.27,4.57,38.45,12.87a39.73,39.73,0,0,1,12,15.51A29.4,29.4,0,0,0,281,648c0-9.73-5.07-19.22-14.28-26.72-10.18-8.28-23.84-12.85-38.45-12.85S200,613,189.81,621.27C180.6,628.77,175.53,638.26,175.53,648Z"></path><path class="cls-20" d="M175.53,648a29.22,29.22,0,0,0,2.28,11.22,39.61,39.61,0,0,1,12-15.51c10.17-8.3,23.83-12.87,38.45-12.87s28.27,4.57,38.45,12.87a39.73,39.73,0,0,1,12,15.51A29.4,29.4,0,0,0,281,648c0-9.73-5.07-19.22-14.28-26.72-10.18-8.28-23.84-12.85-38.45-12.85S200,613,189.81,621.27C180.6,628.77,175.53,638.26,175.53,648Z"></path><path class="cls-22" d="M189.81,631.43c10.18-8.3,23.83-12.86,38.45-12.86s28.27,4.56,38.45,12.86c7.59,6.18,12.36,13.72,13.8,21.64-1.44,7.92-6.21,15.46-13.8,21.64-10.18,8.29-23.84,12.86-38.45,12.86S200,683,189.81,674.71c-7.6-6.18-12.37-13.72-13.8-21.64C177.44,645.15,182.21,637.61,189.81,631.43Z"></path><path class="cls-20" d="M214.51,694.21V716.6A62.39,62.39,0,0,1,187,704c-11.4-9.28-17.1-21.45-17.1-33.62V648a39.58,39.58,0,0,1,.7-7.34h0c-2.76,14.48,2.7,29.8,16.39,41A62.64,62.64,0,0,0,214.51,694.21Z"></path></g></g><g id="Character"><g id="Character-2" data-name="Character"><path class="cls-7" d="M492.7,557.38c.69.4.84,2.28.88,6,0,2.82.39,7.75-2,8.66s-5.77.29-7.22-2.41c-1.82-3.37-3-6.33-5.64-10.46-2.26-3.58-4.72-6.93-5.57-11.88-.78-4.47,0-6.37,2.13-7.6,3-1.68,7.53,4.27,9.83,5.26C487.13,545.8,492,557,492.7,557.38Z"></path><path class="cls-23" d="M492.76,553.94l-.08,4.57s-3.42,3.54-8.19,0c-.13-.45-.74-6.56-.74-6.56Z"></path><path class="cls-7" d="M466.05,582.89s.86,4,1.31,7.49c.35,2.78.85,7.41.13,9.47s-3.42,3.31-7.56,3.14c-2.69-.12-6.92,2.32-9.82,4.49s-9.17,3-12.29,2.35c-3.68-.73-7.46-3.87-8-6.05s.27-4.38,9.05-9.34c.08,0,12.17-5.17,16.49-11.58Z"></path><path class="cls-23" d="M466.12,578s-.06,3.39-.08,5.33-1.69,4.77-5.89,4.43c-2.94-.25-5-1.43-4.81-4.85l.08-5Z"></path><path class="cls-6" d="M495.83,493.36a168.72,168.72,0,0,0-3.44-23.92s1.48-20.5,2.35-39.95c.93-21,1.8-31.83-1.13-62.18,0,0-45.67-5.79-46.91,18.5s.52,86.25.92,96.95,1.55,20.18,2.84,37.54c1.27,17.14,5,57.61,5,57.61,5.42,4.37,10.7,0,10.7,0s4.17-48.51,4-60.84a145.41,145.41,0,0,0-2.89-27s1.24-20,2.32-37.43,2.07-25.76,2.38-33.33l1.05-.69s.57,30.11,1,40.81,1.44,21,3.31,40.88c1.63,17.27,6.7,53.86,6.7,53.86,5.43,4.36,8.79-.27,8.79-.27S497.08,508.34,495.83,493.36Z"></path><path class="cls-7" d="M471.94,419.35s11.8-7.75,17.76-14.88c0,0-5.6,10.61-12.79,15.16,0,0-3.13,37.29-3.11,36.55l-.87-36.86Z"></path><polygon class="cls-23" points="463.76 280.75 465.54 303 480.43 301.94 478.77 275.98 463.76 280.75"></polygon><path class="cls-6" d="M486,289.27c5.55-.36,8.36.81,10.85,7.56s3.47,26.9,4.33,37.29,1.09,17.72-2,18.79-14.83,1.53-14.83,1.53Z"></path><path class="cls-8" d="M495.4,300.8c-.8-6.23-6.6-12.77-12-11.52-1.26.29-2.49.58-3.68.88-.65,3.74-7.92,6.08-14.87,3.77-2.09.78-9,2.6-10.72,3.41-5,2.34-7,9.27-7.83,32.23,0,0,.4,52,.2,62.35,12.33,7.34,25.26,7.53,32.44,5.56,15-4.11,16.89-12.76,16.89-12.76l-2.23-23.79S497.22,314.88,495.4,300.8Z"></path><path class="cls-6" d="M464.35,288.09l.11,1.4a15.82,15.82,0,0,0,9.14,0c4.84-1.52,5.82-3.45,5.82-3.45l-.11-1.58s1.21-.63,1.84,2,.7,3.19.7,3.19.56,4.78-5.13,7.21a13.46,13.46,0,0,1-14.16-2.18l-2.23.66s1.93-6.27,2.51-7.54,1.39-1.09,1.39-1.09Z"></path><polygon class="cls-8" points="418.89 264.24 389.36 285.98 404.03 342.56 431.59 320.79 418.89 264.24"></polygon><polygon class="cls-24" points="417.53 269.78 392.76 288.01 405.75 336.66 428.86 318.4 417.53 269.78"></polygon><path class="cls-9" d="M412.31,275s-.22-.78-.48-1.73-2.33-.39-4.61,1.27l-4.36,3.18c-2.28,1.66-3.91,3.78-3.64,4.73l.48,1.73Z"></path><path class="cls-3" d="M411.83,268.1c-.16-.59-1.06-.5-2,.22l-1.7,1.3s-1.06-3.73-5-1.15a6.94,6.94,0,0,0-3,6.92l-1.81,1.41c-1,.78-1.71,1.9-1.59,2.51l.22,1.1,15.21-11.19Z"></path><path class="cls-3" d="M410.19,270.62c-1.42,1-2,1.45-1.57,2.93.47,1.68.9,2.89.9,2.89l-6.73,5s-.56-2.14-.8-3-.74-1.23-1.81-.44l-.4-.59,10.61-7.63Z"></path><path class="cls-13" d="M410.19,270.62c-1.42,1-2,1.45-1.57,2.93.47,1.68.9,2.89.9,2.89l-6.73,5s-.56-2.14-.8-3-.74-1.23-1.81-.44l-.4-.59,10.61-7.63Z"></path><path class="cls-3" d="M412.6,275.12s-.22-.78-.48-1.73-2.33-.39-4.61,1.27l-4.36,3.18c-2.28,1.66-3.91,3.78-3.65,4.73l.48,1.73Z"></path><path class="cls-23" d="M454.09,297.34c-6.82.84-9.72,2.59-14.84,15.61-5.55,14.13-16.23,39.69-17.58,42.92-1.89,4.49-2.24,11.32-.62,15.45,1.52,3.85,6.34,5.61,11.8-3.09,6.49-10.35,18.58-35.62,18.58-35.62S461.69,313.5,454.09,297.34Z"></path><path class="cls-23" d="M423.88,374.28c-5.23-.89-17.43-24.25-20.9-31.88a50.87,50.87,0,0,0-10.57-15.74c-5.54-5.76-4.73-14.62-2.32-22.73.84-2.81,3.67-1,3.67-1l1,3.86,1.73,6.67c1.17,1.53,1.84,2,1.92,1.57.14-.86-.86-4.45-.84-8.18,0-4.5,2.26-1.54,2.93,0a68.29,68.29,0,0,1,2.36,7.43c1.11,4,.65,8.1,2,10.85s19.56,27.35,19.56,27.35Z"></path><path class="cls-6" d="M455.4,296.84c-4.13-.14-9.09.79-12.94,7.83S423.24,350,423.24,350l-8.64-10.91A21.6,21.6,0,0,0,408,352.35a140.37,140.37,0,0,0,7.82,15c3.65,5.65,7.72,9.57,11.06,7.83s6.74-5.46,13.93-19.57,15-30.77,15-30.77S460.75,308.53,455.4,296.84Z"></path><path class="cls-25" d="M453.27,253.53s-3.72,8-3.29,8.73,3.15,1.49,3.15,1.49Z"></path><path class="cls-7" d="M455,258.64c-2.44,0-4.43-2.8-4.43-6.25s2-6.25,4.43-6.25,4.43,2.8,4.43,6.25S457.45,258.64,455,258.64Zm0-11.11c-1.9,0-3.45,2.18-3.45,4.86s1.55,4.86,3.45,4.86,3.44-2.18,3.44-4.86S456.91,247.53,455,247.53Z"></path><path class="cls-23" d="M463.59,231.51c-7.52,2.24-9.69,6.91-10.4,23.76-.74,17.62.53,23.16,2.17,25.53,1.11,1.6,7.26,1.89,10.37.68,3.88-1.51,12.67-5.9,16.78-14.76,4.84-10.42,6.11-24.55.93-30.35C476.15,228.21,466.65,230.6,463.59,231.51Z"></path><path class="cls-25" d="M463.86,282l-.35-3.25s-3.62,2.94-7.72,2.47C457.23,282.2,461,282.48,463.86,282Z"></path><polygon class="cls-7" points="450.99 251.09 464.37 253.53 463.83 254.85 450.99 252.5 450.99 251.09"></polygon><path class="cls-7" d="M451.9,238.32a3,3,0,0,0,1.7-.15,4.81,4.81,0,0,0,.92,4.43,2.9,2.9,0,0,0,3.37.63,6.35,6.35,0,0,0-.37,3.28c.36,2.31,2.21,4.31,3.9,4,.08,2.47.1,4.88,2,6,0,0,1.19-6.52,5.08-5.7s4.44,7.87,2,12.15-4.74,2.65-4.77,2.63a13,13,0,0,1,.38,2.63,25.2,25.2,0,0,0,1,3.56,17,17,0,0,0,3.52,5.82c2,2.12,4.53,3.64,7.06,2.78a8.8,8.8,0,0,0,5.15-5.84,7.11,7.11,0,0,1,.84-2.11,4.41,4.41,0,0,1,1.91-1.17,7.11,7.11,0,0,0,3.42-4.57,11.05,11.05,0,0,0-.23-6.64c1.84-.66,3.36-2.88,3.77-5.5a9.31,9.31,0,0,0-1.8-7.22c2.21-1.91,3.35-6,2.67-9.49a7.91,7.91,0,0,0-4.45-6c-1.52-.62-.93-1-1.4-3.06a8.48,8.48,0,0,0-1.76-3.68,4.36,4.36,0,0,0-5.17-1.36c-.34-2.73-1.89-5-3.76-5.7a3.82,3.82,0,0,0-2.66-.15,4,4,0,0,0-2.14,1.89c-.79-1.09-1-2.54-2-3.54a4.8,4.8,0,0,0-3.42-1.6c-2,0-4,1.65-5,4.13-1.36-2-3.3-3.23-5.26-3.12a5.91,5.91,0,0,0-4.79,4.13,9.2,9.2,0,0,0,.65,7.72,6.82,6.82,0,0,0-2.5,9.08,3.34,3.34,0,0,0,1.47,1.54A3.13,3.13,0,0,0,451.9,238.32Z"></path><path class="cls-7" d="M463.31,260.19l.14-7.37c-1.44,0-2.65,1.55-2.68,3.59S461.87,260.13,463.31,260.19Z"></path></g></g></g></svg>