<svg xmlns="http://www.w3.org/2000/svg" viewBox="0 0 500 389.28"><defs><style>.cls-1{fill:#f5f5f5;}.cls-2{fill:#e0e0e0;}.cls-3{opacity:0.3;}.cls-4{fill:#27debf;}.cls-10,.cls-17,.cls-24,.cls-5{fill:#fff;}.cls-5,.cls-6{opacity:0.4;}.cls-14,.cls-7{fill:none;}.cls-19,.cls-8{opacity:0.2;}.cls-9{opacity:0.1;}.cls-10,.cls-22{opacity:0.5;}.cls-11{fill:#37474f;}.cls-12{fill:#455a64;}.cls-13{fill:#263238;}.cls-14{stroke:#e6e6e6;stroke-miterlimit:10;}.cls-15{fill:#ebebeb;}.cls-16{fill:#fafafa;}.cls-18,.cls-19{fill:#03a84e;}.cls-20{fill:#ffa8a7;}.cls-21{fill:#f28f8f;}.cls-23,.cls-24{opacity:0.7;}.cls-25{fill:#20ba62;}</style></defs><g id="Calque_2" data-name="Calque 2"><g id="Floor"><ellipse id="Floor-2" data-name="Floor" class="cls-1" cx="250" cy="256.16" rx="250" ry="133.12"></ellipse></g><g id="Shadow"><ellipse class="cls-2" cx="336.98" cy="333.18" rx="55.13" ry="26.93"></ellipse></g><g id="Mesh"><path class="cls-3" d="M27.71,138.81l.22.11-.28-.13-.5-.25Z"></path><path class="cls-4" d="M23.87,136.33a.63.63,0,0,0,0,.36.45.45,0,0,1,0-.36l.78-2.2Z"></path><path class="cls-5" d="M23.87,136.33a.63.63,0,0,0,0,.36.45.45,0,0,1,0-.36l.78-2.2Z"></path><path class="cls-4" d="M101.23,104.6,86.71,97.48l-.17-.09a.77.77,0,0,0-.27,0l-1.12-.54-1.55-.76L77.34,93l-1-.48-2-1a1.29,1.29,0,0,0-.72-.11L66.36,92a2.36,2.36,0,0,0-1.22.49,1.13,1.13,0,0,0-.38.45l-4,9s0,0,0,.06l-.11.17a.8.8,0,0,1-.15.18,3.45,3.45,0,0,1-.28.26,4,4,0,0,1-.75.51l-.27.13c-.77.3-1.55.65-2.33,1l-7.67-3.76a.7.7,0,0,0-.33-.08,1.3,1.3,0,0,0-.85.38h0l-4.8,4.29L40,108a2.13,2.13,0,0,0-.57.85,1,1,0,0,0-.06.64l2.25,6.4a.58.58,0,0,1,0,.23.84.84,0,0,1,0,.41,1.45,1.45,0,0,1-.07.26s0,0,0,.06a1.17,1.17,0,0,1,0,.11.75.75,0,0,1-.1.2,1.17,1.17,0,0,1-.17.28,46,46,0,0,0-3.69,5.43,1.12,1.12,0,0,1-.18.21,2.23,2.23,0,0,1-.22.21,3.12,3.12,0,0,1-1.35.67l-6.87,1.4a2.58,2.58,0,0,0-1.31.71,1.22,1.22,0,0,0-.25.39l-.42,1.22-2.26,6.43-.77,2.2a.63.63,0,0,0,0,.36.5.5,0,0,0,.1.19.52.52,0,0,0,.17.16l.12.07,1.16.57.32.15h0l.92.45.5.25.56.27.22.11.6.29,3.34,1.63,0,0A20.84,20.84,0,0,0,32,143.5a1.72,1.72,0,0,1-.14.72,2.72,2.72,0,0,1-.53.84l-7,7.18a1.63,1.63,0,0,0-.44.74c0,.07,0,.14-.05.21a.8.8,0,0,0,.06.52l3.33,6.23a.53.53,0,0,0,.1.12.28.28,0,0,0,.12.08l0,0c.27.13,2.41,1.17,5,2.44l1.31.64,4.84,2.37.57.28,3,1.47a.41.41,0,0,1-.18-.19L38.7,161a1,1,0,0,1,0-.75,2,2,0,0,1,.44-.72l7-7.18a2.87,2.87,0,0,0,.55-.86,1.49,1.49,0,0,0,.13-.71,23.6,23.6,0,0,1,0-5.11c0-.45-.41-.84-1-.87l-6.29-.3a1.22,1.22,0,0,1-.49-.12l0,0a.6.6,0,0,1-.32-.74l3-8.65.43-1.21a1,1,0,0,1,.28-.41,2.53,2.53,0,0,1,1.26-.68l6.88-1.4a3.12,3.12,0,0,0,1.37-.69,1.54,1.54,0,0,0,.37-.41A51.43,51.43,0,0,1,56,124.7a2.15,2.15,0,0,0,.44-1.34h0a.59.59,0,0,0,0-.2l-2.23-6.4a1,1,0,0,1,.07-.7,2.1,2.1,0,0,1,.55-.79l.11-.09,7.92-7.09a1.19,1.19,0,0,1,1.11-.33l.06,0a.45.45,0,0,1,.19.15l3.73,4.83c.27.35,1,.32,1.57,0A35,35,0,0,1,74,110.51a3.25,3.25,0,0,0,1.57-1.26.08.08,0,0,0,0,0l4-9a1.21,1.21,0,0,1,.39-.47,2.24,2.24,0,0,1,1.2-.47l7.32-.62a1.36,1.36,0,0,1,.63.08l0,0a.53.53,0,0,1,.32.63l-2.3,8.85a1,1,0,0,0,.75,1.11,12.31,12.31,0,0,1,3.19,1.57,1.53,1.53,0,0,0,1.65-.23l7.47-5.78A1.16,1.16,0,0,1,101.23,104.6Z"></path><path class="cls-4" d="M96.87,123.91c0,.81-.06,1.64-.14,2.48,0,.45.43.83,1,.87l6.28.3a1.25,1.25,0,0,1,.46.09Z"></path><path class="cls-4" d="M75.67,159.25c-.26-.35-.94-.32-1.56,0s-1.48.82-2.2,1.18l7.7,3.78h0a.62.62,0,0,1-.19-.14Z"></path><path class="cls-4" d="M55.65,162.67a12.24,12.24,0,0,1-3.2-1.58,1.5,1.5,0,0,0-1.63.24l-7.47,5.78a1.47,1.47,0,0,1-.82.32l11.87,5.81a.52.52,0,0,1-.31-.6l2.31-8.87A1,1,0,0,0,55.65,162.67Z"></path><path class="cls-4" d="M77.4,146.52a21.81,21.81,0,0,1-9.52,5.22l-.4.08a2.8,2.8,0,0,1-.28.06l-.65.09-.76.06h-.47a.88.88,0,0,1-.23,0,7.46,7.46,0,0,1-6.89-3.91,9.42,9.42,0,0,1-1-3.25c.57-.22,1.15-.48,1.74-.76,8.12-4,14.69-13.6,14.69-21.53a15,15,0,0,0-.09-1.69,13.32,13.32,0,0,1,5.19-.93h.32l.26,0a1.27,1.27,0,0,1,.28,0,7.29,7.29,0,0,1,5.76,3.84C88.45,129.69,84.89,139.83,77.4,146.52Z"></path><path class="cls-6" d="M77.4,146.52a21.81,21.81,0,0,1-9.52,5.22l-.4.08a2.8,2.8,0,0,1-.28.06l-.65.09-.76.06h-.47a.88.88,0,0,1-.23,0,7.46,7.46,0,0,1-6.89-3.91,9.42,9.42,0,0,1-1-3.25c.57-.22,1.15-.48,1.74-.76,8.12-4,14.69-13.6,14.69-21.53a15,15,0,0,0-.09-1.69,13.32,13.32,0,0,1,5.19-.93h.32l.26,0a1.27,1.27,0,0,1,.28,0,7.29,7.29,0,0,1,5.76,3.84C88.45,129.69,84.89,139.83,77.4,146.52Z"></path><path class="cls-4" d="M104.55,127.68a.05.05,0,0,0,0,0,1.19,1.19,0,0,0-.45-.1l-6.27-.3c-.64,0-1.11-.42-1.06-.86.09-.84.14-1.67.15-2.48a22.86,22.86,0,0,0-.14-2.64,2.31,2.31,0,0,1,.69-1.57l7-7.17a1.43,1.43,0,0,0,.42-1.47l-3.32-6.23a.48.48,0,0,0-.21-.19l0,0a1.13,1.13,0,0,0-1.07.28l-7.48,5.78a1.49,1.49,0,0,1-1.63.23,12.37,12.37,0,0,0-3.2-1.57,1,1,0,0,1-.75-1.11l2.3-8.86a.51.51,0,0,0-.31-.62,1.47,1.47,0,0,0-.7-.11l-7.31.62a2,2,0,0,0-1.6.94l-4,9a3.15,3.15,0,0,1-1.6,1.3,33.84,33.84,0,0,0-4.53,2.23c-.61.35-1.3.37-1.57,0l-3.74-4.84c-.27-.34-.87-.27-1.35.15l-8,7.18a1.64,1.64,0,0,0-.62,1.49l2.23,6.41a1.92,1.92,0,0,1-.4,1.54,52,52,0,0,0-3.7,5.42,3,3,0,0,1-1.74,1.11l-6.87,1.4a2.22,2.22,0,0,0-1.56,1.09l-3.45,9.85c-.17.46.22.86.85.89l6.28.3c.63,0,1.1.41,1,.86a24.35,24.35,0,0,0,0,5.12,2.28,2.28,0,0,1-.68,1.56l-7,7.18A1.44,1.44,0,0,0,38.7,161L42,167.18a.37.37,0,0,0,.2.19h0a.58.58,0,0,0,.26.06h0a1.37,1.37,0,0,0,.81-.33l7.48-5.78a1.51,1.51,0,0,1,1.63-.23,12.7,12.7,0,0,0,3.2,1.57,1,1,0,0,1,.75,1.11l-2.31,8.86a.53.53,0,0,0,.31.61h0a1.31,1.31,0,0,0,.69.1l7.31-.61a2.07,2.07,0,0,0,1.6-.94l4-9a3.27,3.27,0,0,1,1.6-1.31c.76-.3,1.54-.65,2.32-1s1.47-.76,2.2-1.18,1.31-.38,1.57,0l3.74,4.84a.49.49,0,0,0,.18.14,1.1,1.1,0,0,0,1.17-.3l8-7.18a1.62,1.62,0,0,0,.62-1.48l-2.24-6.41a1.93,1.93,0,0,1,.42-1.54,48.48,48.48,0,0,0,3.68-5.43A3,3,0,0,1,93,140.8l6.87-1.4a2.16,2.16,0,0,0,1.55-1.1l3.47-9.85A.61.61,0,0,0,104.55,127.68ZM67.89,151.74l-.41.09-.29,0c-.22,0-.43.07-.65.09l-.75.06-.47,0H65.1a7.48,7.48,0,0,1-6.89-3.92,9.38,9.38,0,0,1-1-3.24,11.92,11.92,0,0,1-.11-1.8c0-5.62,3.45-12.57,9.07-17.59a24.81,24.81,0,0,1,5.54-3.8,16.27,16.27,0,0,1,1.84-.8,13.54,13.54,0,0,1,5.19-.93h.32l.26,0,.29,0a7.27,7.27,0,0,1,5.75,3.85c3.1,5.81-.46,15.94-7.95,22.63A21.73,21.73,0,0,1,67.89,151.74Z"></path><line class="cls-7" x1="86.54" y1="97.4" x2="101.32" y2="104.64"></line><path class="cls-8" d="M51.89,130.53a3.12,3.12,0,0,1-1.37.69l-6.88,1.4a2.53,2.53,0,0,0-1.26.68l-14.81-7.21a2.58,2.58,0,0,1,1.31-.71l6.87-1.4a3.12,3.12,0,0,0,1.35-.67h0Z"></path><path class="cls-3" d="M56.4,123.35l-14.78-7.21a.58.58,0,0,0,0-.23l-2.25-6.4a1,1,0,0,1,.06-.64l11.29,5.48,3.5,1.7a1,1,0,0,0-.07.7l2.23,6.4A.59.59,0,0,1,56.4,123.35Z"></path><path class="cls-3" d="M79.93,99.74a1.21,1.21,0,0,0-.39.47l-4,9a.08.08,0,0,1,0,0L60.76,102s0,0,0-.06l4-9a1.13,1.13,0,0,1,.38-.45Z"></path><path class="cls-3" d="M101.23,104.6a1.16,1.16,0,0,0-1,.3l-7.47,5.78a1.53,1.53,0,0,1-1.65.23,12.31,12.31,0,0,0-3.19-1.57,1,1,0,0,1-.75-1.11l2.3-8.85a.53.53,0,0,0-.32-.63l0,0-2.81-1.38a.77.77,0,0,1,.27,0l.17.09Z"></path><path class="cls-3" d="M104.52,127.65a1.25,1.25,0,0,0-.46-.09l-6.28-.3c-.62,0-1.1-.42-1-.87.08-.84.14-1.67.14-2.48Z"></path><path class="cls-6" d="M79.61,164.23h0l-7.7-3.78c.72-.36,1.47-.76,2.2-1.18s1.3-.38,1.56,0l3.75,4.84A.62.62,0,0,0,79.61,164.23Z"></path><path class="cls-6" d="M56.4,163.77l-2.31,8.87a.52.52,0,0,0,.31.6l-11.87-5.81a1.47,1.47,0,0,0,.82-.32l7.47-5.78a1.5,1.5,0,0,1,1.63-.24,12.24,12.24,0,0,0,3.2,1.58A1,1,0,0,1,56.4,163.77Z"></path><path class="cls-8" d="M46.68,151.44a2.87,2.87,0,0,1-.55.86l-7,7.18a2,2,0,0,0-.44.72L23.92,153a1.63,1.63,0,0,1,.44-.74l7-7.18a2.72,2.72,0,0,0,.53-.84Z"></path><path class="cls-9" d="M75.54,109.25A3.25,3.25,0,0,1,74,110.51a35,35,0,0,0-4.53,2.22c-.61.35-1.3.38-1.57,0l-3.73-4.83a.45.45,0,0,0-.19-.15l-.06,0-7-3.44c.78-.38,1.56-.73,2.33-1l.27-.13a4,4,0,0,0,.75-.51,3.45,3.45,0,0,0,.28-.26.8.8,0,0,0,.15-.18l.11-.17Z"></path><path class="cls-6" d="M46.81,150.73a1.49,1.49,0,0,1-.13.71L31.9,144.22a1.72,1.72,0,0,0,.14-.72,20.84,20.84,0,0,1-.13-2.64l7,3.45,0,0a1.22,1.22,0,0,0,.49.12l6.29.3c.64,0,1.1.42,1,.87A23.6,23.6,0,0,0,46.81,150.73Z"></path><path class="cls-9" d="M56.4,123.35h0A2.15,2.15,0,0,1,56,124.7a51.43,51.43,0,0,0-3.7,5.42,1.54,1.54,0,0,1-.37.41l-14.78-7.22a1,1,0,0,0,.21-.21,1.12,1.12,0,0,0,.18-.21,46,46,0,0,1,3.69-5.43,1.17,1.17,0,0,0,.17-.28.75.75,0,0,0,.1-.2,1.17,1.17,0,0,0,0-.11s0,0,0-.06a1.45,1.45,0,0,0,.07-.26.84.84,0,0,0,0-.41Z"></path><path class="cls-3" d="M37.32,123.1a1,1,0,0,1-.21.21h0A2.23,2.23,0,0,0,37.32,123.1Z"></path><path class="cls-6" d="M42.21,167.36l-3-1.47-.57-.28-4.84-2.37-1.31-.64c-2.57-1.27-4.71-2.31-5-2.44l0,0a.28.28,0,0,1-.12-.08.53.53,0,0,1-.1-.12l-3.33-6.23a.8.8,0,0,1-.06-.52c0-.07,0-.14.05-.21l14.77,7.22a1,1,0,0,0,0,.75L42,167.17A.41.41,0,0,0,42.21,167.36Z"></path><path class="cls-3" d="M27.57,126.09a1.22,1.22,0,0,0-.25.39l-.42,1.22-2.26,6.43-.77,2.2a.63.63,0,0,0,0,.36.5.5,0,0,0,.1.19.52.52,0,0,0,.17.16l.12.07,1.16.57.32.15h0l.92.45.5.25.56.27.22.11.6.29,3.34,1.63,0,0,7,3.45a.6.6,0,0,1-.32-.74l3-8.65.43-1.21a1,1,0,0,1,.28-.41Z"></path><path class="cls-10" d="M56.87,104.31l-7.67-3.76a.7.7,0,0,0-.33-.08,1.3,1.3,0,0,0-.85.38h0l-4.8,4.29L40,108a2.13,2.13,0,0,0-.57.85l11.29,5.48,3.5,1.7a2.1,2.1,0,0,1,.55-.79l.11-.09,7.92-7.09a1.19,1.19,0,0,1,1.11-.33Z"></path><path class="cls-10" d="M89.08,98.73a1.36,1.36,0,0,0-.63-.08l-7.32.62a2.24,2.24,0,0,0-1.2.47L65.14,92.52A2.36,2.36,0,0,1,66.36,92l7.31-.61a1.29,1.29,0,0,1,.72.11l2,1,1,.48,6.26,3.07,1.55.76,1.12.54Z"></path><line class="cls-7" x1="86.71" y1="97.48" x2="86.53" y2="97.4"></line></g><g id="Device"><g id="Device-2" data-name="Device"><path class="cls-11" d="M267.42,18.71c-.32-2-2.23-2.74-4.52-1.62L137.06,78.56c-2.52,1.24-4.57,4.24-4.57,6.71v235c0,2.28,1.74,3.31,4,2.48a11.91,11.91,0,0,1-8.58-.25l-5.24-2.55c-2.53-1.23-4.58-4.23-4.58-6.71V78.25c0-2.48,2-5.48,4.58-6.71L248.49,10.06a11.74,11.74,0,0,1,9.16,0l5.25,2.56A8.56,8.56,0,0,1,267.42,18.71Z"></path><path class="cls-12" d="M262.9,17.09,137.06,78.56c-2.52,1.24-4.57,4.24-4.57,6.71v235c0,2.47,2,3.47,4.57,2.23L262.9,261c2.52-1.24,4.57-4.25,4.57-6.71v-235C267.47,16.86,265.42,15.85,262.9,17.09Zm-2,215.07c0,2.11-1.76,3.46-3.93,4.51l-114.41,55.9c-2.16,1.05-3.93.2-3.93-1.92V107.72a7.24,7.24,0,0,1,3.93-5.76L257,46.08c2.17-1.07,3.93-.21,3.93,1.9Z"></path><path class="cls-13" d="M136.49,322.71a11.91,11.91,0,0,1-8.58-.25l-5.24-2.55c-2.53-1.24-4.58-4.23-4.58-6.71V78.25a7.08,7.08,0,0,1,1.34-3.83l14.41,7a7.09,7.09,0,0,0-1.35,3.82v235C132.49,322.51,134.23,323.54,136.49,322.71Z"></path><path class="cls-13" d="M200,54c1.7-.83,3.07-.16,3.07,1.5A5.63,5.63,0,0,1,200,60c-1.69.83-3.07.16-3.07-1.5A5.63,5.63,0,0,1,200,54Z"></path><path class="cls-13" d="M191.12,67c6.24-2.91,17.36-8.51,23.5-11.57,1-.52,1.89-.16,1.89.8a3.42,3.42,0,0,1-1.9,2.67L191.07,70.4c-1,.51-1.89.15-1.89-.81A3.31,3.31,0,0,1,191.12,67Z"></path><path class="cls-13" d="M185.18,69.91c.95-.46,1.72-.09,1.72.84a3.18,3.18,0,0,1-1.72,2.53c-1,.46-1.73.09-1.73-.84A3.17,3.17,0,0,1,185.18,69.91Z"></path><path class="cls-14" d="M201.07,270.63c4-1.95,7.22-.37,7.22,3.53s-3.23,8.64-7.22,10.59-7.22.37-7.22-3.53S197.08,272.58,201.07,270.63Z"></path><path class="cls-11" d="M260.88,48V232.16A7.16,7.16,0,0,1,257,237.9L142.55,293.8c-2.16,1.05-3.92.2-3.92-1.92V280.39l103.89-50.75c2.17-1.06,3.92-2.4,3.92-4.51V51.21L257,46.07C259.14,45,260.88,45.87,260.88,48Z"></path><path class="cls-13" d="M257,46.07l-10.52,5.14V225.13c0,1.69-1.12,2.88-2.68,3.83l15.2,7.43a6.63,6.63,0,0,0,1.92-4.23V48C260.88,45.87,259.14,45,257,46.07Z"></path></g></g><g id="Speach_Bubbles" data-name="Speach Bubbles"><path class="cls-2" d="M149.09,234.73l-6.55-3.2a.58.58,0,0,1-.3-.23L141,229.52l3.89-1.9-.12.29Z"></path><path class="cls-15" d="M144.33,227.89l4.53,6.64a.73.73,0,0,0,1.22-.1l4.79-11.7Z"></path><path class="cls-15" d="M165.7,192.46a5.82,5.82,0,0,0-3.16-4.64L160,186.56a8.18,8.18,0,0,0-6.33,0l-51.28,25a5.84,5.84,0,0,0-3.17,4.65v22a5.82,5.82,0,0,0,3.17,4.64l2.58,1.26a8.18,8.18,0,0,0,6.33,0l51.57-25.21c2.85-1.37,2.87-2.75,2.87-4.46Z"></path><path class="cls-2" d="M99.19,238.2a5.81,5.81,0,0,0,3.16,4.64l2.58,1.26a8.22,8.22,0,0,0,5.79.22c-1.49.48-2.62-.24-2.62-1.77v-22a4.87,4.87,0,0,1,.92-2.64l-8.91-4.36a4.91,4.91,0,0,0-.92,2.65Z"></path><path class="cls-16" d="M165.6,191.7c-.37-1.14-1.6-1.5-3.06-.79l-51.28,25a5.85,5.85,0,0,0-2.23,2l-8.91-4.35a6,6,0,0,1,2.23-2l51.27-25a8.2,8.2,0,0,1,6.34,0l2.58,1.26A6,6,0,0,1,165.6,191.7Z"></path><path class="cls-12" d="M116.61,222.17l36.62-18c1.06-.52,1.92-.28,1.92.53a3.28,3.28,0,0,1-1.92,2.4l-36.62,18c-1.06.52-1.92.28-1.92-.53A3.28,3.28,0,0,1,116.61,222.17Z"></path><path class="cls-12" d="M116.61,229.53l36.62-18c1.06-.52,1.92-.29,1.92.52a3.29,3.29,0,0,1-1.92,2.41l-36.62,18c-1.06.52-1.92.28-1.92-.53A3.28,3.28,0,0,1,116.61,229.53Z"></path><path class="cls-4" d="M65.27,242.84l-6.54-3.2a.61.61,0,0,1-.31-.23l-1.21-1.78,3.89-1.9L61,236Z"></path><path class="cls-8" d="M65.27,242.84l-6.54-3.2a.61.61,0,0,1-.31-.23l-1.21-1.78,3.89-1.9L61,236Z"></path><path class="cls-4" d="M60.51,236,65,242.64a.74.74,0,0,0,1.23-.1l4.79-11.7Z"></path><path class="cls-4" d="M114.26,181.37a5.81,5.81,0,0,0-3.17-4.64l-2.58-1.26a8.09,8.09,0,0,0-6.33,0L41.31,205.22a5.81,5.81,0,0,0-3.17,4.64v25.28a5.81,5.81,0,0,0,3.17,4.64L43.89,241a8.09,8.09,0,0,0,6.33,0l61.17-29.93c2.84-1.37,2.87-2.75,2.87-4.46Z"></path><path class="cls-8" d="M38.14,235.14a5.81,5.81,0,0,0,3.17,4.64L43.89,241a8.28,8.28,0,0,0,5.79.23c-1.49.47-2.63-.25-2.63-1.78V214.21a4.92,4.92,0,0,1,.93-2.64l-8.91-4.35a4.81,4.81,0,0,0-.93,2.64Z"></path><path class="cls-5" d="M114.15,180.61c-.37-1.14-1.59-1.5-3.05-.79L50.22,209.57a5.85,5.85,0,0,0-2.23,2l-8.91-4.35a5.93,5.93,0,0,1,2.23-2l60.86-29.75a8.2,8.2,0,0,1,6.34,0l2.59,1.26A6,6,0,0,1,114.15,180.61Z"></path><path class="cls-17" d="M55.56,221.31l32.92-16.13c1.06-.52,1.92-.28,1.92.53a3.28,3.28,0,0,1-1.92,2.4L55.56,224.24c-1.06.52-1.92.28-1.92-.53A3.28,3.28,0,0,1,55.56,221.31Z"></path><path class="cls-17" d="M55.56,228.67,101.79,206c1-.52,1.91-.28,1.91.53a3.27,3.27,0,0,1-1.91,2.4L55.56,231.6c-1.06.52-1.92.28-1.92-.53A3.28,3.28,0,0,1,55.56,228.67Z"></path><path class="cls-17" d="M55.56,213.59l46.23-22.7c1-.52,1.91-.28,1.91.53a3.29,3.29,0,0,1-1.91,2.4l-46.23,22.7c-1.06.51-1.92.28-1.92-.53A3.26,3.26,0,0,1,55.56,213.59Z"></path><path class="cls-2" d="M475.28,51.2l-4.8-2.34h0a2.47,2.47,0,0,0-2.18.18L364,100a5.65,5.65,0,0,0-3.07,4.5v45.59a1.73,1.73,0,0,0,.93,1.69h0l4.78,2.34v-3.82L468.3,100.63a5.64,5.64,0,0,0,3.08-4.5V52.88Z"></path><path class="cls-16" d="M370.56,106.17,471.38,56.92v-4l3.9-1.68-4.8-2.34h0a2.47,2.47,0,0,0-2.18.18L364,100a5.83,5.83,0,0,0-2.17,1.94Z"></path><path class="cls-1" d="M368.83,102.32,473.1,51.38c1.7-.83,3.07-.16,3.07,1.5V98.47a5.61,5.61,0,0,1-3.07,4.5L368.83,153.91c-1.69.83-3.07.16-3.07-1.5V106.82A5.65,5.65,0,0,1,368.83,102.32Z"></path><path class="cls-18" d="M374.15,106.76,405.39,91.5c2-1,3.58-.18,3.58,1.75v30.52a6.58,6.58,0,0,1-3.58,5.25l-31.24,15.27c-2,1-3.59.18-3.59-1.75V112A6.6,6.6,0,0,1,374.15,106.76Z"></path><path class="cls-16" d="M389.5,105.64c3.31-1.62,6-.3,6,2.93s-2.69,7.18-6,8.8-6,.3-6-2.93S386.19,107.26,389.5,105.64Z"></path><path class="cls-16" d="M401.32,123c0-5.32-4.41-7.68-9.85-5l-3.41,1.66c-5.44,2.66-9.85,9.13-9.85,14.45v1.43l23.11-11.29Z"></path><path class="cls-2" d="M421.13,86.15,464,65.2c1.42-.69,2.56-.2,2.56,1.1A4.59,4.59,0,0,1,464,69.89l-42.89,21c-1.42.69-2.56.2-2.56-1.1A4.58,4.58,0,0,1,421.13,86.15Z"></path><path class="cls-2" d="M421.13,95.54l42.88-21c1.42-.69,2.56-.2,2.56,1.1A4.59,4.59,0,0,1,464,79.27l-42.89,21c-1.42.69-2.56.2-2.56-1.1A4.58,4.58,0,0,1,421.13,95.54Z"></path><path class="cls-2" d="M421.13,104.92,464,84c1.42-.69,2.56-.2,2.56,1.1a4.59,4.59,0,0,1-2.55,3.6l-42.89,21c-1.42.69-2.56.2-2.56-1.1A4.58,4.58,0,0,1,421.13,104.92Z"></path><path class="cls-2" d="M421.13,114.3l42.88-21c1.42-.69,2.56-.2,2.56,1.09A4.59,4.59,0,0,1,464,98L421.13,119c-1.42.69-2.56.2-2.56-1.1A4.58,4.58,0,0,1,421.13,114.3Z"></path></g><g id="Window"><path class="cls-19" d="M300.51,225.72c0,2.11-1.75,3.46-3.92,4.51l-114.42,55.9c-2.16,1.05-3.92.2-3.92-1.92V101.27a7.22,7.22,0,0,1,3.92-5.75L296.59,39.64c2.17-1.07,3.92-.21,3.92,1.9Z"></path><path class="cls-4" d="M180.42,287.08a2.86,2.86,0,0,1-1.31-.29,2.67,2.67,0,0,1-1.45-2.58V101.27a7.66,7.66,0,0,1,4.22-6.18L296.3,39.2a3.82,3.82,0,0,1,3.36-.24,2.69,2.69,0,0,1,1.44,2.58V225.72c0,2.6-2.4,4.07-4.21,4.95L182.47,286.56A4.68,4.68,0,0,1,180.42,287.08ZM298.35,39.68a3.36,3.36,0,0,0-1.46.39L182.47,96a6.72,6.72,0,0,0-3.63,5.32V284.21a1.78,1.78,0,0,0,.86,1.72,2.57,2.57,0,0,0,2.18-.23L296.3,229.8c2.5-1.22,3.62-2.48,3.62-4.08V41.54a1.76,1.76,0,0,0-.85-1.71A1.66,1.66,0,0,0,298.35,39.68Z"></path></g><g id="Character"><g id="Character-2" data-name="Character"><path class="cls-20" d="M362.76,216.12c.83-26-1.64-32.29-9.83-37.06l-3.18,15.09s3.74,17.79,3.34,23.71c-.36,5.21-.95,11.72-2.41,15.92a3.3,3.3,0,0,1-1.63,1.79c-2.09,1.1-2.93,2.24-4.5,3.63-1.23,1.09-2.28,1.36-2.11,1.71a2.17,2.17,0,0,0,2.59.77,14.24,14.24,0,0,0,3-1.36,15.33,15.33,0,0,1-3,4.41c-2.93,3-3.06,4.9,2.85,5,3.7,0,6.66-1.91,9.44-8.81a48.79,48.79,0,0,0,2.6-7.75C361.27,226.29,362.63,220.31,362.76,216.12Z"></path><path class="cls-11" d="M346,177.08c3.91-.48,9.23.22,12.67,5.42s4.27,14.13,4.66,23c0,0-6.82,4.82-15,2.45Z"></path><path class="cls-13" d="M357.54,320.34c.62.2.78,1.2.87,3.19.07,1.5.46,4.13-1.63,4.66s-5.14.25-6.47-1.17c-1.67-1.77-2.8-3.33-5.18-5.49-2.06-1.87-4.3-3.63-5.13-6.26-.75-2.37-.13-3.4,1.79-4.09,2.63-.95,6.77,2.15,8.84,2.64C352.41,314.24,356.92,320.14,357.54,320.34Z"></path><path class="cls-20" d="M357.54,318.49v2.45a8.14,8.14,0,0,1-7.3.16c-.12-.23-.76-3.49-.76-3.49Z"></path><path class="cls-13" d="M334.15,334.42a37.35,37.35,0,0,1,1.28,4c.35,1.48.86,4,.25,5.06s-3,1.83-6.7,1.81c-2.39,0-6.12,1.36-8.68,2.57s-8.13,1.74-10.92,1.46c-3.29-.33-6.7-1.94-7.23-3.09s.17-2.35,7.93-5.15c.07,0,10.78-3,14.53-6.47Z"></path><path class="cls-20" d="M334.15,331.78s0,1.81,0,2.85-1.43,2.58-5.18,2.47c-2.63-.08-4.47-.68-4.36-2.51v-2.65Z"></path><path class="cls-11" d="M359.42,286.06A58.15,58.15,0,0,0,356,273.33s1-11,1.53-21.39c.53-11.25,0-25.38.22-28.19,0,0-42.89-7.34-43.65,5.66s1.69,46.09,2.2,51.8,1.67,10.77,3.06,20,5.24,30.71,5.24,30.71a11.69,11.69,0,0,0,9.54-.16s3-26,2.7-32.59a48.55,48.55,0,0,0-3-14.38s.81-10.72,1.53-20,1.48-13.81,1.65-17.86l.92-.39s.94,16.09,1.45,21.8S341,279.5,343,290.11c1.69,9.21,6.74,28.68,6.74,28.68,4.9,2.24,7.82-.3,7.82-.3S360.74,294.05,359.42,286.06Z"></path><path class="cls-13" d="M337.08,246.91s10.4-4.34,15.61-8.25c0,0-4.84,5.76-11.18,8.32,0,0-2.26,20-2.25,19.58L338,246.88Z"></path><polygon class="cls-20" points="327.82 172.97 330.35 184.78 342.97 184.01 340.32 170.61 327.82 172.97"></polygon><path class="cls-18" d="M356.3,183.14c-1.25-3.21-6.07-6.71-10.89-5.95a163.66,163.66,0,0,0-21.12,4.46c-4.41,1.33-8.43,4.56-8.8,16.85,0,0-1.48,28.64-1.5,34.18a62.69,62.69,0,0,0,29,2.42c13.27-2.45,14.87-7.11,14.87-7.11s.17-20.6-.23-29.49C357.27,190.94,357.15,185.35,356.3,183.14Z"></path><path class="cls-21" d="M318.08,158.59s-3.2,4.32-2.81,4.73,2.84.74,2.84.74Z"></path><path class="cls-20" d="M327,146.65c-6.68,1.32-8.54,3.85-8.94,12.88-.41,9.42.81,12.36,2.3,13.6,1,.84,6.5.89,9.25.19,3.44-.87,11.2-3.37,14.74-8.17,4.17-5.66,5.1-13.23.4-16.24C338.11,144.67,329.68,146.11,327,146.65Z"></path><path class="cls-13" d="M318.11,149c1.95,2.83,6.2,4.19,6.2,4.19,1.28,1.23.58,6,2.83,6.8,0,0,1-3.5,4.45-3.12s4.07,4.12,1.93,6.45-4.21,1.49-4.21,1.49.24,5,2.92,7.74c0,0,3,.76,8.41-.33,3.34-.67,8-4.3,9.87-8.09,4-8,4.11-15.17-1.94-17.2-.74-3.65-4.19-5.22-8.09-5.9-8.4-1.47-13.81,3-20.28,2.58C316.5,143.39,315.81,145.67,318.11,149Z"></path><path class="cls-13" d="M348.71,148.15l4-2.07a2.59,2.59,0,0,0-3.21-.64A1.8,1.8,0,0,0,348.71,148.15Z"></path><path class="cls-20" d="M270.94,202.93c2.08.78,26.52,16.06,30.33,14.28s23.37-21.11,23.37-21.11c5.68-8,0-14.5,0-14.5s-6.27,1-9.55,5.18S297.64,206,297.64,206q-5.25-2.22-10.47-4.5c-2.86-1.26-5.73-2.51-8.54-3.86a11.77,11.77,0,0,1-2.2-1.15c-1.38-1.16-1.14-4-1.12-5.48a19,19,0,0,1,.12-2.13c.12-.87.32-3-1.53-2.32a2.17,2.17,0,0,0-.88.62,3.56,3.56,0,0,0-.67,1.07c-.34.92-.23,1.93-.55,2.86a.85.85,0,0,1-.23.37,1,1,0,0,1-.58.15c-2.7-.07-5.25-3.27-6.48-5a5,5,0,0,0-2.05-2,4,4,0,0,0-4.19,1.37,6.34,6.34,0,0,0-1.34,5,9.46,9.46,0,0,0,3.51,6.3A38,38,0,0,0,270.94,202.93Z"></path><path class="cls-11" d="M326.63,181c-2.7.26-7.18.43-11.57,4.64-5.13,4.91-11.88,12.94-11.88,12.94S305,206.35,315,208c0,0,9.25-8,11.82-12.44S329.8,184,326.63,181Z"></path></g></g><g id="Chart"><path class="cls-12" d="M373.79,79.11V47.58l22,12.31A65.57,65.57,0,0,1,373.79,79.11Z"></path><polygon class="cls-11" points="373.79 47.58 364.99 43.28 364.99 74.81 373.79 79.11 373.79 47.58"></polygon><polygon class="cls-4" points="408.58 23.7 375.59 43.77 366.79 39.47 399.78 19.4 408.58 23.7"></polygon><polygon class="cls-22" points="408.58 23.7 375.59 43.77 366.79 39.47 399.78 19.4 408.58 23.7"></polygon><path class="cls-4" d="M408.58,23.7c.89,10.18-2.65,21.43-10.32,32.75L384.5,48.76l-8.91-5Z"></path><path class="cls-3" d="M408.58,23.7c.89,10.18-2.65,21.43-10.32,32.75L384.5,48.76l-8.91-5Z"></path><polygon class="cls-4" points="398.26 56.45 389.45 52.15 366.79 39.47 375.59 43.77 398.26 56.45"></polygon><polygon class="cls-23" points="398.26 56.45 389.45 52.15 366.79 39.47 375.59 43.77 398.26 56.45"></polygon><path class="cls-4" d="M362.39,30,356.1,8.42c.88-.6,1.73-1.15,2.75-1.77,11.61-7.07,22.65-8.34,30.34-4.58l8.71,4.26c2.6,2.67.62,5.55,1.46,10l-34.44,21-.34.21Z"></path><path class="cls-24" d="M362.39,30,356.1,8.42c.88-.6,1.73-1.15,2.75-1.77,11.61-7.07,22.65-8.34,30.34-4.58l8.71,4.26c2.6,2.67.62,5.55,1.46,10l-34.44,21-.34.21Z"></path><path class="cls-4" d="M371.19,34.3,364.9,12.72c.89-.6,1.74-1.15,2.76-1.77,19.44-11.84,37.27-7.42,40.51,9.69l-34.44,21-.35.21Z"></path><path class="cls-10" d="M371.19,34.3,364.9,12.72c.89-.6,1.74-1.15,2.76-1.77,19.44-11.84,37.27-7.42,40.51,9.69l-34.44,21-.35.21Z"></path><polygon class="cls-4" points="356.1 8.43 364.9 12.72 373.38 41.81 364.58 37.51 356.1 8.43"></polygon><polygon class="cls-9" points="356.1 8.43 364.9 12.72 373.38 41.81 364.58 37.51 356.1 8.43"></polygon><path class="cls-4" d="M361.63,76.45c-5.69,2.54-10.58,6-15.29,5.9l-8.81-4.3c-4.6-2.22-8-6.31-9.7-12.14-2.37-8.1-.9-18.42,4.13-29.06a73.43,73.43,0,0,1,20.88-26l8.81,4.3-3.27,14.7L361.63,41Z"></path><path class="cls-8" d="M361.63,76.45c-5.69,2.54-10.58,6-15.29,5.9l-8.81-4.3c-4.6-2.22-8-6.31-9.7-12.14-2.37-8.1-.9-18.42,4.13-29.06a73.43,73.43,0,0,1,20.88-26l8.81,4.3-3.27,14.7L361.63,41Z"></path><path class="cls-18" d="M370.43,80.75c-16.33,7.29-29.8,3.18-33.8-10.54-2.36-8.1-.89-18.42,4.14-29.06a73.22,73.22,0,0,1,20.88-26l5.53,19,3.25,11.15Z"></path></g><g id="Envelope"><path class="cls-4" d="M390.19,164a2.79,2.79,0,0,1,1.53-2.24l78.15-38.18a3.94,3.94,0,0,1,3.05,0l1.72.84a2.8,2.8,0,0,1,1.53,2.24v50.69a2.81,2.81,0,0,1-1.52,2.24L396.5,217.79a4,4,0,0,1-3.06,0l-1.72-.84a2.81,2.81,0,0,1-1.53-2.24Z"></path><path class="cls-5" d="M390.19,164a2.79,2.79,0,0,1,1.53-2.24l78.15-38.18a3.94,3.94,0,0,1,3.05,0l1.72.84a2.8,2.8,0,0,1,1.53,2.24v50.69a2.81,2.81,0,0,1-1.52,2.24L396.5,217.79a4,4,0,0,1-3.06,0l-1.72-.84a2.81,2.81,0,0,1-1.53-2.24Z"></path><path class="cls-4" d="M397.36,166l-6.72-3.29a2.34,2.34,0,0,0-.45,1.28v50.68a2.81,2.81,0,0,0,1.53,2.24l1.72.84a4,4,0,0,0,3.06,0l.86-.42Z"></path><path class="cls-3" d="M397.36,166l-6.72-3.29a2.34,2.34,0,0,0-.45,1.28v50.68a2.81,2.81,0,0,0,1.53,2.24l1.72.84a4,4,0,0,0,3.06,0l.86-.42Z"></path><path class="cls-25" d="M476.17,126.69v50.69a2.41,2.41,0,0,1-.47,1.31,2.88,2.88,0,0,1-.9.84l-.05,0-.1.06L396.5,217.79h0a1.27,1.27,0,0,1-1,.1.86.86,0,0,1-.48-.85V166.36c0-.82.76-1.34,1.72-1.15l32.86,6.62,4.3.86a3.14,3.14,0,0,0,2.75-.87l5-5.87,33.57-39.54C475.71,125.74,476.17,125.87,476.17,126.69Z"></path><path class="cls-4" d="M474.65,179.62l.1-.06.05,0a2.88,2.88,0,0,0,.9-.84,2.32,2.32,0,0,0,.47-1.29L441.58,166l23.17,18.5Z"></path><path class="cls-8" d="M474.65,179.62l.1-.06.05,0a2.88,2.88,0,0,0,.9-.84,2.32,2.32,0,0,0,.47-1.29L441.58,166l23.17,18.5Z"></path><path class="cls-4" d="M395,217.05a.86.86,0,0,0,.48.85,1.27,1.27,0,0,0,1-.1h0l26.9-13.14,6.15-32.82L395,216.2Z"></path><path class="cls-8" d="M395,217.05a.86.86,0,0,0,.48.85,1.27,1.27,0,0,0,1-.1h0l26.9-13.14,6.15-32.82L395,216.2Z"></path><path class="cls-18" d="M475.7,178.69a2.88,2.88,0,0,1-.9.84l-.05,0L396.5,217.79h0a1.27,1.27,0,0,1-1,.1l37.42-50.55a6.47,6.47,0,0,1,7.35-1.91Z"></path><path class="cls-4" d="M395,164.87l35.94,13.42a6.48,6.48,0,0,0,7.36-1.91L476,125.27Z"></path><path class="cls-3" d="M395,164.87l35.94,13.42a6.48,6.48,0,0,0,7.36-1.91L476,125.27Z"></path><path class="cls-18" d="M395,164.87l36.19,11.44a6.48,6.48,0,0,0,7-1.94L476,125.27Z"></path></g></g></svg>